<svg width="142" height="80" viewBox="0 0 142 80" fill="none" xmlns="http://www.w3.org/2000/svg">
    <rect width="142" height="80" rx="4" fill="white"/>
    <rect x="22" y="33" width="16" height="3" rx="1" fill="#616161"/>
    <path d="M21.7 39.358C21.7 39.3007 21.7133 39.25 21.74 39.206C21.7653 39.1607 21.8007 39.1253 21.846 39.1C21.89 39.0733 21.9407 39.06 21.998 39.06H23.126C23.1833 39.06 23.234 39.0733 23.278 39.1C23.3233 39.1253 23.3587 39.1607 23.384 39.206C23.4107 39.25 23.424 39.3007 23.424 39.358V39.362C23.424 39.4193 23.4107 39.4707 23.384 39.516C23.3587 39.56 23.3233 39.5953 23.278 39.622C23.234 39.6473 23.1833 39.66 23.126 39.66H21.998C21.9407 39.66 21.89 39.6473 21.846 39.622C21.8007 39.5953 21.7653 39.56 21.74 39.516C21.7133 39.4707 21.7 39.4193 21.7 39.362V39.358ZM22.823 39.358C22.823 39.3007 22.8364 39.25 22.863 39.206C22.8884 39.1607 22.9237 39.1253 22.969 39.1C23.013 39.0733 23.0637 39.06 23.121 39.06H24.249C24.3064 39.06 24.357 39.0733 24.401 39.1C24.4464 39.1253 24.4817 39.1607 24.507 39.206C24.5337 39.25 24.547 39.3007 24.547 39.358V39.362C24.547 39.4193 24.5337 39.4707 24.507 39.516C24.4817 39.56 24.4464 39.5953 24.401 39.622C24.357 39.6473 24.3064 39.66 24.249 39.66H23.121C23.0637 39.66 23.013 39.6473 22.969 39.622C22.9237 39.5953 22.8884 39.56 22.863 39.516C22.8364 39.4707 22.823 39.4193 22.823 39.362V39.358ZM23.9461 39.358C23.9461 39.3007 23.9594 39.25 23.9861 39.206C24.0114 39.1607 24.0468 39.1253 24.0921 39.1C24.1361 39.0733 24.1868 39.06 24.2441 39.06H25.3721C25.4294 39.06 25.4801 39.0733 25.5241 39.1C25.5694 39.1253 25.6048 39.1607 25.6301 39.206C25.6568 39.25 25.6701 39.3007 25.6701 39.358V39.362C25.6701 39.4193 25.6568 39.4707 25.6301 39.516C25.6048 39.56 25.5694 39.5953 25.5241 39.622C25.4801 39.6473 25.4294 39.66 25.3721 39.66H24.2441C24.1868 39.66 24.1361 39.6473 24.0921 39.622C24.0468 39.5953 24.0114 39.56 23.9861 39.516C23.9594 39.4707 23.9461 39.4193 23.9461 39.362V39.358ZM25.0691 39.358C25.0691 39.3007 25.0825 39.25 25.1091 39.206C25.1345 39.1607 25.1698 39.1253 25.2151 39.1C25.2591 39.0733 25.3098 39.06 25.3671 39.06H26.4951C26.5525 39.06 26.6031 39.0733 26.6471 39.1C26.6925 39.1253 26.7278 39.1607 26.7531 39.206C26.7798 39.25 26.7931 39.3007 26.7931 39.358V39.362C26.7931 39.4193 26.7798 39.4707 26.7531 39.516C26.7278 39.56 26.6925 39.5953 26.6471 39.622C26.6031 39.6473 26.5525 39.66 26.4951 39.66H25.3671C25.3098 39.66 25.2591 39.6473 25.2151 39.622C25.1698 39.5953 25.1345 39.56 25.1091 39.516C25.0825 39.4707 25.0691 39.4193 25.0691 39.362V39.358ZM26.1922 39.358C26.1922 39.3007 26.2055 39.25 26.2322 39.206C26.2575 39.1607 26.2929 39.1253 26.3382 39.1C26.3822 39.0733 26.4329 39.06 26.4902 39.06H27.6182C27.6755 39.06 27.7262 39.0733 27.7702 39.1C27.8155 39.1253 27.8509 39.1607 27.8762 39.206C27.9029 39.25 27.9162 39.3007 27.9162 39.358V39.362C27.9162 39.4193 27.9029 39.4707 27.8762 39.516C27.8509 39.56 27.8155 39.5953 27.7702 39.622C27.7262 39.6473 27.6755 39.66 27.6182 39.66H26.4902C26.4329 39.66 26.3822 39.6473 26.3382 39.622C26.2929 39.5953 26.2575 39.56 26.2322 39.516C26.2055 39.4707 26.1922 39.4193 26.1922 39.362V39.358ZM27.3152 39.358C27.3152 39.3007 27.3286 39.25 27.3552 39.206C27.3806 39.1607 27.4159 39.1253 27.4612 39.1C27.5052 39.0733 27.5559 39.06 27.6132 39.06H28.7412C28.7986 39.06 28.8492 39.0733 28.8932 39.1C28.9386 39.1253 28.9739 39.1607 28.9992 39.206C29.0259 39.25 29.0392 39.3007 29.0392 39.358V39.362C29.0392 39.4193 29.0259 39.4707 28.9992 39.516C28.9739 39.56 28.9386 39.5953 28.8932 39.622C28.8492 39.6473 28.7986 39.66 28.7412 39.66H27.6132C27.5559 39.66 27.5052 39.6473 27.4612 39.622C27.4159 39.5953 27.3806 39.56 27.3552 39.516C27.3286 39.4707 27.3152 39.4193 27.3152 39.362V39.358ZM28.4383 39.358C28.4383 39.3007 28.4516 39.25 28.4783 39.206C28.5036 39.1607 28.5389 39.1253 28.5843 39.1C28.6283 39.0733 28.6789 39.06 28.7363 39.06H29.8643C29.9216 39.06 29.9723 39.0733 30.0163 39.1C30.0616 39.1253 30.0969 39.1607 30.1223 39.206C30.1489 39.25 30.1623 39.3007 30.1623 39.358V39.362C30.1623 39.4193 30.1489 39.4707 30.1223 39.516C30.0969 39.56 30.0616 39.5953 30.0163 39.622C29.9723 39.6473 29.9216 39.66 29.8643 39.66H28.7363C28.6789 39.66 28.6283 39.6473 28.5843 39.622C28.5389 39.5953 28.5036 39.56 28.4783 39.516C28.4516 39.4707 28.4383 39.4193 28.4383 39.362V39.358ZM29.5613 39.358C29.5613 39.3007 29.5747 39.25 29.6013 39.206C29.6267 39.1607 29.662 39.1253 29.7073 39.1C29.7513 39.0733 29.802 39.06 29.8593 39.06H30.9873C31.0447 39.06 31.0953 39.0733 31.1393 39.1C31.1847 39.1253 31.22 39.1607 31.2453 39.206C31.272 39.25 31.2853 39.3007 31.2853 39.358V39.362C31.2853 39.4193 31.272 39.4707 31.2453 39.516C31.22 39.56 31.1847 39.5953 31.1393 39.622C31.0953 39.6473 31.0447 39.66 30.9873 39.66H29.8593C29.802 39.66 29.7513 39.6473 29.7073 39.622C29.662 39.5953 29.6267 39.56 29.6013 39.516C29.5747 39.4707 29.5613 39.4193 29.5613 39.362V39.358ZM30.6844 39.358C30.6844 39.3007 30.6977 39.25 30.7244 39.206C30.7497 39.1607 30.785 39.1253 30.8304 39.1C30.8744 39.0733 30.925 39.06 30.9824 39.06H31.5584C31.6157 39.06 31.6664 39.0733 31.7104 39.1C31.7557 39.1253 31.791 39.1607 31.8164 39.206C31.843 39.25 31.8564 39.3007 31.8564 39.358V39.362C31.8564 39.4193 31.843 39.4707 31.8164 39.516C31.791 39.56 31.7557 39.5953 31.7104 39.622C31.6664 39.6473 31.6157 39.66 31.5584 39.66H30.9824C30.925 39.66 30.8744 39.6473 30.8304 39.622C30.785 39.5953 30.7497 39.56 30.7244 39.516C30.6977 39.4707 30.6844 39.4193 30.6844 39.362V39.358ZM31.2566 39.358C31.2566 39.3007 31.27 39.25 31.2966 39.206C31.322 39.1607 31.3573 39.1253 31.4026 39.1C31.4466 39.0733 31.4973 39.06 31.5546 39.06H32.6826C32.74 39.06 32.7906 39.0733 32.8346 39.1C32.88 39.1253 32.9153 39.1607 32.9406 39.206C32.9673 39.25 32.9806 39.3007 32.9806 39.358V39.362C32.9806 39.4193 32.9673 39.4707 32.9406 39.516C32.9153 39.56 32.88 39.5953 32.8346 39.622C32.7906 39.6473 32.74 39.66 32.6826 39.66H31.5546C31.4973 39.66 31.4466 39.6473 31.4026 39.622C31.3573 39.5953 31.322 39.56 31.2966 39.516C31.27 39.4707 31.2566 39.4193 31.2566 39.362V39.358ZM33.5789 39.358C33.5789 39.3007 33.5922 39.25 33.6189 39.206C33.6442 39.1607 33.6796 39.1253 33.7249 39.1C33.7689 39.0733 33.8196 39.06 33.8769 39.06H35.0049C35.0622 39.06 35.1129 39.0733 35.1569 39.1C35.2022 39.1253 35.2376 39.1607 35.2629 39.206C35.2896 39.25 35.3029 39.3007 35.3029 39.358V39.362C35.3029 39.4193 35.2896 39.4707 35.2629 39.516C35.2376 39.56 35.2022 39.5953 35.1569 39.622C35.1129 39.6473 35.0622 39.66 35.0049 39.66H33.8769C33.8196 39.66 33.7689 39.6473 33.7249 39.622C33.6796 39.5953 33.6442 39.56 33.6189 39.516C33.5922 39.4707 33.5789 39.4193 33.5789 39.362V39.358ZM34.702 39.358C34.702 39.3007 34.7153 39.25 34.742 39.206C34.7673 39.1607 34.8026 39.1253 34.848 39.1C34.892 39.0733 34.9426 39.06 35 39.06H36.128C36.1853 39.06 36.236 39.0733 36.28 39.1C36.3253 39.1253 36.3606 39.1607 36.386 39.206C36.4126 39.25 36.426 39.3007 36.426 39.358V39.362C36.426 39.4193 36.4126 39.4707 36.386 39.516C36.3606 39.56 36.3253 39.5953 36.28 39.622C36.236 39.6473 36.1853 39.66 36.128 39.66H35C34.9426 39.66 34.892 39.6473 34.848 39.622C34.8026 39.5953 34.7673 39.56 34.742 39.516C34.7153 39.4707 34.702 39.4193 34.702 39.362V39.358ZM35.825 39.358C35.825 39.3007 35.8383 39.25 35.865 39.206C35.8903 39.1607 35.9257 39.1253 35.971 39.1C36.015 39.0733 36.0657 39.06 36.123 39.06H37.251C37.3083 39.06 37.359 39.0733 37.403 39.1C37.4483 39.1253 37.4837 39.1607 37.509 39.206C37.5357 39.25 37.549 39.3007 37.549 39.358V39.362C37.549 39.4193 37.5357 39.4707 37.509 39.516C37.4837 39.56 37.4483 39.5953 37.403 39.622C37.359 39.6473 37.3083 39.66 37.251 39.66H36.123C36.0657 39.66 36.015 39.6473 35.971 39.622C35.9257 39.5953 35.8903 39.56 35.865 39.516C35.8383 39.4707 35.825 39.4193 35.825 39.362V39.358ZM36.948 39.358C36.948 39.3007 36.9614 39.25 36.988 39.206C37.0134 39.1607 37.0487 39.1253 37.094 39.1C37.138 39.0733 37.1887 39.06 37.246 39.06H38.374C38.4314 39.06 38.482 39.0733 38.526 39.1C38.5714 39.1253 38.6067 39.1607 38.632 39.206C38.6587 39.25 38.672 39.3007 38.672 39.358V39.362C38.672 39.4193 38.6587 39.4707 38.632 39.516C38.6067 39.56 38.5714 39.5953 38.526 39.622C38.482 39.6473 38.4314 39.66 38.374 39.66H37.246C37.1887 39.66 37.138 39.6473 37.094 39.622C37.0487 39.5953 37.0134 39.56 36.988 39.516C36.9614 39.4707 36.948 39.4193 36.948 39.362V39.358ZM38.0711 39.358C38.0711 39.3007 38.0844 39.25 38.1111 39.206C38.1364 39.1607 38.1718 39.1253 38.2171 39.1C38.2611 39.0733 38.3118 39.06 38.3691 39.06H38.9451C39.0024 39.06 39.0531 39.0733 39.0971 39.1C39.1424 39.1253 39.1778 39.1607 39.2031 39.206C39.2298 39.25 39.2431 39.3007 39.2431 39.358V39.362C39.2431 39.4193 39.2298 39.4707 39.2031 39.516C39.1778 39.56 39.1424 39.5953 39.0971 39.622C39.0531 39.6473 39.0024 39.66 38.9451 39.66H38.3691C38.3118 39.66 38.2611 39.6473 38.2171 39.622C38.1718 39.5953 38.1364 39.56 38.1111 39.516C38.0844 39.4707 38.0711 39.4193 38.0711 39.362V39.358ZM38.6434 39.358C38.6434 39.3007 38.6567 39.25 38.6834 39.206C38.7087 39.1607 38.744 39.1253 38.7894 39.1C38.8334 39.0733 38.884 39.06 38.9414 39.06H39.5174C39.5747 39.06 39.6254 39.0733 39.6694 39.1C39.7147 39.1253 39.75 39.1607 39.7754 39.206C39.802 39.25 39.8154 39.3007 39.8154 39.358V39.362C39.8154 39.4193 39.802 39.4707 39.7754 39.516C39.75 39.56 39.7147 39.5953 39.6694 39.622C39.6254 39.6473 39.5747 39.66 39.5174 39.66H38.9414C38.884 39.66 38.8334 39.6473 38.7894 39.622C38.744 39.5953 38.7087 39.56 38.6834 39.516C38.6567 39.4707 38.6434 39.4193 38.6434 39.362V39.358ZM40.4148 39.358C40.4148 39.3007 40.4282 39.25 40.4548 39.206C40.4802 39.1607 40.5155 39.1253 40.5608 39.1C40.6048 39.0733 40.6555 39.06 40.7128 39.06H41.8408C41.8982 39.06 41.9488 39.0733 41.9928 39.1C42.0382 39.1253 42.0735 39.1607 42.0988 39.206C42.1255 39.25 42.1388 39.3007 42.1388 39.358V39.362C42.1388 39.4193 42.1255 39.4707 42.0988 39.516C42.0735 39.56 42.0382 39.5953 41.9928 39.622C41.9488 39.6473 41.8982 39.66 41.8408 39.66H40.7128C40.6555 39.66 40.6048 39.6473 40.5608 39.622C40.5155 39.5953 40.4802 39.56 40.4548 39.516C40.4282 39.4707 40.4148 39.4193 40.4148 39.362V39.358ZM41.5379 39.358C41.5379 39.3007 41.5512 39.25 41.5779 39.206C41.6032 39.1607 41.6386 39.1253 41.6839 39.1C41.7279 39.0733 41.7786 39.06 41.8359 39.06H42.4119C42.4692 39.06 42.5199 39.0733 42.5639 39.1C42.6092 39.1253 42.6446 39.1607 42.6699 39.206C42.6966 39.25 42.7099 39.3007 42.7099 39.358V39.362C42.7099 39.4193 42.6966 39.4707 42.6699 39.516C42.6446 39.56 42.6092 39.5953 42.5639 39.622C42.5199 39.6473 42.4692 39.66 42.4119 39.66H41.8359C41.7786 39.66 41.7279 39.6473 41.6839 39.622C41.6386 39.5953 41.6032 39.56 41.5779 39.516C41.5512 39.4707 41.5379 39.4193 41.5379 39.362V39.358ZM42.1102 39.358C42.1102 39.3007 42.1235 39.25 42.1502 39.206C42.1755 39.1607 42.2108 39.1253 42.2562 39.1C42.3002 39.0733 42.3508 39.06 42.4082 39.06H43.5362C43.5935 39.06 43.6442 39.0733 43.6882 39.1C43.7335 39.1253 43.7688 39.1607 43.7942 39.206C43.8208 39.25 43.8342 39.3007 43.8342 39.358V39.362C43.8342 39.4193 43.8208 39.4707 43.7942 39.516C43.7688 39.56 43.7335 39.5953 43.6882 39.622C43.6442 39.6473 43.5935 39.66 43.5362 39.66H42.4082C42.3508 39.66 42.3002 39.6473 42.2562 39.622C42.2108 39.5953 42.1755 39.56 42.1502 39.516C42.1235 39.4707 42.1102 39.4193 42.1102 39.362V39.358ZM43.2332 39.358C43.2332 39.3007 43.2465 39.25 43.2732 39.206C43.2985 39.1607 43.3339 39.1253 43.3792 39.1C43.4232 39.0733 43.4739 39.06 43.5312 39.06H44.6592C44.7165 39.06 44.7672 39.0733 44.8112 39.1C44.8565 39.1253 44.8919 39.1607 44.9172 39.206C44.9439 39.25 44.9572 39.3007 44.9572 39.358V39.362C44.9572 39.4193 44.9439 39.4707 44.9172 39.516C44.8919 39.56 44.8565 39.5953 44.8112 39.622C44.7672 39.6473 44.7165 39.66 44.6592 39.66H43.5312C43.4739 39.66 43.4232 39.6473 43.3792 39.622C43.3339 39.5953 43.2985 39.56 43.2732 39.516C43.2465 39.4707 43.2332 39.4193 43.2332 39.362V39.358ZM44.3562 39.358C44.3562 39.3007 44.3696 39.25 44.3962 39.206C44.4216 39.1607 44.4569 39.1253 44.5022 39.1C44.5462 39.0733 44.5969 39.06 44.6542 39.06H45.2303C45.2876 39.06 45.3383 39.0733 45.3823 39.1C45.4276 39.1253 45.4629 39.1607 45.4883 39.206C45.5149 39.25 45.5283 39.3007 45.5283 39.358V39.362C45.5283 39.4193 45.5149 39.4707 45.4883 39.516C45.4629 39.56 45.4276 39.5953 45.3823 39.622C45.3383 39.6473 45.2876 39.66 45.2303 39.66H44.6542C44.5969 39.66 44.5462 39.6473 44.5022 39.622C44.4569 39.5953 44.4216 39.56 44.3962 39.516C44.3696 39.4707 44.3562 39.4193 44.3562 39.362V39.358ZM44.9285 39.358C44.9285 39.3007 44.9418 39.25 44.9685 39.206C44.9938 39.1607 45.0292 39.1253 45.0745 39.1C45.1185 39.0733 45.1692 39.06 45.2265 39.06H46.3545C46.4118 39.06 46.4625 39.0733 46.5065 39.1C46.5518 39.1253 46.5872 39.1607 46.6125 39.206C46.6392 39.25 46.6525 39.3007 46.6525 39.358V39.362C46.6525 39.4193 46.6392 39.4707 46.6125 39.516C46.5872 39.56 46.5518 39.5953 46.5065 39.622C46.4625 39.6473 46.4118 39.66 46.3545 39.66H45.2265C45.1692 39.66 45.1185 39.6473 45.0745 39.622C45.0292 39.5953 44.9938 39.56 44.9685 39.516C44.9418 39.4707 44.9285 39.4193 44.9285 39.362V39.358ZM47.2508 39.358C47.2508 39.3007 47.2641 39.25 47.2908 39.206C47.3161 39.1607 47.3514 39.1253 47.3968 39.1C47.4408 39.0733 47.4914 39.06 47.5488 39.06H48.6768C48.7341 39.06 48.7848 39.0733 48.8288 39.1C48.8741 39.1253 48.9094 39.1607 48.9348 39.206C48.9614 39.25 48.9748 39.3007 48.9748 39.358V39.362C48.9748 39.4193 48.9614 39.4707 48.9348 39.516C48.9094 39.56 48.8741 39.5953 48.8288 39.622C48.7848 39.6473 48.7341 39.66 48.6768 39.66H47.5488C47.4914 39.66 47.4408 39.6473 47.3968 39.622C47.3514 39.5953 47.3161 39.56 47.2908 39.516C47.2641 39.4707 47.2508 39.4193 47.2508 39.362V39.358ZM48.3738 39.358C48.3738 39.3007 48.3872 39.25 48.4138 39.206C48.4392 39.1607 48.4745 39.1253 48.5198 39.1C48.5638 39.0733 48.6145 39.06 48.6718 39.06H49.7998C49.8572 39.06 49.9078 39.0733 49.9518 39.1C49.9972 39.1253 50.0325 39.1607 50.0578 39.206C50.0845 39.25 50.0978 39.3007 50.0978 39.358V39.362C50.0978 39.4193 50.0845 39.4707 50.0578 39.516C50.0325 39.56 49.9972 39.5953 49.9518 39.622C49.9078 39.6473 49.8572 39.66 49.7998 39.66H48.6718C48.6145 39.66 48.5638 39.6473 48.5198 39.622C48.4745 39.5953 48.4392 39.56 48.4138 39.516C48.3872 39.4707 48.3738 39.4193 48.3738 39.362V39.358ZM49.4969 39.358C49.4969 39.3007 49.5102 39.25 49.5369 39.206C49.5622 39.1607 49.5975 39.1253 49.6429 39.1C49.6869 39.0733 49.7375 39.06 49.7949 39.06H50.9229C50.9802 39.06 51.0309 39.0733 51.0749 39.1C51.1202 39.1253 51.1555 39.1607 51.1809 39.206C51.2075 39.25 51.2209 39.3007 51.2209 39.358V39.362C51.2209 39.4193 51.2075 39.4707 51.1809 39.516C51.1555 39.56 51.1202 39.5953 51.0749 39.622C51.0309 39.6473 50.9802 39.66 50.9229 39.66H49.7949C49.7375 39.66 49.6869 39.6473 49.6429 39.622C49.5975 39.5953 49.5622 39.56 49.5369 39.516C49.5102 39.4707 49.4969 39.4193 49.4969 39.362V39.358ZM50.6199 39.358C50.6199 39.3007 50.6333 39.25 50.6599 39.206C50.6853 39.1607 50.7206 39.1253 50.7659 39.1C50.8099 39.0733 50.8606 39.06 50.9179 39.06H51.4939C51.5513 39.06 51.6019 39.0733 51.6459 39.1C51.6913 39.1253 51.7266 39.1607 51.7519 39.206C51.7786 39.25 51.7919 39.3007 51.7919 39.358V39.362C51.7919 39.4193 51.7786 39.4707 51.7519 39.516C51.7266 39.56 51.6913 39.5953 51.6459 39.622C51.6019 39.6473 51.5513 39.66 51.4939 39.66H50.9179C50.8606 39.66 50.8099 39.6473 50.7659 39.622C50.7206 39.5953 50.6853 39.56 50.6599 39.516C50.6333 39.4707 50.6199 39.4193 50.6199 39.362V39.358ZM51.1922 39.358C51.1922 39.3007 51.2055 39.25 51.2322 39.206C51.2575 39.1607 51.2929 39.1253 51.3382 39.1C51.3822 39.0733 51.4329 39.06 51.4902 39.06H52.6182C52.6755 39.06 52.7262 39.0733 52.7702 39.1C52.8155 39.1253 52.8509 39.1607 52.8762 39.206C52.9029 39.25 52.9162 39.3007 52.9162 39.358V39.362C52.9162 39.4193 52.9029 39.4707 52.8762 39.516C52.8509 39.56 52.8155 39.5953 52.7702 39.622C52.7262 39.6473 52.6755 39.66 52.6182 39.66H51.4902C51.4329 39.66 51.3822 39.6473 51.3382 39.622C51.2929 39.5953 51.2575 39.56 51.2322 39.516C51.2055 39.4707 51.1922 39.4193 51.1922 39.362V39.358ZM52.3152 39.358C52.3152 39.3007 52.3286 39.25 52.3552 39.206C52.3806 39.1607 52.4159 39.1253 52.4612 39.1C52.5052 39.0733 52.5559 39.06 52.6132 39.06H53.7412C53.7986 39.06 53.8492 39.0733 53.8932 39.1C53.9386 39.1253 53.9739 39.1607 53.9992 39.206C54.0259 39.25 54.0392 39.3007 54.0392 39.358V39.362C54.0392 39.4193 54.0259 39.4707 53.9992 39.516C53.9739 39.56 53.9386 39.5953 53.8932 39.622C53.8492 39.6473 53.7986 39.66 53.7412 39.66H52.6132C52.5559 39.66 52.5052 39.6473 52.4612 39.622C52.4159 39.5953 52.3806 39.56 52.3552 39.516C52.3286 39.4707 52.3152 39.4193 52.3152 39.362V39.358ZM21.7 42.358C21.7 42.3007 21.7133 42.25 21.74 42.206C21.7653 42.1607 21.8007 42.1253 21.846 42.1C21.89 42.0733 21.9407 42.06 21.998 42.06H23.126C23.1833 42.06 23.234 42.0733 23.278 42.1C23.3233 42.1253 23.3587 42.1607 23.384 42.206C23.4107 42.25 23.424 42.3007 23.424 42.358V42.362C23.424 42.4193 23.4107 42.4707 23.384 42.516C23.3587 42.56 23.3233 42.5953 23.278 42.622C23.234 42.6473 23.1833 42.66 23.126 42.66H21.998C21.9407 42.66 21.89 42.6473 21.846 42.622C21.8007 42.5953 21.7653 42.56 21.74 42.516C21.7133 42.4707 21.7 42.4193 21.7 42.362V42.358ZM22.823 42.358C22.823 42.3007 22.8364 42.25 22.863 42.206C22.8884 42.1607 22.9237 42.1253 22.969 42.1C23.013 42.0733 23.0637 42.06 23.121 42.06H24.249C24.3064 42.06 24.357 42.0733 24.401 42.1C24.4464 42.1253 24.4817 42.1607 24.507 42.206C24.5337 42.25 24.547 42.3007 24.547 42.358V42.362C24.547 42.4193 24.5337 42.4707 24.507 42.516C24.4817 42.56 24.4464 42.5953 24.401 42.622C24.357 42.6473 24.3064 42.66 24.249 42.66H23.121C23.0637 42.66 23.013 42.6473 22.969 42.622C22.9237 42.5953 22.8884 42.56 22.863 42.516C22.8364 42.4707 22.823 42.4193 22.823 42.362V42.358ZM23.9461 42.358C23.9461 42.3007 23.9594 42.25 23.9861 42.206C24.0114 42.1607 24.0468 42.1253 24.0921 42.1C24.1361 42.0733 24.1868 42.06 24.2441 42.06H25.3721C25.4294 42.06 25.4801 42.0733 25.5241 42.1C25.5694 42.1253 25.6048 42.1607 25.6301 42.206C25.6568 42.25 25.6701 42.3007 25.6701 42.358V42.362C25.6701 42.4193 25.6568 42.4707 25.6301 42.516C25.6048 42.56 25.5694 42.5953 25.5241 42.622C25.4801 42.6473 25.4294 42.66 25.3721 42.66H24.2441C24.1868 42.66 24.1361 42.6473 24.0921 42.622C24.0468 42.5953 24.0114 42.56 23.9861 42.516C23.9594 42.4707 23.9461 42.4193 23.9461 42.362V42.358ZM25.0691 42.358C25.0691 42.3007 25.0825 42.25 25.1091 42.206C25.1345 42.1607 25.1698 42.1253 25.2151 42.1C25.2591 42.0733 25.3098 42.06 25.3671 42.06H25.9431C26.0005 42.06 26.0511 42.0733 26.0951 42.1C26.1405 42.1253 26.1758 42.1607 26.2011 42.206C26.2278 42.25 26.2411 42.3007 26.2411 42.358V42.362C26.2411 42.4193 26.2278 42.4707 26.2011 42.516C26.1758 42.56 26.1405 42.5953 26.0951 42.622C26.0511 42.6473 26.0005 42.66 25.9431 42.66H25.3671C25.3098 42.66 25.2591 42.6473 25.2151 42.622C25.1698 42.5953 25.1345 42.56 25.1091 42.516C25.0825 42.4707 25.0691 42.4193 25.0691 42.362V42.358ZM25.6414 42.358C25.6414 42.3007 25.6547 42.25 25.6814 42.206C25.7067 42.1607 25.7421 42.1253 25.7874 42.1C25.8314 42.0733 25.8821 42.06 25.9394 42.06H27.0674C27.1247 42.06 27.1754 42.0733 27.2194 42.1C27.2647 42.1253 27.3001 42.1607 27.3254 42.206C27.3521 42.25 27.3654 42.3007 27.3654 42.358V42.362C27.3654 42.4193 27.3521 42.4707 27.3254 42.516C27.3001 42.56 27.2647 42.5953 27.2194 42.622C27.1754 42.6473 27.1247 42.66 27.0674 42.66H25.9394C25.8821 42.66 25.8314 42.6473 25.7874 42.622C25.7421 42.5953 25.7067 42.56 25.6814 42.516C25.6547 42.4707 25.6414 42.4193 25.6414 42.362V42.358ZM26.7645 42.358C26.7645 42.3007 26.7778 42.25 26.8045 42.206C26.8298 42.1607 26.8651 42.1253 26.9105 42.1C26.9545 42.0733 27.0051 42.06 27.0625 42.06H28.1905C28.2478 42.06 28.2985 42.0733 28.3425 42.1C28.3878 42.1253 28.4231 42.1607 28.4485 42.206C28.4751 42.25 28.4885 42.3007 28.4885 42.358V42.362C28.4885 42.4193 28.4751 42.4707 28.4485 42.516C28.4231 42.56 28.3878 42.5953 28.3425 42.622C28.2985 42.6473 28.2478 42.66 28.1905 42.66H27.0625C27.0051 42.66 26.9545 42.6473 26.9105 42.622C26.8651 42.5953 26.8298 42.56 26.8045 42.516C26.7778 42.4707 26.7645 42.4193 26.7645 42.362V42.358ZM27.8875 42.358C27.8875 42.3007 27.9008 42.25 27.9275 42.206C27.9528 42.1607 27.9882 42.1253 28.0335 42.1C28.0775 42.0733 28.1282 42.06 28.1855 42.06H29.3135C29.3708 42.06 29.4215 42.0733 29.4655 42.1C29.5108 42.1253 29.5462 42.1607 29.5715 42.206C29.5982 42.25 29.6115 42.3007 29.6115 42.358V42.362C29.6115 42.4193 29.5982 42.4707 29.5715 42.516C29.5462 42.56 29.5108 42.5953 29.4655 42.622C29.4215 42.6473 29.3708 42.66 29.3135 42.66H28.1855C28.1282 42.66 28.0775 42.6473 28.0335 42.622C27.9882 42.5953 27.9528 42.56 27.9275 42.516C27.9008 42.4707 27.8875 42.4193 27.8875 42.362V42.358ZM29.0105 42.358C29.0105 42.3007 29.0239 42.25 29.0505 42.206C29.0759 42.1607 29.1112 42.1253 29.1565 42.1C29.2005 42.0733 29.2512 42.06 29.3085 42.06H30.4365C30.4939 42.06 30.5445 42.0733 30.5885 42.1C30.6339 42.1253 30.6692 42.1607 30.6945 42.206C30.7212 42.25 30.7345 42.3007 30.7345 42.358V42.362C30.7345 42.4193 30.7212 42.4707 30.6945 42.516C30.6692 42.56 30.6339 42.5953 30.5885 42.622C30.5445 42.6473 30.4939 42.66 30.4365 42.66H29.3085C29.2512 42.66 29.2005 42.6473 29.1565 42.622C29.1112 42.5953 29.0759 42.56 29.0505 42.516C29.0239 42.4707 29.0105 42.4193 29.0105 42.362V42.358ZM30.1336 42.358C30.1336 42.3007 30.1469 42.25 30.1736 42.206C30.1989 42.1607 30.2343 42.1253 30.2796 42.1C30.3236 42.0733 30.3743 42.06 30.4316 42.06H31.5596C31.6169 42.06 31.6676 42.0733 31.7116 42.1C31.7569 42.1253 31.7923 42.1607 31.8176 42.206C31.8443 42.25 31.8576 42.3007 31.8576 42.358V42.362C31.8576 42.4193 31.8443 42.4707 31.8176 42.516C31.7923 42.56 31.7569 42.5953 31.7116 42.622C31.6676 42.6473 31.6169 42.66 31.5596 42.66H30.4316C30.3743 42.66 30.3236 42.6473 30.2796 42.622C30.2343 42.5953 30.1989 42.56 30.1736 42.516C30.1469 42.4707 30.1336 42.4193 30.1336 42.362V42.358ZM31.2566 42.358C31.2566 42.3007 31.27 42.25 31.2966 42.206C31.322 42.1607 31.3573 42.1253 31.4026 42.1C31.4466 42.0733 31.4973 42.06 31.5546 42.06H32.6826C32.74 42.06 32.7906 42.0733 32.8346 42.1C32.88 42.1253 32.9153 42.1607 32.9406 42.206C32.9673 42.25 32.9806 42.3007 32.9806 42.358V42.362C32.9806 42.4193 32.9673 42.4707 32.9406 42.516C32.9153 42.56 32.88 42.5953 32.8346 42.622C32.7906 42.6473 32.74 42.66 32.6826 42.66H31.5546C31.4973 42.66 31.4466 42.6473 31.4026 42.622C31.3573 42.5953 31.322 42.56 31.2966 42.516C31.27 42.4707 31.2566 42.4193 31.2566 42.362V42.358ZM32.3797 42.358C32.3797 42.3007 32.393 42.25 32.4197 42.206C32.445 42.1607 32.4804 42.1253 32.5257 42.1C32.5697 42.0733 32.6204 42.06 32.6777 42.06H33.8057C33.863 42.06 33.9137 42.0733 33.9577 42.1C34.003 42.1253 34.0384 42.1607 34.0637 42.206C34.0904 42.25 34.1037 42.3007 34.1037 42.358V42.362C34.1037 42.4193 34.0904 42.4707 34.0637 42.516C34.0384 42.56 34.003 42.5953 33.9577 42.622C33.9137 42.6473 33.863 42.66 33.8057 42.66H32.6777C32.6204 42.66 32.5697 42.6473 32.5257 42.622C32.4804 42.5953 32.445 42.56 32.4197 42.516C32.393 42.4707 32.3797 42.4193 32.3797 42.362V42.358ZM33.5027 42.358C33.5027 42.3007 33.5161 42.25 33.5427 42.206C33.5681 42.1607 33.6034 42.1253 33.6487 42.1C33.6927 42.0733 33.7434 42.06 33.8007 42.06H34.9287C34.9861 42.06 35.0367 42.0733 35.0807 42.1C35.1261 42.1253 35.1614 42.1607 35.1867 42.206C35.2134 42.25 35.2267 42.3007 35.2267 42.358V42.362C35.2267 42.4193 35.2134 42.4707 35.1867 42.516C35.1614 42.56 35.1261 42.5953 35.0807 42.622C35.0367 42.6473 34.9861 42.66 34.9287 42.66H33.8007C33.7434 42.66 33.6927 42.6473 33.6487 42.622C33.6034 42.5953 33.5681 42.56 33.5427 42.516C33.5161 42.4707 33.5027 42.4193 33.5027 42.362V42.358ZM34.6258 42.358C34.6258 42.3007 34.6391 42.25 34.6658 42.206C34.6911 42.1607 34.7264 42.1253 34.7718 42.1C34.8158 42.0733 34.8664 42.06 34.9238 42.06H36.0518C36.1091 42.06 36.1598 42.0733 36.2038 42.1C36.2491 42.1253 36.2844 42.1607 36.3098 42.206C36.3364 42.25 36.3498 42.3007 36.3498 42.358V42.362C36.3498 42.4193 36.3364 42.4707 36.3098 42.516C36.2844 42.56 36.2491 42.5953 36.2038 42.622C36.1598 42.6473 36.1091 42.66 36.0518 42.66H34.9238C34.8664 42.66 34.8158 42.6473 34.7718 42.622C34.7264 42.5953 34.6911 42.56 34.6658 42.516C34.6391 42.4707 34.6258 42.4193 34.6258 42.362V42.358ZM35.7488 42.358C35.7488 42.3007 35.7622 42.25 35.7888 42.206C35.8142 42.1607 35.8495 42.1253 35.8948 42.1C35.9388 42.0733 35.9895 42.06 36.0468 42.06H36.6228C36.6802 42.06 36.7308 42.0733 36.7748 42.1C36.8202 42.1253 36.8555 42.1607 36.8808 42.206C36.9075 42.25 36.9208 42.3007 36.9208 42.358V42.362C36.9208 42.4193 36.9075 42.4707 36.8808 42.516C36.8555 42.56 36.8202 42.5953 36.7748 42.622C36.7308 42.6473 36.6802 42.66 36.6228 42.66H36.0468C35.9895 42.66 35.9388 42.6473 35.8948 42.622C35.8495 42.5953 35.8142 42.56 35.7888 42.516C35.7622 42.4707 35.7488 42.4193 35.7488 42.362V42.358ZM36.3211 42.358C36.3211 42.3007 36.3344 42.25 36.3611 42.206C36.3864 42.1607 36.4218 42.1253 36.4671 42.1C36.5111 42.0733 36.5618 42.06 36.6191 42.06H37.7471C37.8044 42.06 37.8551 42.0733 37.8991 42.1C37.9444 42.1253 37.9798 42.1607 38.0051 42.206C38.0318 42.25 38.0451 42.3007 38.0451 42.358V42.362C38.0451 42.4193 38.0318 42.4707 38.0051 42.516C37.9798 42.56 37.9444 42.5953 37.8991 42.622C37.8551 42.6473 37.8044 42.66 37.7471 42.66H36.6191C36.5618 42.66 36.5111 42.6473 36.4671 42.622C36.4218 42.5953 36.3864 42.56 36.3611 42.516C36.3344 42.4707 36.3211 42.4193 36.3211 42.362V42.358ZM38.6434 42.358C38.6434 42.3007 38.6567 42.25 38.6834 42.206C38.7087 42.1607 38.744 42.1253 38.7894 42.1C38.8334 42.0733 38.884 42.06 38.9414 42.06H40.0694C40.1267 42.06 40.1774 42.0733 40.2214 42.1C40.2667 42.1253 40.302 42.1607 40.3274 42.206C40.354 42.25 40.3674 42.3007 40.3674 42.358V42.362C40.3674 42.4193 40.354 42.4707 40.3274 42.516C40.302 42.56 40.2667 42.5953 40.2214 42.622C40.1774 42.6473 40.1267 42.66 40.0694 42.66H38.9414C38.884 42.66 38.8334 42.6473 38.7894 42.622C38.744 42.5953 38.7087 42.56 38.6834 42.516C38.6567 42.4707 38.6434 42.4193 38.6434 42.362V42.358ZM39.7664 42.358C39.7664 42.3007 39.7797 42.25 39.8064 42.206C39.8317 42.1607 39.8671 42.1253 39.9124 42.1C39.9564 42.0733 40.0071 42.06 40.0644 42.06H41.1924C41.2497 42.06 41.3004 42.0733 41.3444 42.1C41.3897 42.1253 41.4251 42.1607 41.4504 42.206C41.4771 42.25 41.4904 42.3007 41.4904 42.358V42.362C41.4904 42.4193 41.4771 42.4707 41.4504 42.516C41.4251 42.56 41.3897 42.5953 41.3444 42.622C41.3004 42.6473 41.2497 42.66 41.1924 42.66H40.0644C40.0071 42.66 39.9564 42.6473 39.9124 42.622C39.8671 42.5953 39.8317 42.56 39.8064 42.516C39.7797 42.4707 39.7664 42.4193 39.7664 42.362V42.358ZM40.8895 42.358C40.8895 42.3007 40.9028 42.25 40.9295 42.206C40.9548 42.1607 40.9901 42.1253 41.0355 42.1C41.0795 42.0733 41.1301 42.06 41.1875 42.06H42.3155C42.3728 42.06 42.4235 42.0733 42.4675 42.1C42.5128 42.1253 42.5481 42.1607 42.5735 42.206C42.6001 42.25 42.6135 42.3007 42.6135 42.358V42.362C42.6135 42.4193 42.6001 42.4707 42.5735 42.516C42.5481 42.56 42.5128 42.5953 42.4675 42.622C42.4235 42.6473 42.3728 42.66 42.3155 42.66H41.1875C41.1301 42.66 41.0795 42.6473 41.0355 42.622C40.9901 42.5953 40.9548 42.56 40.9295 42.516C40.9028 42.4707 40.8895 42.4193 40.8895 42.362V42.358ZM42.0125 42.358C42.0125 42.3007 42.0258 42.25 42.0525 42.206C42.0778 42.1607 42.1132 42.1253 42.1585 42.1C42.2025 42.0733 42.2532 42.06 42.3105 42.06H43.4385C43.4958 42.06 43.5465 42.0733 43.5905 42.1C43.6358 42.1253 43.6712 42.1607 43.6965 42.206C43.7232 42.25 43.7365 42.3007 43.7365 42.358V42.362C43.7365 42.4193 43.7232 42.4707 43.6965 42.516C43.6712 42.56 43.6358 42.5953 43.5905 42.622C43.5465 42.6473 43.4958 42.66 43.4385 42.66H42.3105C42.2532 42.66 42.2025 42.6473 42.1585 42.622C42.1132 42.5953 42.0778 42.56 42.0525 42.516C42.0258 42.4707 42.0125 42.4193 42.0125 42.362V42.358ZM43.1355 42.358C43.1355 42.3007 43.1489 42.25 43.1755 42.206C43.2009 42.1607 43.2362 42.1253 43.2815 42.1C43.3255 42.0733 43.3762 42.06 43.4335 42.06H44.0095C44.0669 42.06 44.1175 42.0733 44.1615 42.1C44.2069 42.1253 44.2422 42.1607 44.2675 42.206C44.2942 42.25 44.3075 42.3007 44.3075 42.358V42.362C44.3075 42.4193 44.2942 42.4707 44.2675 42.516C44.2422 42.56 44.2069 42.5953 44.1615 42.622C44.1175 42.6473 44.0669 42.66 44.0095 42.66H43.4335C43.3762 42.66 43.3255 42.6473 43.2815 42.622C43.2362 42.5953 43.2009 42.56 43.1755 42.516C43.1489 42.4707 43.1355 42.4193 43.1355 42.362V42.358ZM43.7078 42.358C43.7078 42.3007 43.7211 42.25 43.7478 42.206C43.7731 42.1607 43.8085 42.1253 43.8538 42.1C43.8978 42.0733 43.9485 42.06 44.0058 42.06H44.5818C44.6391 42.06 44.6898 42.0733 44.7338 42.1C44.7791 42.1253 44.8145 42.1607 44.8398 42.206C44.8665 42.25 44.8798 42.3007 44.8798 42.358V42.362C44.8798 42.4193 44.8665 42.4707 44.8398 42.516C44.8145 42.56 44.7791 42.5953 44.7338 42.622C44.6898 42.6473 44.6391 42.66 44.5818 42.66H44.0058C43.9485 42.66 43.8978 42.6473 43.8538 42.622C43.8085 42.5953 43.7731 42.56 43.7478 42.516C43.7211 42.4707 43.7078 42.4193 43.7078 42.362V42.358ZM45.4793 42.358C45.4793 42.3007 45.4926 42.25 45.5193 42.206C45.5446 42.1607 45.58 42.1253 45.6253 42.1C45.6693 42.0733 45.72 42.06 45.7773 42.06H46.9053C46.9626 42.06 47.0133 42.0733 47.0573 42.1C47.1026 42.1253 47.138 42.1607 47.1633 42.206C47.19 42.25 47.2033 42.3007 47.2033 42.358V42.362C47.2033 42.4193 47.19 42.4707 47.1633 42.516C47.138 42.56 47.1026 42.5953 47.0573 42.622C47.0133 42.6473 46.9626 42.66 46.9053 42.66H45.7773C45.72 42.66 45.6693 42.6473 45.6253 42.622C45.58 42.5953 45.5446 42.56 45.5193 42.516C45.4926 42.4707 45.4793 42.4193 45.4793 42.362V42.358ZM46.6023 42.358C46.6023 42.3007 46.6157 42.25 46.6423 42.206C46.6677 42.1607 46.703 42.1253 46.7483 42.1C46.7923 42.0733 46.843 42.06 46.9003 42.06H47.4763C47.5337 42.06 47.5843 42.0733 47.6283 42.1C47.6737 42.1253 47.709 42.1607 47.7343 42.206C47.761 42.25 47.7743 42.3007 47.7743 42.358V42.362C47.7743 42.4193 47.761 42.4707 47.7343 42.516C47.709 42.56 47.6737 42.5953 47.6283 42.622C47.5843 42.6473 47.5337 42.66 47.4763 42.66H46.9003C46.843 42.66 46.7923 42.6473 46.7483 42.622C46.703 42.5953 46.6677 42.56 46.6423 42.516C46.6157 42.4707 46.6023 42.4193 46.6023 42.362V42.358ZM47.1746 42.358C47.1746 42.3007 47.1879 42.25 47.2146 42.206C47.2399 42.1607 47.2753 42.1253 47.3206 42.1C47.3646 42.0733 47.4153 42.06 47.4726 42.06H48.6006C48.6579 42.06 48.7086 42.0733 48.7526 42.1C48.7979 42.1253 48.8333 42.1607 48.8586 42.206C48.8853 42.25 48.8986 42.3007 48.8986 42.358V42.362C48.8986 42.4193 48.8853 42.4707 48.8586 42.516C48.8333 42.56 48.7979 42.5953 48.7526 42.622C48.7086 42.6473 48.6579 42.66 48.6006 42.66H47.4726C47.4153 42.66 47.3646 42.6473 47.3206 42.622C47.2753 42.5953 47.2399 42.56 47.2146 42.516C47.1879 42.4707 47.1746 42.4193 47.1746 42.362V42.358ZM48.2977 42.358C48.2977 42.3007 48.311 42.25 48.3377 42.206C48.363 42.1607 48.3983 42.1253 48.4437 42.1C48.4877 42.0733 48.5383 42.06 48.5957 42.06H49.7237C49.781 42.06 49.8317 42.0733 49.8757 42.1C49.921 42.1253 49.9563 42.1607 49.9817 42.206C50.0083 42.25 50.0217 42.3007 50.0217 42.358V42.362C50.0217 42.4193 50.0083 42.4707 49.9817 42.516C49.9563 42.56 49.921 42.5953 49.8757 42.622C49.8317 42.6473 49.781 42.66 49.7237 42.66H48.5957C48.5383 42.66 48.4877 42.6473 48.4437 42.622C48.3983 42.5953 48.363 42.56 48.3377 42.516C48.311 42.4707 48.2977 42.4193 48.2977 42.362V42.358ZM49.4207 42.358C49.4207 42.3007 49.434 42.25 49.4607 42.206C49.486 42.1607 49.5214 42.1253 49.5667 42.1C49.6107 42.0733 49.6614 42.06 49.7187 42.06H50.2947C50.352 42.06 50.4027 42.0733 50.4467 42.1C50.492 42.1253 50.5274 42.1607 50.5527 42.206C50.5794 42.25 50.5927 42.3007 50.5927 42.358V42.362C50.5927 42.4193 50.5794 42.4707 50.5527 42.516C50.5274 42.56 50.492 42.5953 50.4467 42.622C50.4027 42.6473 50.352 42.66 50.2947 42.66H49.7187C49.6614 42.66 49.6107 42.6473 49.5667 42.622C49.5214 42.5953 49.486 42.56 49.4607 42.516C49.434 42.4707 49.4207 42.4193 49.4207 42.362V42.358ZM49.993 42.358C49.993 42.3007 50.0063 42.25 50.033 42.206C50.0583 42.1607 50.0936 42.1253 50.139 42.1C50.183 42.0733 50.2336 42.06 50.291 42.06H51.419C51.4763 42.06 51.527 42.0733 51.571 42.1C51.6163 42.1253 51.6516 42.1607 51.677 42.206C51.7036 42.25 51.717 42.3007 51.717 42.358V42.362C51.717 42.4193 51.7036 42.4707 51.677 42.516C51.6516 42.56 51.6163 42.5953 51.571 42.622C51.527 42.6473 51.4763 42.66 51.419 42.66H50.291C50.2336 42.66 50.183 42.6473 50.139 42.622C50.0936 42.5953 50.0583 42.56 50.033 42.516C50.0063 42.4707 49.993 42.4193 49.993 42.362V42.358ZM52.3152 42.358C52.3152 42.3007 52.3286 42.25 52.3552 42.206C52.3806 42.1607 52.4159 42.1253 52.4612 42.1C52.5052 42.0733 52.5559 42.06 52.6132 42.06H53.7412C53.7986 42.06 53.8492 42.0733 53.8932 42.1C53.9386 42.1253 53.9739 42.1607 53.9992 42.206C54.0259 42.25 54.0392 42.3007 54.0392 42.358V42.362C54.0392 42.4193 54.0259 42.4707 53.9992 42.516C53.9739 42.56 53.9386 42.5953 53.8932 42.622C53.8492 42.6473 53.7986 42.66 53.7412 42.66H52.6132C52.5559 42.66 52.5052 42.6473 52.4612 42.622C52.4159 42.5953 52.3806 42.56 52.3552 42.516C52.3286 42.4707 52.3152 42.4193 52.3152 42.362V42.358ZM53.4383 42.358C53.4383 42.3007 53.4516 42.25 53.4783 42.206C53.5036 42.1607 53.5389 42.1253 53.5843 42.1C53.6283 42.0733 53.6789 42.06 53.7363 42.06H54.8643C54.9216 42.06 54.9723 42.0733 55.0163 42.1C55.0616 42.1253 55.0969 42.1607 55.1223 42.206C55.1489 42.25 55.1623 42.3007 55.1623 42.358V42.362C55.1623 42.4193 55.1489 42.4707 55.1223 42.516C55.0969 42.56 55.0616 42.5953 55.0163 42.622C54.9723 42.6473 54.9216 42.66 54.8643 42.66H53.7363C53.6789 42.66 53.6283 42.6473 53.5843 42.622C53.5389 42.5953 53.5036 42.56 53.4783 42.516C53.4516 42.4707 53.4383 42.4193 53.4383 42.362V42.358ZM54.5613 42.358C54.5613 42.3007 54.5747 42.25 54.6013 42.206C54.6267 42.1607 54.662 42.1253 54.7073 42.1C54.7513 42.0733 54.802 42.06 54.8593 42.06H55.9873C56.0447 42.06 56.0953 42.0733 56.1393 42.1C56.1847 42.1253 56.22 42.1607 56.2453 42.206C56.272 42.25 56.2853 42.3007 56.2853 42.358V42.362C56.2853 42.4193 56.272 42.4707 56.2453 42.516C56.22 42.56 56.1847 42.5953 56.1393 42.622C56.0953 42.6473 56.0447 42.66 55.9873 42.66H54.8593C54.802 42.66 54.7513 42.6473 54.7073 42.622C54.662 42.5953 54.6267 42.56 54.6013 42.516C54.5747 42.4707 54.5613 42.4193 54.5613 42.362V42.358ZM55.6844 42.358C55.6844 42.3007 55.6977 42.25 55.7244 42.206C55.7497 42.1607 55.785 42.1253 55.8304 42.1C55.8744 42.0733 55.925 42.06 55.9824 42.06H56.5584C56.6157 42.06 56.6664 42.0733 56.7104 42.1C56.7557 42.1253 56.791 42.1607 56.8164 42.206C56.843 42.25 56.8564 42.3007 56.8564 42.358V42.362C56.8564 42.4193 56.843 42.4707 56.8164 42.516C56.791 42.56 56.7557 42.5953 56.7104 42.622C56.6664 42.6473 56.6157 42.66 56.5584 42.66H55.9824C55.925 42.66 55.8744 42.6473 55.8304 42.622C55.785 42.5953 55.7497 42.56 55.7244 42.516C55.6977 42.4707 55.6844 42.4193 55.6844 42.362V42.358ZM56.2566 42.358C56.2566 42.3007 56.27 42.25 56.2966 42.206C56.322 42.1607 56.3573 42.1253 56.4026 42.1C56.4466 42.0733 56.4973 42.06 56.5546 42.06H57.6826C57.74 42.06 57.7906 42.0733 57.8346 42.1C57.88 42.1253 57.9153 42.1607 57.9406 42.206C57.9673 42.25 57.9806 42.3007 57.9806 42.358V42.362C57.9806 42.4193 57.9673 42.4707 57.9406 42.516C57.9153 42.56 57.88 42.5953 57.8346 42.622C57.7906 42.6473 57.74 42.66 57.6826 42.66H56.5546C56.4973 42.66 56.4466 42.6473 56.4026 42.622C56.3573 42.5953 56.322 42.56 56.2966 42.516C56.27 42.4707 56.2566 42.4193 56.2566 42.362V42.358ZM57.3797 42.358C57.3797 42.3007 57.393 42.25 57.4197 42.206C57.445 42.1607 57.4804 42.1253 57.5257 42.1C57.5697 42.0733 57.6204 42.06 57.6777 42.06H58.8057C58.863 42.06 58.9137 42.0733 58.9577 42.1C59.003 42.1253 59.0384 42.1607 59.0637 42.206C59.0904 42.25 59.1037 42.3007 59.1037 42.358V42.362C59.1037 42.4193 59.0904 42.4707 59.0637 42.516C59.0384 42.56 59.003 42.5953 58.9577 42.622C58.9137 42.6473 58.863 42.66 58.8057 42.66H57.6777C57.6204 42.66 57.5697 42.6473 57.5257 42.622C57.4804 42.5953 57.445 42.56 57.4197 42.516C57.393 42.4707 57.3797 42.4193 57.3797 42.362V42.358ZM21.7 45.358C21.7 45.3007 21.7133 45.25 21.74 45.206C21.7653 45.1607 21.8007 45.1253 21.846 45.1C21.89 45.0733 21.9407 45.06 21.998 45.06H23.126C23.1833 45.06 23.234 45.0733 23.278 45.1C23.3233 45.1253 23.3587 45.1607 23.384 45.206C23.4107 45.25 23.424 45.3007 23.424 45.358V45.362C23.424 45.4193 23.4107 45.4707 23.384 45.516C23.3587 45.56 23.3233 45.5953 23.278 45.622C23.234 45.6473 23.1833 45.66 23.126 45.66H21.998C21.9407 45.66 21.89 45.6473 21.846 45.622C21.8007 45.5953 21.7653 45.56 21.74 45.516C21.7133 45.4707 21.7 45.4193 21.7 45.362V45.358ZM22.823 45.358C22.823 45.3007 22.8364 45.25 22.863 45.206C22.8884 45.1607 22.9237 45.1253 22.969 45.1C23.013 45.0733 23.0637 45.06 23.121 45.06H24.249C24.3064 45.06 24.357 45.0733 24.401 45.1C24.4464 45.1253 24.4817 45.1607 24.507 45.206C24.5337 45.25 24.547 45.3007 24.547 45.358V45.362C24.547 45.4193 24.5337 45.4707 24.507 45.516C24.4817 45.56 24.4464 45.5953 24.401 45.622C24.357 45.6473 24.3064 45.66 24.249 45.66H23.121C23.0637 45.66 23.013 45.6473 22.969 45.622C22.9237 45.5953 22.8884 45.56 22.863 45.516C22.8364 45.4707 22.823 45.4193 22.823 45.362V45.358ZM23.9461 45.358C23.9461 45.3007 23.9594 45.25 23.9861 45.206C24.0114 45.1607 24.0468 45.1253 24.0921 45.1C24.1361 45.0733 24.1868 45.06 24.2441 45.06H25.3721C25.4294 45.06 25.4801 45.0733 25.5241 45.1C25.5694 45.1253 25.6048 45.1607 25.6301 45.206C25.6568 45.25 25.6701 45.3007 25.6701 45.358V45.362C25.6701 45.4193 25.6568 45.4707 25.6301 45.516C25.6048 45.56 25.5694 45.5953 25.5241 45.622C25.4801 45.6473 25.4294 45.66 25.3721 45.66H24.2441C24.1868 45.66 24.1361 45.6473 24.0921 45.622C24.0468 45.5953 24.0114 45.56 23.9861 45.516C23.9594 45.4707 23.9461 45.4193 23.9461 45.362V45.358ZM25.0691 45.358C25.0691 45.3007 25.0825 45.25 25.1091 45.206C25.1345 45.1607 25.1698 45.1253 25.2151 45.1C25.2591 45.0733 25.3098 45.06 25.3671 45.06H25.9431C26.0005 45.06 26.0511 45.0733 26.0951 45.1C26.1405 45.1253 26.1758 45.1607 26.2011 45.206C26.2278 45.25 26.2411 45.3007 26.2411 45.358V45.362C26.2411 45.4193 26.2278 45.4707 26.2011 45.516C26.1758 45.56 26.1405 45.5953 26.0951 45.622C26.0511 45.6473 26.0005 45.66 25.9431 45.66H25.3671C25.3098 45.66 25.2591 45.6473 25.2151 45.622C25.1698 45.5953 25.1345 45.56 25.1091 45.516C25.0825 45.4707 25.0691 45.4193 25.0691 45.362V45.358ZM25.6414 45.358C25.6414 45.3007 25.6547 45.25 25.6814 45.206C25.7067 45.1607 25.7421 45.1253 25.7874 45.1C25.8314 45.0733 25.8821 45.06 25.9394 45.06H27.0674C27.1247 45.06 27.1754 45.0733 27.2194 45.1C27.2647 45.1253 27.3001 45.1607 27.3254 45.206C27.3521 45.25 27.3654 45.3007 27.3654 45.358V45.362C27.3654 45.4193 27.3521 45.4707 27.3254 45.516C27.3001 45.56 27.2647 45.5953 27.2194 45.622C27.1754 45.6473 27.1247 45.66 27.0674 45.66H25.9394C25.8821 45.66 25.8314 45.6473 25.7874 45.622C25.7421 45.5953 25.7067 45.56 25.6814 45.516C25.6547 45.4707 25.6414 45.4193 25.6414 45.362V45.358ZM26.7645 45.358C26.7645 45.3007 26.7778 45.25 26.8045 45.206C26.8298 45.1607 26.8651 45.1253 26.9105 45.1C26.9545 45.0733 27.0051 45.06 27.0625 45.06H28.1905C28.2478 45.06 28.2985 45.0733 28.3425 45.1C28.3878 45.1253 28.4231 45.1607 28.4485 45.206C28.4751 45.25 28.4885 45.3007 28.4885 45.358V45.362C28.4885 45.4193 28.4751 45.4707 28.4485 45.516C28.4231 45.56 28.3878 45.5953 28.3425 45.622C28.2985 45.6473 28.2478 45.66 28.1905 45.66H27.0625C27.0051 45.66 26.9545 45.6473 26.9105 45.622C26.8651 45.5953 26.8298 45.56 26.8045 45.516C26.7778 45.4707 26.7645 45.4193 26.7645 45.362V45.358ZM27.8875 45.358C27.8875 45.3007 27.9008 45.25 27.9275 45.206C27.9528 45.1607 27.9882 45.1253 28.0335 45.1C28.0775 45.0733 28.1282 45.06 28.1855 45.06H29.3135C29.3708 45.06 29.4215 45.0733 29.4655 45.1C29.5108 45.1253 29.5462 45.1607 29.5715 45.206C29.5982 45.25 29.6115 45.3007 29.6115 45.358V45.362C29.6115 45.4193 29.5982 45.4707 29.5715 45.516C29.5462 45.56 29.5108 45.5953 29.4655 45.622C29.4215 45.6473 29.3708 45.66 29.3135 45.66H28.1855C28.1282 45.66 28.0775 45.6473 28.0335 45.622C27.9882 45.5953 27.9528 45.56 27.9275 45.516C27.9008 45.4707 27.8875 45.4193 27.8875 45.362V45.358ZM29.0105 45.358C29.0105 45.3007 29.0239 45.25 29.0505 45.206C29.0759 45.1607 29.1112 45.1253 29.1565 45.1C29.2005 45.0733 29.2512 45.06 29.3085 45.06H30.4365C30.4939 45.06 30.5445 45.0733 30.5885 45.1C30.6339 45.1253 30.6692 45.1607 30.6945 45.206C30.7212 45.25 30.7345 45.3007 30.7345 45.358V45.362C30.7345 45.4193 30.7212 45.4707 30.6945 45.516C30.6692 45.56 30.6339 45.5953 30.5885 45.622C30.5445 45.6473 30.4939 45.66 30.4365 45.66H29.3085C29.2512 45.66 29.2005 45.6473 29.1565 45.622C29.1112 45.5953 29.0759 45.56 29.0505 45.516C29.0239 45.4707 29.0105 45.4193 29.0105 45.362V45.358ZM30.1336 45.358C30.1336 45.3007 30.1469 45.25 30.1736 45.206C30.1989 45.1607 30.2343 45.1253 30.2796 45.1C30.3236 45.0733 30.3743 45.06 30.4316 45.06H31.5596C31.6169 45.06 31.6676 45.0733 31.7116 45.1C31.7569 45.1253 31.7923 45.1607 31.8176 45.206C31.8443 45.25 31.8576 45.3007 31.8576 45.358V45.362C31.8576 45.4193 31.8443 45.4707 31.8176 45.516C31.7923 45.56 31.7569 45.5953 31.7116 45.622C31.6676 45.6473 31.6169 45.66 31.5596 45.66H30.4316C30.3743 45.66 30.3236 45.6473 30.2796 45.622C30.2343 45.5953 30.1989 45.56 30.1736 45.516C30.1469 45.4707 30.1336 45.4193 30.1336 45.362V45.358ZM31.2566 45.358C31.2566 45.3007 31.27 45.25 31.2966 45.206C31.322 45.1607 31.3573 45.1253 31.4026 45.1C31.4466 45.0733 31.4973 45.06 31.5546 45.06H32.6826C32.74 45.06 32.7906 45.0733 32.8346 45.1C32.88 45.1253 32.9153 45.1607 32.9406 45.206C32.9673 45.25 32.9806 45.3007 32.9806 45.358V45.362C32.9806 45.4193 32.9673 45.4707 32.9406 45.516C32.9153 45.56 32.88 45.5953 32.8346 45.622C32.7906 45.6473 32.74 45.66 32.6826 45.66H31.5546C31.4973 45.66 31.4466 45.6473 31.4026 45.622C31.3573 45.5953 31.322 45.56 31.2966 45.516C31.27 45.4707 31.2566 45.4193 31.2566 45.362V45.358ZM32.3797 45.358C32.3797 45.3007 32.393 45.25 32.4197 45.206C32.445 45.1607 32.4804 45.1253 32.5257 45.1C32.5697 45.0733 32.6204 45.06 32.6777 45.06H33.8057C33.863 45.06 33.9137 45.0733 33.9577 45.1C34.003 45.1253 34.0384 45.1607 34.0637 45.206C34.0904 45.25 34.1037 45.3007 34.1037 45.358V45.362C34.1037 45.4193 34.0904 45.4707 34.0637 45.516C34.0384 45.56 34.003 45.5953 33.9577 45.622C33.9137 45.6473 33.863 45.66 33.8057 45.66H32.6777C32.6204 45.66 32.5697 45.6473 32.5257 45.622C32.4804 45.5953 32.445 45.56 32.4197 45.516C32.393 45.4707 32.3797 45.4193 32.3797 45.362V45.358ZM33.5027 45.358C33.5027 45.3007 33.5161 45.25 33.5427 45.206C33.5681 45.1607 33.6034 45.1253 33.6487 45.1C33.6927 45.0733 33.7434 45.06 33.8007 45.06H34.9287C34.9861 45.06 35.0367 45.0733 35.0807 45.1C35.1261 45.1253 35.1614 45.1607 35.1867 45.206C35.2134 45.25 35.2267 45.3007 35.2267 45.358V45.362C35.2267 45.4193 35.2134 45.4707 35.1867 45.516C35.1614 45.56 35.1261 45.5953 35.0807 45.622C35.0367 45.6473 34.9861 45.66 34.9287 45.66H33.8007C33.7434 45.66 33.6927 45.6473 33.6487 45.622C33.6034 45.5953 33.5681 45.56 33.5427 45.516C33.5161 45.4707 33.5027 45.4193 33.5027 45.362V45.358ZM34.6258 45.358C34.6258 45.3007 34.6391 45.25 34.6658 45.206C34.6911 45.1607 34.7264 45.1253 34.7718 45.1C34.8158 45.0733 34.8664 45.06 34.9238 45.06H36.0518C36.1091 45.06 36.1598 45.0733 36.2038 45.1C36.2491 45.1253 36.2844 45.1607 36.3098 45.206C36.3364 45.25 36.3498 45.3007 36.3498 45.358V45.362C36.3498 45.4193 36.3364 45.4707 36.3098 45.516C36.2844 45.56 36.2491 45.5953 36.2038 45.622C36.1598 45.6473 36.1091 45.66 36.0518 45.66H34.9238C34.8664 45.66 34.8158 45.6473 34.7718 45.622C34.7264 45.5953 34.6911 45.56 34.6658 45.516C34.6391 45.4707 34.6258 45.4193 34.6258 45.362V45.358ZM35.7488 45.358C35.7488 45.3007 35.7622 45.25 35.7888 45.206C35.8142 45.1607 35.8495 45.1253 35.8948 45.1C35.9388 45.0733 35.9895 45.06 36.0468 45.06H36.6228C36.6802 45.06 36.7308 45.0733 36.7748 45.1C36.8202 45.1253 36.8555 45.1607 36.8808 45.206C36.9075 45.25 36.9208 45.3007 36.9208 45.358V45.362C36.9208 45.4193 36.9075 45.4707 36.8808 45.516C36.8555 45.56 36.8202 45.5953 36.7748 45.622C36.7308 45.6473 36.6802 45.66 36.6228 45.66H36.0468C35.9895 45.66 35.9388 45.6473 35.8948 45.622C35.8495 45.5953 35.8142 45.56 35.7888 45.516C35.7622 45.4707 35.7488 45.4193 35.7488 45.362V45.358ZM36.3211 45.358C36.3211 45.3007 36.3344 45.25 36.3611 45.206C36.3864 45.1607 36.4218 45.1253 36.4671 45.1C36.5111 45.0733 36.5618 45.06 36.6191 45.06H37.7471C37.8044 45.06 37.8551 45.0733 37.8991 45.1C37.9444 45.1253 37.9798 45.1607 38.0051 45.206C38.0318 45.25 38.0451 45.3007 38.0451 45.358V45.362C38.0451 45.4193 38.0318 45.4707 38.0051 45.516C37.9798 45.56 37.9444 45.5953 37.8991 45.622C37.8551 45.6473 37.8044 45.66 37.7471 45.66H36.6191C36.5618 45.66 36.5111 45.6473 36.4671 45.622C36.4218 45.5953 36.3864 45.56 36.3611 45.516C36.3344 45.4707 36.3211 45.4193 36.3211 45.362V45.358ZM38.6434 45.358C38.6434 45.3007 38.6567 45.25 38.6834 45.206C38.7087 45.1607 38.744 45.1253 38.7894 45.1C38.8334 45.0733 38.884 45.06 38.9414 45.06H40.0694C40.1267 45.06 40.1774 45.0733 40.2214 45.1C40.2667 45.1253 40.302 45.1607 40.3274 45.206C40.354 45.25 40.3674 45.3007 40.3674 45.358V45.362C40.3674 45.4193 40.354 45.4707 40.3274 45.516C40.302 45.56 40.2667 45.5953 40.2214 45.622C40.1774 45.6473 40.1267 45.66 40.0694 45.66H38.9414C38.884 45.66 38.8334 45.6473 38.7894 45.622C38.744 45.5953 38.7087 45.56 38.6834 45.516C38.6567 45.4707 38.6434 45.4193 38.6434 45.362V45.358ZM39.7664 45.358C39.7664 45.3007 39.7797 45.25 39.8064 45.206C39.8317 45.1607 39.8671 45.1253 39.9124 45.1C39.9564 45.0733 40.0071 45.06 40.0644 45.06H41.1924C41.2497 45.06 41.3004 45.0733 41.3444 45.1C41.3897 45.1253 41.4251 45.1607 41.4504 45.206C41.4771 45.25 41.4904 45.3007 41.4904 45.358V45.362C41.4904 45.4193 41.4771 45.4707 41.4504 45.516C41.4251 45.56 41.3897 45.5953 41.3444 45.622C41.3004 45.6473 41.2497 45.66 41.1924 45.66H40.0644C40.0071 45.66 39.9564 45.6473 39.9124 45.622C39.8671 45.5953 39.8317 45.56 39.8064 45.516C39.7797 45.4707 39.7664 45.4193 39.7664 45.362V45.358ZM40.8895 45.358C40.8895 45.3007 40.9028 45.25 40.9295 45.206C40.9548 45.1607 40.9901 45.1253 41.0355 45.1C41.0795 45.0733 41.1301 45.06 41.1875 45.06H42.3155C42.3728 45.06 42.4235 45.0733 42.4675 45.1C42.5128 45.1253 42.5481 45.1607 42.5735 45.206C42.6001 45.25 42.6135 45.3007 42.6135 45.358V45.362C42.6135 45.4193 42.6001 45.4707 42.5735 45.516C42.5481 45.56 42.5128 45.5953 42.4675 45.622C42.4235 45.6473 42.3728 45.66 42.3155 45.66H41.1875C41.1301 45.66 41.0795 45.6473 41.0355 45.622C40.9901 45.5953 40.9548 45.56 40.9295 45.516C40.9028 45.4707 40.8895 45.4193 40.8895 45.362V45.358ZM42.0125 45.358C42.0125 45.3007 42.0258 45.25 42.0525 45.206C42.0778 45.1607 42.1132 45.1253 42.1585 45.1C42.2025 45.0733 42.2532 45.06 42.3105 45.06H43.4385C43.4958 45.06 43.5465 45.0733 43.5905 45.1C43.6358 45.1253 43.6712 45.1607 43.6965 45.206C43.7232 45.25 43.7365 45.3007 43.7365 45.358V45.362C43.7365 45.4193 43.7232 45.4707 43.6965 45.516C43.6712 45.56 43.6358 45.5953 43.5905 45.622C43.5465 45.6473 43.4958 45.66 43.4385 45.66H42.3105C42.2532 45.66 42.2025 45.6473 42.1585 45.622C42.1132 45.5953 42.0778 45.56 42.0525 45.516C42.0258 45.4707 42.0125 45.4193 42.0125 45.362V45.358ZM43.1355 45.358C43.1355 45.3007 43.1489 45.25 43.1755 45.206C43.2009 45.1607 43.2362 45.1253 43.2815 45.1C43.3255 45.0733 43.3762 45.06 43.4335 45.06H44.0095C44.0669 45.06 44.1175 45.0733 44.1615 45.1C44.2069 45.1253 44.2422 45.1607 44.2675 45.206C44.2942 45.25 44.3075 45.3007 44.3075 45.358V45.362C44.3075 45.4193 44.2942 45.4707 44.2675 45.516C44.2422 45.56 44.2069 45.5953 44.1615 45.622C44.1175 45.6473 44.0669 45.66 44.0095 45.66H43.4335C43.3762 45.66 43.3255 45.6473 43.2815 45.622C43.2362 45.5953 43.2009 45.56 43.1755 45.516C43.1489 45.4707 43.1355 45.4193 43.1355 45.362V45.358ZM43.7078 45.358C43.7078 45.3007 43.7211 45.25 43.7478 45.206C43.7731 45.1607 43.8085 45.1253 43.8538 45.1C43.8978 45.0733 43.9485 45.06 44.0058 45.06H44.5818C44.6391 45.06 44.6898 45.0733 44.7338 45.1C44.7791 45.1253 44.8145 45.1607 44.8398 45.206C44.8665 45.25 44.8798 45.3007 44.8798 45.358V45.362C44.8798 45.4193 44.8665 45.4707 44.8398 45.516C44.8145 45.56 44.7791 45.5953 44.7338 45.622C44.6898 45.6473 44.6391 45.66 44.5818 45.66H44.0058C43.9485 45.66 43.8978 45.6473 43.8538 45.622C43.8085 45.5953 43.7731 45.56 43.7478 45.516C43.7211 45.4707 43.7078 45.4193 43.7078 45.362V45.358ZM45.4793 45.358C45.4793 45.3007 45.4926 45.25 45.5193 45.206C45.5446 45.1607 45.58 45.1253 45.6253 45.1C45.6693 45.0733 45.72 45.06 45.7773 45.06H46.9053C46.9626 45.06 47.0133 45.0733 47.0573 45.1C47.1026 45.1253 47.138 45.1607 47.1633 45.206C47.19 45.25 47.2033 45.3007 47.2033 45.358V45.362C47.2033 45.4193 47.19 45.4707 47.1633 45.516C47.138 45.56 47.1026 45.5953 47.0573 45.622C47.0133 45.6473 46.9626 45.66 46.9053 45.66H45.7773C45.72 45.66 45.6693 45.6473 45.6253 45.622C45.58 45.5953 45.5446 45.56 45.5193 45.516C45.4926 45.4707 45.4793 45.4193 45.4793 45.362V45.358ZM46.6023 45.358C46.6023 45.3007 46.6157 45.25 46.6423 45.206C46.6677 45.1607 46.703 45.1253 46.7483 45.1C46.7923 45.0733 46.843 45.06 46.9003 45.06H47.4763C47.5337 45.06 47.5843 45.0733 47.6283 45.1C47.6737 45.1253 47.709 45.1607 47.7343 45.206C47.761 45.25 47.7743 45.3007 47.7743 45.358V45.362C47.7743 45.4193 47.761 45.4707 47.7343 45.516C47.709 45.56 47.6737 45.5953 47.6283 45.622C47.5843 45.6473 47.5337 45.66 47.4763 45.66H46.9003C46.843 45.66 46.7923 45.6473 46.7483 45.622C46.703 45.5953 46.6677 45.56 46.6423 45.516C46.6157 45.4707 46.6023 45.4193 46.6023 45.362V45.358ZM47.1746 45.358C47.1746 45.3007 47.1879 45.25 47.2146 45.206C47.2399 45.1607 47.2753 45.1253 47.3206 45.1C47.3646 45.0733 47.4153 45.06 47.4726 45.06H48.6006C48.6579 45.06 48.7086 45.0733 48.7526 45.1C48.7979 45.1253 48.8333 45.1607 48.8586 45.206C48.8853 45.25 48.8986 45.3007 48.8986 45.358V45.362C48.8986 45.4193 48.8853 45.4707 48.8586 45.516C48.8333 45.56 48.7979 45.5953 48.7526 45.622C48.7086 45.6473 48.6579 45.66 48.6006 45.66H47.4726C47.4153 45.66 47.3646 45.6473 47.3206 45.622C47.2753 45.5953 47.2399 45.56 47.2146 45.516C47.1879 45.4707 47.1746 45.4193 47.1746 45.362V45.358ZM48.2977 45.358C48.2977 45.3007 48.311 45.25 48.3377 45.206C48.363 45.1607 48.3983 45.1253 48.4437 45.1C48.4877 45.0733 48.5383 45.06 48.5957 45.06H49.7237C49.781 45.06 49.8317 45.0733 49.8757 45.1C49.921 45.1253 49.9563 45.1607 49.9817 45.206C50.0083 45.25 50.0217 45.3007 50.0217 45.358V45.362C50.0217 45.4193 50.0083 45.4707 49.9817 45.516C49.9563 45.56 49.921 45.5953 49.8757 45.622C49.8317 45.6473 49.781 45.66 49.7237 45.66H48.5957C48.5383 45.66 48.4877 45.6473 48.4437 45.622C48.3983 45.5953 48.363 45.56 48.3377 45.516C48.311 45.4707 48.2977 45.4193 48.2977 45.362V45.358ZM49.4207 45.358C49.4207 45.3007 49.434 45.25 49.4607 45.206C49.486 45.1607 49.5214 45.1253 49.5667 45.1C49.6107 45.0733 49.6614 45.06 49.7187 45.06H50.2947C50.352 45.06 50.4027 45.0733 50.4467 45.1C50.492 45.1253 50.5274 45.1607 50.5527 45.206C50.5794 45.25 50.5927 45.3007 50.5927 45.358V45.362C50.5927 45.4193 50.5794 45.4707 50.5527 45.516C50.5274 45.56 50.492 45.5953 50.4467 45.622C50.4027 45.6473 50.352 45.66 50.2947 45.66H49.7187C49.6614 45.66 49.6107 45.6473 49.5667 45.622C49.5214 45.5953 49.486 45.56 49.4607 45.516C49.434 45.4707 49.4207 45.4193 49.4207 45.362V45.358ZM49.993 45.358C49.993 45.3007 50.0063 45.25 50.033 45.206C50.0583 45.1607 50.0936 45.1253 50.139 45.1C50.183 45.0733 50.2336 45.06 50.291 45.06H51.419C51.4763 45.06 51.527 45.0733 51.571 45.1C51.6163 45.1253 51.6516 45.1607 51.677 45.206C51.7036 45.25 51.717 45.3007 51.717 45.358V45.362C51.717 45.4193 51.7036 45.4707 51.677 45.516C51.6516 45.56 51.6163 45.5953 51.571 45.622C51.527 45.6473 51.4763 45.66 51.419 45.66H50.291C50.2336 45.66 50.183 45.6473 50.139 45.622C50.0936 45.5953 50.0583 45.56 50.033 45.516C50.0063 45.4707 49.993 45.4193 49.993 45.362V45.358ZM52.3152 45.358C52.3152 45.3007 52.3286 45.25 52.3552 45.206C52.3806 45.1607 52.4159 45.1253 52.4612 45.1C52.5052 45.0733 52.5559 45.06 52.6132 45.06H53.7412C53.7986 45.06 53.8492 45.0733 53.8932 45.1C53.9386 45.1253 53.9739 45.1607 53.9992 45.206C54.0259 45.25 54.0392 45.3007 54.0392 45.358V45.362C54.0392 45.4193 54.0259 45.4707 53.9992 45.516C53.9739 45.56 53.9386 45.5953 53.8932 45.622C53.8492 45.6473 53.7986 45.66 53.7412 45.66H52.6132C52.5559 45.66 52.5052 45.6473 52.4612 45.622C52.4159 45.5953 52.3806 45.56 52.3552 45.516C52.3286 45.4707 52.3152 45.4193 52.3152 45.362V45.358ZM53.4383 45.358C53.4383 45.3007 53.4516 45.25 53.4783 45.206C53.5036 45.1607 53.5389 45.1253 53.5843 45.1C53.6283 45.0733 53.6789 45.06 53.7363 45.06H54.8643C54.9216 45.06 54.9723 45.0733 55.0163 45.1C55.0616 45.1253 55.0969 45.1607 55.1223 45.206C55.1489 45.25 55.1623 45.3007 55.1623 45.358V45.362C55.1623 45.4193 55.1489 45.4707 55.1223 45.516C55.0969 45.56 55.0616 45.5953 55.0163 45.622C54.9723 45.6473 54.9216 45.66 54.8643 45.66H53.7363C53.6789 45.66 53.6283 45.6473 53.5843 45.622C53.5389 45.5953 53.5036 45.56 53.4783 45.516C53.4516 45.4707 53.4383 45.4193 53.4383 45.362V45.358ZM54.5613 45.358C54.5613 45.3007 54.5747 45.25 54.6013 45.206C54.6267 45.1607 54.662 45.1253 54.7073 45.1C54.7513 45.0733 54.802 45.06 54.8593 45.06H55.9873C56.0447 45.06 56.0953 45.0733 56.1393 45.1C56.1847 45.1253 56.22 45.1607 56.2453 45.206C56.272 45.25 56.2853 45.3007 56.2853 45.358V45.362C56.2853 45.4193 56.272 45.4707 56.2453 45.516C56.22 45.56 56.1847 45.5953 56.1393 45.622C56.0953 45.6473 56.0447 45.66 55.9873 45.66H54.8593C54.802 45.66 54.7513 45.6473 54.7073 45.622C54.662 45.5953 54.6267 45.56 54.6013 45.516C54.5747 45.4707 54.5613 45.4193 54.5613 45.362V45.358ZM55.6844 45.358C55.6844 45.3007 55.6977 45.25 55.7244 45.206C55.7497 45.1607 55.785 45.1253 55.8304 45.1C55.8744 45.0733 55.925 45.06 55.9824 45.06H56.5584C56.6157 45.06 56.6664 45.0733 56.7104 45.1C56.7557 45.1253 56.791 45.1607 56.8164 45.206C56.843 45.25 56.8564 45.3007 56.8564 45.358V45.362C56.8564 45.4193 56.843 45.4707 56.8164 45.516C56.791 45.56 56.7557 45.5953 56.7104 45.622C56.6664 45.6473 56.6157 45.66 56.5584 45.66H55.9824C55.925 45.66 55.8744 45.6473 55.8304 45.622C55.785 45.5953 55.7497 45.56 55.7244 45.516C55.6977 45.4707 55.6844 45.4193 55.6844 45.362V45.358ZM56.2566 45.358C56.2566 45.3007 56.27 45.25 56.2966 45.206C56.322 45.1607 56.3573 45.1253 56.4026 45.1C56.4466 45.0733 56.4973 45.06 56.5546 45.06H57.6826C57.74 45.06 57.7906 45.0733 57.8346 45.1C57.88 45.1253 57.9153 45.1607 57.9406 45.206C57.9673 45.25 57.9806 45.3007 57.9806 45.358V45.362C57.9806 45.4193 57.9673 45.4707 57.9406 45.516C57.9153 45.56 57.88 45.5953 57.8346 45.622C57.7906 45.6473 57.74 45.66 57.6826 45.66H56.5546C56.4973 45.66 56.4466 45.6473 56.4026 45.622C56.3573 45.5953 56.322 45.56 56.2966 45.516C56.27 45.4707 56.2566 45.4193 56.2566 45.362V45.358ZM57.3797 45.358C57.3797 45.3007 57.393 45.25 57.4197 45.206C57.445 45.1607 57.4804 45.1253 57.5257 45.1C57.5697 45.0733 57.6204 45.06 57.6777 45.06H58.8057C58.863 45.06 58.9137 45.0733 58.9577 45.1C59.003 45.1253 59.0384 45.1607 59.0637 45.206C59.0904 45.25 59.1037 45.3007 59.1037 45.358V45.362C59.1037 45.4193 59.0904 45.4707 59.0637 45.516C59.0384 45.56 59.003 45.5953 58.9577 45.622C58.9137 45.6473 58.863 45.66 58.8057 45.66H57.6777C57.6204 45.66 57.5697 45.6473 57.5257 45.622C57.4804 45.5953 57.445 45.56 57.4197 45.516C57.393 45.4707 57.3797 45.4193 57.3797 45.362V45.358Z" fill="#000505"/>
    <g filter="url(#filter0_ddd_9619_6553)">
        <rect x="73" y="25" width="47" height="30" rx="2" fill="white" shape-rendering="crispEdges"/>
        <rect x="73.0331" y="25.0331" width="46.9339" height="29.9339" rx="1.96693" stroke="#F5F5F5" stroke-width="0.066145" shape-rendering="crispEdges"/>
        <rect x="75.5" y="28" width="42" height="3" fill="#EEEEEE"/>
        <rect x="75.5" y="33" width="20" height="3" fill="#EEEEEE"/>
        <rect x="97.5" y="33" width="20" height="3" fill="#EEEEEE"/>
        <rect x="75.5" y="38" width="42" height="3" fill="#EEEEEE"/>
        <rect x="75.5" y="43" width="20" height="3" fill="#EEEEEE"/>
        <rect x="97.5" y="43" width="20" height="3" fill="#EEEEEE"/>
        <rect x="86.5" y="49" width="20" height="3" rx="0.701095" fill="#FFAA69"/>
    </g>
    <defs>
        <filter id="filter0_ddd_9619_6553" x="72.6693" y="24.7354" width="47.6615" height="30.6615" filterUnits="userSpaceOnUse" color-interpolation-filters="sRGB">
            <feFlood flood-opacity="0" result="BackgroundImageFix"/>
            <feColorMatrix in="SourceAlpha" type="matrix" values="0 0 0 0 0 0 0 0 0 0 0 0 0 0 0 0 0 0 127 0" result="hardAlpha"/>
            <feMorphology radius="0.13229" operator="erode" in="SourceAlpha" result="effect1_dropShadow_9619_6553"/>
            <feOffset dy="0.198435"/>
            <feGaussianBlur stdDeviation="0.0330725"/>
            <feComposite in2="hardAlpha" operator="out"/>
            <feColorMatrix type="matrix" values="0 0 0 0 0 0 0 0 0 0 0 0 0 0 0 0 0 0 0.2 0"/>
            <feBlend mode="normal" in2="BackgroundImageFix" result="effect1_dropShadow_9619_6553"/>
            <feColorMatrix in="SourceAlpha" type="matrix" values="0 0 0 0 0 0 0 0 0 0 0 0 0 0 0 0 0 0 127 0" result="hardAlpha"/>
            <feOffset dy="0.13229"/>
            <feGaussianBlur stdDeviation="0.066145"/>
            <feComposite in2="hardAlpha" operator="out"/>
            <feColorMatrix type="matrix" values="0 0 0 0 0 0 0 0 0 0 0 0 0 0 0 0 0 0 0.14 0"/>
            <feBlend mode="normal" in2="effect1_dropShadow_9619_6553" result="effect2_dropShadow_9619_6553"/>
            <feColorMatrix in="SourceAlpha" type="matrix" values="0 0 0 0 0 0 0 0 0 0 0 0 0 0 0 0 0 0 127 0" result="hardAlpha"/>
            <feOffset dy="0.066145"/>
            <feGaussianBlur stdDeviation="0.165363"/>
            <feComposite in2="hardAlpha" operator="out"/>
            <feColorMatrix type="matrix" values="0 0 0 0 0 0 0 0 0 0 0 0 0 0 0 0 0 0 0.12 0"/>
            <feBlend mode="normal" in2="effect2_dropShadow_9619_6553" result="effect3_dropShadow_9619_6553"/>
            <feBlend mode="normal" in="SourceGraphic" in2="effect3_dropShadow_9619_6553" result="shape"/>
        </filter>
    </defs>
</svg>
