<svg width="165" height="32" viewBox="0 0 165 32" fill="none" xmlns="http://www.w3.org/2000/svg">
    <path d="M27.279 10.4717C29.2994 10.4717 30.9374 8.84037 30.9374 6.82804C30.9374 4.81571 29.2994 3.18439 27.279 3.18439C25.2585 3.18439 23.6206 4.81571 23.6206 6.82804C23.6206 8.84037 25.2585 10.4717 27.279 10.4717Z"
          fill="#000505"/>
    <path d="M24.4725 16.0519C24.0975 10.2316 19.3572 5.51034 13.5134 5.14224C6.26096 4.68345 0.294013 10.8131 1.06532 18.0897C1.64381 23.5152 6.02528 27.8737 11.4673 28.4499C18.7733 29.2234 24.9331 23.2751 24.4671 16.0519H24.4725ZM19.9089 17.5616C19.5661 20.9118 16.8397 23.6219 13.4759 23.9473C8.92841 24.3901 5.14684 20.6184 5.59142 16.0945C5.91816 12.7443 8.63917 10.0236 12.0029 9.68747C16.5612 9.22867 20.3695 13.0164 19.9089 17.5616Z"
          fill="#000505"/>
    <path d="M37.7271 19.6351H40.0531C40.0963 20.8603 40.5173 21.7724 41.3214 22.3661C42.1255 22.9598 43.3291 23.2567 44.9319 23.2567C46.5348 23.2567 47.3659 23.03 48.1161 22.5712C48.8663 22.1179 49.2387 21.4648 49.2387 20.6282C49.2387 19.7917 49.0336 19.5434 48.6234 19.2034C48.2133 18.8633 47.5279 18.6097 46.5672 18.4424L42.7192 17.7461C41.1541 17.4709 40.0153 17.0067 39.2976 16.3429C38.5798 15.679 38.2182 14.7777 38.2182 13.6335C38.2182 12.4893 38.7848 10.9726 39.9236 10.1577C41.057 9.34268 42.676 8.9325 44.7808 8.9325C46.8856 8.9325 48.2888 9.35887 49.3574 10.2116C50.4206 11.0644 50.9657 12.2842 50.9873 13.8655H48.7907C48.7152 12.8778 48.3374 12.1438 47.6574 11.6743C46.9828 11.1993 45.9681 10.9618 44.6135 10.9618C43.2589 10.9618 42.2874 11.1723 41.5912 11.5987C40.895 12.0251 40.5442 12.635 40.5442 13.4338C40.5442 14.2325 40.7439 14.4646 41.1379 14.7723C41.5319 15.0853 42.2551 15.3444 43.2967 15.5441L46.7129 16.2187C48.5101 16.5641 49.7622 17.0499 50.4746 17.6868C51.187 18.3236 51.5432 19.2358 51.5432 20.4393C51.5432 21.6429 50.9549 23.1811 49.7838 24.0285C48.6126 24.8758 46.9504 25.3076 44.8024 25.3076C42.6544 25.3076 40.7385 24.8326 39.5512 23.8827C38.3639 22.9328 37.754 21.5188 37.7271 19.6405V19.6351Z"
          fill="#000505"/>
    <path d="M53.3833 19.1386C53.3833 17.2712 53.9662 15.7816 55.1373 14.659C56.3084 13.5363 57.8735 12.975 59.838 12.975C61.8025 12.975 63.3622 13.5363 64.5279 14.6536C65.6937 15.7708 66.2711 17.2658 66.2711 19.1386C66.2711 21.0115 65.6883 22.5065 64.5279 23.6237C63.3622 24.7409 61.8025 25.3022 59.838 25.3022C57.8735 25.3022 56.3084 24.7409 55.1373 23.6237C53.9662 22.5065 53.3833 21.0115 53.3833 19.1386ZM55.5583 19.1386C55.5583 20.434 55.9414 21.4594 56.7078 22.215C57.4742 22.9707 58.5158 23.3431 59.838 23.3431C61.1603 23.3431 62.1965 22.9653 62.9628 22.215C63.7292 21.4594 64.107 20.434 64.107 19.1386C64.107 17.8433 63.7238 16.807 62.9628 16.0514C62.1965 15.2958 61.1549 14.9234 59.838 14.9234C58.5212 14.9234 57.4796 15.3012 56.7078 16.0568C55.9414 16.8124 55.5583 17.8433 55.5583 19.1386Z"
          fill="#000505"/>
    <path d="M68.7378 24.892V9.33728H70.821V24.892H68.7378Z" fill="#000505"/>
    <path d="M82.8614 23.1056C82.3433 23.7802 81.6687 24.293 80.843 24.6438C80.0172 25 79.0728 25.1727 78.015 25.1727C76.9572 25.1727 75.5 24.8651 74.7229 24.2552C73.9457 23.6453 73.5571 22.7925 73.5571 21.7023C73.5571 20.6121 73.6975 20.5743 73.9727 20.1101C74.2479 19.646 74.6635 19.2412 75.2194 18.9066C75.4946 18.7392 75.8886 18.5989 76.4013 18.4856C76.914 18.3722 77.7559 18.2535 78.9217 18.1294C79.1268 18.1078 79.4182 18.0754 79.8068 18.0322C81.7766 17.8433 82.7643 17.3414 82.7643 16.5264C82.7643 15.7114 82.5268 15.4739 82.0573 15.1987C81.5877 14.9234 80.8214 14.7831 79.7636 14.7831C78.7058 14.7831 77.6912 14.9612 77.1407 15.3174C76.5902 15.6736 76.288 16.2511 76.2286 17.0445L74.0644 17.0553C74.1346 15.7006 74.6311 14.6859 75.5648 14.0005C76.4931 13.3151 77.8477 12.975 79.6179 12.975C81.3881 12.975 82.9046 13.2665 83.7033 13.844C84.4967 14.4215 84.8961 15.4146 84.8961 16.8124V21.4594C84.8961 22.1071 84.9716 22.5497 85.1227 22.7925C85.2738 23.0354 85.5437 23.1596 85.9269 23.1596C86.3101 23.1596 86.105 23.1596 86.2075 23.1434C86.3101 23.1326 86.418 23.1164 86.5259 23.0948V24.7787C86.2507 24.8165 85.9808 24.8381 85.7056 24.8597C85.4304 24.8759 85.1713 24.8867 84.9176 24.8867C84.3078 24.8867 83.8383 24.7463 83.5144 24.4603C83.1906 24.1742 82.9748 23.7209 82.8668 23.1002L82.8614 23.1056ZM82.7967 18.9713C82.5106 19.1386 82.0843 19.2898 81.5284 19.4193C80.9725 19.5488 80.2277 19.6676 79.3048 19.7701C77.8045 19.9374 76.8493 20.1533 76.4445 20.4124C76.0397 20.6714 75.8346 21.0762 75.8346 21.6214C75.8346 22.1665 76.0559 22.6198 76.5039 22.9383C76.9464 23.2513 77.567 23.4132 78.3604 23.4132C79.6341 23.4132 80.6973 23.1488 81.5338 22.6252C82.3757 22.1017 82.7967 21.4594 82.7967 20.6984V18.9713Z"
          fill="#000505"/>
    <path d="M88.4527 24.892V13.369H90.5251V15.312C91.0486 14.5564 91.6746 13.9789 92.3978 13.5795C93.121 13.1801 93.9089 12.9804 94.7617 12.9804C95.6144 12.9804 95.1448 12.9966 95.2852 13.029C95.4255 13.0614 95.5604 13.1099 95.6953 13.1801V15.3768C95.4147 15.2904 95.1556 15.231 94.9128 15.1933C94.6699 15.1555 94.4324 15.1339 94.2004 15.1339C93.1696 15.1339 92.3007 15.5225 91.5991 16.3051C90.8921 17.0877 90.5413 18.0646 90.5413 19.2466V24.892H88.4473H88.4527Z"
          fill="#000505"/>
    <path d="M111.535 14.2488C111.238 13.2125 110.634 12.4083 109.716 11.847C108.799 11.2803 107.639 10.9996 106.235 10.9996C104.832 10.9996 102.997 11.5502 101.95 12.6458C100.903 13.7414 100.38 15.2365 100.38 17.1201C100.38 19.0037 100.903 20.4771 101.945 21.5782C102.992 22.6792 104.4 23.2297 106.171 23.2297C107.941 23.2297 109.085 22.8087 110.121 21.9722C111.157 21.1356 111.74 20.013 111.881 18.6043H106.948V16.5534H113.921V24.892H112.393L112.172 22.2852C111.568 23.2729 110.753 24.0231 109.727 24.5358C108.702 25.0486 107.509 25.3022 106.149 25.3022C103.737 25.3022 101.805 24.5574 100.342 23.0624C98.8848 21.5674 98.1562 19.5866 98.1562 17.1201C98.1562 14.6536 98.8956 12.6026 100.374 11.1292C101.853 9.66114 103.861 8.92712 106.397 8.92712C108.934 8.92712 110.094 9.42906 111.47 10.4329C112.847 11.4368 113.613 12.7106 113.77 14.2488H111.53H111.535Z"
          fill="#000505"/>
    <path d="M118.875 19.5488V19.6352C118.875 20.7308 119.258 21.6213 120.025 22.3122C120.791 23.003 121.784 23.3484 123.004 23.3484C124.224 23.3484 124.693 23.1649 125.341 22.8033C125.988 22.4363 126.426 21.9398 126.663 21.2975H129.102C128.687 22.5604 127.948 23.5427 126.879 24.2498C125.81 24.9568 124.52 25.3076 123.004 25.3076C121.487 25.3076 119.55 24.7463 118.4 23.6291C117.251 22.5119 116.673 21.0168 116.673 19.144C116.673 17.2712 117.251 15.7762 118.4 14.6589C119.55 13.5417 121.083 12.9804 123.004 12.9804C124.925 12.9804 126.507 13.5255 127.618 14.6212C128.735 15.7168 129.291 17.2226 129.291 19.144V19.5542H118.87L118.875 19.5488ZM118.94 18.0646H127.057C126.895 17.0823 126.458 16.3159 125.735 15.7546C125.017 15.1987 124.105 14.918 123.004 14.918C121.903 14.918 121.002 15.1987 120.278 15.7546C119.555 16.3105 119.107 17.0823 118.935 18.0646H118.94Z"
          fill="#000505"/>
    <path d="M131.747 24.892V13.369H133.819V15.3552C134.45 14.5834 135.157 14.0113 135.945 13.6335C136.728 13.261 137.608 13.0721 138.584 13.0721C139.561 13.0721 140.015 13.1801 140.598 13.4014C141.18 13.6227 141.666 13.9519 142.044 14.3837C142.373 14.7615 142.605 15.2148 142.746 15.7384C142.88 16.2619 142.951 17.1092 142.951 18.275V24.892H140.867V18.1941C140.867 16.9743 140.657 16.1108 140.231 15.6034C139.804 15.0961 139.097 14.8424 138.11 14.8424C137.122 14.8424 135.821 15.2256 135.028 15.9974C134.235 16.7692 133.841 17.7839 133.841 19.0361V24.892H131.747Z"
          fill="#000505"/>
    <path d="M146.119 24.892V13.369H148.202V24.892H146.119Z" fill="#000505"/>
    <path d="M149.778 24.892L154.9 19.0361L150.274 13.369H153.113L156.362 17.7623L159.768 13.369H162.563L157.63 19.0361L162.784 24.892H159.87L156.357 20.3908L152.509 24.892H149.772H149.778Z"
          fill="#000505"/>
    <path d="M147.16 11.3073C147.893 11.3073 148.488 10.7128 148.488 9.97957C148.488 9.24629 147.893 8.65186 147.16 8.65186C146.427 8.65186 145.833 9.24629 145.833 9.97957C145.833 10.7128 146.427 11.3073 147.16 11.3073Z"
          fill="#000505"/>
</svg>
