<?xml version="1.0" encoding="UTF-8"?>
<svg id="Layer_1" xmlns="http://www.w3.org/2000/svg" version="1.1" viewBox="0 0 3057.3 592.9">
    <!-- Generator: Adobe Illustrator 29.1.0, SVG Export Plug-In . SVG Version: 2.1.0 Build 142)  -->
    <defs>
        <style>
            .st0 {
            fill: #f7f7f7;
            }
        </style>
    </defs>
    <g>
        <circle class="st0" cx="520.4" cy="127.3" r="68.3"/>
        <path class="st0" d="M468,300.2c-7-109.1-95.5-197.6-204.6-204.5C128,87.1,16.6,202,31,338.4c10.8,101.7,92.6,183.4,194.2,194.2,136.4,14.5,251.4-97,242.7-232.4ZM382.8,328.5c-6.4,62.8-57.3,113.6-120.1,119.7-84.9,8.3-155.5-62.4-147.2-147.2,6.1-62.8,56.9-113.8,119.7-120.1,85.1-8.6,156.2,62.4,147.6,147.6Z"/>
    </g>
    <g>
        <path class="st0" d="M710.3,363.8h43.1c.8,22.7,8.6,39.6,23.5,50.6,14.9,11,37.2,16.5,66.9,16.5s45.1-4.2,59-12.7c13.9-8.4,20.8-20.5,20.8-36s-3.8-20.1-11.4-26.4c-7.6-6.3-20.3-11-38.1-14.1l-71.3-12.9c-29-5.1-50.1-13.7-63.4-26-13.3-12.3-20-29-20-50.2s10.5-49.3,31.6-64.4c21-15.1,51-22.7,90-22.7s65,7.9,84.8,23.7c19.7,15.8,29.8,38.4,30.2,67.7h-40.7c-1.4-18.3-8.4-31.9-21-40.6-12.5-8.8-31.3-13.2-56.4-13.2s-43.1,3.9-56,11.8c-12.9,7.9-19.4,19.2-19.4,34s3.7,19.1,11,24.8c7.3,5.8,20.7,10.6,40,14.3l63.3,12.5c33.3,6.4,56.5,15.4,69.7,27.2,13.2,11.8,19.8,28.7,19.8,51s-10.9,50.8-32.6,66.5-52.5,23.7-92.3,23.7-75.3-8.8-97.3-26.4c-22-17.6-33.3-43.8-33.8-78.6Z"/>
        <path class="st0" d="M1000.4,354.6c0-34.6,10.8-62.2,32.5-83,21.7-20.8,50.7-31.2,87.1-31.2s65.3,10.4,86.9,31.1c21.6,20.7,32.3,48.4,32.3,83.1s-10.8,62.4-32.3,83.1c-21.6,20.7-50.5,31.1-86.9,31.1s-65.4-10.4-87.1-31.1c-21.7-20.7-32.5-48.4-32.5-83.1ZM1040.7,354.6c0,24,7.1,43,21.3,57,14.2,14,33.5,20.9,58,20.9s43.7-7,57.9-20.9c14.2-14,21.2-33,21.2-57s-7.1-43.2-21.2-57.2c-14.2-14-33.5-20.9-57.9-20.9s-43.7,7-58,21c-14.2,14-21.3,33.1-21.3,57.1Z"/>
        <path class="st0" d="M1284.9,461.2V173h38.6v288.2h-38.6Z"/>
        <path class="st0" d="M1546.6,428.1c-9.6,12.5-22.1,22-37.4,28.5-15.3,6.6-32.8,9.8-52.4,9.8s-46.6-5.7-61-17c-14.4-11.3-21.6-27.1-21.6-47.3s2.6-20.9,7.7-29.5c5.1-8.6,12.8-16.1,23.1-22.3,5.1-3.1,12.4-5.7,21.9-7.8,9.5-2.1,25.1-4.3,46.7-6.6,3.8-.4,9.2-1,16.4-1.8,36.5-3.5,54.8-12.8,54.8-27.9s-4.4-19.5-13.1-24.6c-8.7-5.1-22.9-7.7-42.5-7.7s-38.4,3.3-48.6,9.9c-10.2,6.6-15.8,17.3-16.9,32l-40.1.2c1.3-25.1,10.5-43.9,27.8-56.6,17.2-12.7,42.3-19,75.1-19s60.9,5.4,75.7,16.1c14.7,10.7,22.1,29.1,22.1,55v86.1c0,12,1.4,20.2,4.2,24.7,2.8,4.5,7.8,6.8,14.9,6.8s3.3,0,5.2-.3c1.9-.2,3.9-.5,5.9-.9v31.2c-5.1.7-10.1,1.1-15.2,1.5-5.1.3-9.9.5-14.6.5-11.3,0-20-2.6-26-7.9-6-5.3-10-13.7-12-25.2ZM1545.4,351.5c-5.3,3.1-13.2,5.9-23.5,8.3-10.3,2.4-24.1,4.6-41.2,6.5-27.8,3.1-45.5,7.1-53,11.9-7.5,4.8-11.3,12.3-11.3,22.4s4.1,18.5,12.4,24.4c8.2,5.8,19.7,8.8,34.4,8.8,23.6,0,43.3-4.9,58.8-14.6,15.6-9.7,23.4-21.6,23.4-35.7v-32Z"/>
        <path class="st0" d="M1650.2,461.2v-213.5h38.4v36c9.7-14,21.3-24.7,34.7-32.1,13.4-7.4,28-11.1,43.8-11.1s7.1.3,9.7.9c2.6.6,5.1,1.5,7.6,2.8v40.7c-5.2-1.6-10-2.7-14.5-3.4-4.5-.7-8.9-1.1-13.2-1.1-19.1,0-35.2,7.2-48.2,21.7-13.1,14.5-19.6,32.6-19.6,54.5v104.6h-38.8Z"/>
        <path class="st0" d="M2077.9,264c-5.5-19.2-16.7-34.1-33.7-44.5-17-10.5-38.5-15.7-64.5-15.7s-60,10.2-79.4,30.5c-19.4,20.3-29.1,48-29.1,82.9s9.7,62.2,29,82.6c19.4,20.4,45.5,30.6,78.3,30.6s54-7.8,73.2-23.3c19.2-15.5,30-36.3,32.6-62.4h-91.4v-38h129.2v154.5h-28.3l-4.1-48.3c-11.2,18.3-26.3,32.2-45.3,41.7-19,9.5-41.1,14.2-66.3,14.2-44.7,0-80.5-13.8-107.6-41.5-27-27.7-40.5-64.4-40.5-110.1s13.7-83.7,41.1-111c27.4-27.2,64.6-40.8,111.6-40.8s68.5,9.3,94,27.9c25.5,18.6,39.7,42.2,42.6,70.7h-41.5Z"/>
        <path class="st0" d="M2213.9,362.2v1.6c0,20.3,7.1,36.8,21.3,49.6,14.2,12.8,32.6,19.2,55.2,19.2s31.3-3.4,43.3-10.1c12-6.8,20.1-16,24.5-27.9h45.2c-7.7,23.4-21.4,41.6-41.2,54.7-19.8,13.1-43.7,19.6-71.8,19.6s-64-10.4-85.3-31.1c-21.3-20.7-32-48.4-32-83.1s10.7-62.4,32-83.1c21.3-20.7,49.7-31.1,85.3-31.1s64.9,10.1,85.5,30.4c20.7,20.3,31,48.2,31,83.8v7.6h-193.1ZM2215.1,334.7h150.4c-3-18.2-11.1-32.4-24.5-42.8-13.3-10.3-30.2-15.5-50.6-15.5s-37.1,5.2-50.5,15.5c-13.4,10.3-21.7,24.6-24.9,42.8Z"/>
        <path class="st0" d="M2452.4,461.2v-213.5h38.4v36.8c11.7-14.3,24.8-24.9,39.4-31.9,14.5-6.9,30.8-10.4,48.9-10.4s26.5,2,37.3,6.1c10.8,4.1,19.8,10.2,26.8,18.2,6.1,7,10.4,15.4,13,25.1,2.5,9.7,3.8,25.4,3.8,47v122.6h-38.6v-124.1c0-22.6-3.9-38.6-11.8-48-7.9-9.4-21-14.1-39.3-14.1s-42.4,7.1-57.1,21.4c-14.7,14.3-22,33.1-22,56.3v108.5h-38.8Z"/>
        <path class="st0" d="M2718.7,461.2v-213.5h38.6v213.5h-38.6Z"/>
        <path class="st0" d="M2786.5,461.2l94.9-108.5-85.7-105h52.6l60.2,81.4,63.1-81.4h51.8l-91.4,105,95.5,108.5h-54l-65.1-83.4-71.3,83.4h-50.7Z"/>
        <circle class="st0" cx="2738" cy="184.9" r="24.6"/>
    </g>
</svg>