<svg width="165" height="32" viewBox="0 0 165 32" fill="none" xmlns="http://www.w3.org/2000/svg">
  <path
      d="M27.2791 10.4717C29.2996 10.4717 30.9375 8.84039 30.9375 6.82805C30.9375 4.81572 29.2996 3.1844 27.2791 3.1844C25.2587 3.1844 23.6207 4.81572 23.6207 6.82805C23.6207 8.84039 25.2587 10.4717 27.2791 10.4717Z"
      fill="#000505"/>
  <path
      d="M24.4724 16.0519C24.0975 10.2316 19.3571 5.51037 13.5134 5.14227C6.2609 4.68348 0.293952 10.8131 1.06526 18.0898C1.64375 23.5152 6.02522 27.8737 11.4672 28.4499C18.7733 29.2234 24.9331 23.2752 24.4671 16.0519H24.4724ZM19.9088 17.5616C19.566 20.9119 16.8396 23.6219 13.4759 23.9473C8.92835 24.3901 5.14678 20.6184 5.59136 16.0946C5.91809 12.7443 8.63911 10.0236 12.0029 9.6875C16.5611 9.2287 20.3695 13.0164 19.9088 17.5616Z"
      fill="#000505"/>
  <path
      d="M37.727 19.6351H40.0531C40.0963 20.8603 40.5172 21.7724 41.3214 22.3661C42.1255 22.9598 43.329 23.2567 44.9319 23.2567C46.5348 23.2567 47.3659 23.03 48.1161 22.5712C48.8662 22.1179 49.2386 21.4648 49.2386 20.6282C49.2386 19.7917 49.0336 19.5434 48.6234 19.2034C48.2132 18.8633 47.5278 18.6097 46.5672 18.4424L42.7192 17.7461C41.154 17.4709 40.0153 17.0067 39.2975 16.3429C38.5797 15.679 38.2181 14.7777 38.2181 13.6335C38.2181 12.4893 38.7848 10.9726 39.9236 10.1577C41.0569 9.34268 42.676 8.9325 44.7808 8.9325C46.8856 8.9325 48.2888 9.35887 49.3574 10.2116C50.4206 11.0644 50.9656 12.2842 50.9872 13.8655H48.7907C48.7151 12.8778 48.3373 12.1438 47.6573 11.6743C46.9827 11.1993 45.9681 10.9618 44.6135 10.9618C43.2588 10.9618 42.2874 11.1723 41.5912 11.5987C40.895 12.0251 40.5442 12.635 40.5442 13.4338C40.5442 14.2325 40.7439 14.4646 41.1379 14.7723C41.5318 15.0853 42.255 15.3444 43.2966 15.5441L46.7129 16.2187C48.51 16.5641 49.7621 17.0499 50.4745 17.6868C51.1869 18.3236 51.5431 19.2358 51.5431 20.4393C51.5431 21.6429 50.9549 23.1811 49.7837 24.0285C48.6126 24.8758 46.9503 25.3076 44.8024 25.3076C42.6544 25.3076 40.7385 24.8326 39.5512 23.8827C38.3638 22.9328 37.754 21.5188 37.727 19.6405V19.6351Z"
      fill="#000505"/>
  <path
      d="M53.3835 19.1386C53.3835 17.2712 53.9663 15.7816 55.1375 14.6589C56.3086 13.5363 57.8737 12.975 59.8382 12.975C61.8027 12.975 63.3624 13.5363 64.5281 14.6535C65.6938 15.7708 66.2713 17.2658 66.2713 19.1386C66.2713 21.0114 65.6884 22.5065 64.5281 23.6237C63.3624 24.7409 61.8027 25.3022 59.8382 25.3022C57.8737 25.3022 56.3086 24.7409 55.1375 23.6237C53.9663 22.5065 53.3835 21.0114 53.3835 19.1386ZM55.5584 19.1386C55.5584 20.4339 55.9416 21.4594 56.708 22.215C57.4743 22.9706 58.5159 23.343 59.8382 23.343C61.1604 23.343 62.1966 22.9652 62.963 22.215C63.7294 21.4594 64.1071 20.4339 64.1071 19.1386C64.1071 17.8433 63.724 16.807 62.963 16.0514C62.1966 15.2958 61.155 14.9234 59.8382 14.9234C58.5213 14.9234 57.4797 15.3012 56.708 16.0568C55.9416 16.8124 55.5584 17.8433 55.5584 19.1386Z"
      fill="#000505"/>
  <path d="M68.7377 24.892V9.33728H70.8209V24.892H68.7377Z" fill="#000505"/>
  <path
      d="M82.8614 23.1056C82.3433 23.7802 81.6687 24.2929 80.843 24.6438C80.0173 25 79.0728 25.1727 78.015 25.1727C76.9572 25.1727 75.5 24.865 74.7229 24.2552C73.9457 23.6453 73.5571 22.7925 73.5571 21.7023C73.5571 20.612 73.6975 20.5743 73.9727 20.1101C74.248 19.6459 74.6635 19.2412 75.2194 18.9065C75.4946 18.7392 75.8886 18.5989 76.4013 18.4855C76.914 18.3722 77.7559 18.2535 78.9217 18.1293C79.1268 18.1077 79.4182 18.0754 79.8068 18.0322C81.7767 17.8433 82.7643 17.3413 82.7643 16.5264C82.7643 15.7114 82.5268 15.4739 82.0573 15.1987C81.5878 14.9234 80.8214 14.7831 79.7636 14.7831C78.7058 14.7831 77.6912 14.9612 77.1407 15.3174C76.5902 15.6736 76.288 16.2511 76.2286 17.0445L74.0645 17.0553C74.1346 15.7006 74.6311 14.6859 75.5648 14.0005C76.4931 13.315 77.8477 12.975 79.6179 12.975C81.3881 12.975 82.9046 13.2665 83.7034 13.844C84.4967 14.4215 84.8961 15.4145 84.8961 16.8124V21.4594C84.8961 22.1071 84.9716 22.5496 85.1227 22.7925C85.2739 23.0354 85.5437 23.1595 85.9269 23.1595C86.3101 23.1595 86.105 23.1595 86.2075 23.1433C86.3101 23.1325 86.418 23.1163 86.5259 23.0948V24.7787C86.2507 24.8165 85.9809 24.8381 85.7056 24.8596C85.4304 24.8758 85.1713 24.8866 84.9177 24.8866C84.3078 24.8866 83.8383 24.7463 83.5145 24.4602C83.1906 24.1742 82.9748 23.7208 82.8668 23.1002L82.8614 23.1056ZM82.7967 18.9713C82.5106 19.1386 82.0843 19.2897 81.5284 19.4193C80.9725 19.5488 80.2277 19.6675 79.3049 19.7701C77.8045 19.9374 76.8493 20.1533 76.4445 20.4123C76.0397 20.6714 75.8346 21.0762 75.8346 21.6213C75.8346 22.1664 76.0559 22.6198 76.5039 22.9382C76.9464 23.2513 77.5671 23.4132 78.3604 23.4132C79.6341 23.4132 80.6973 23.1487 81.5338 22.6252C82.3757 22.1017 82.7967 21.4594 82.7967 20.6984V18.9713Z"
      fill="#000505"/>
  <path
      d="M88.4526 24.892V13.369H90.5251V15.312C91.0486 14.5564 91.6746 13.9789 92.3978 13.5795C93.121 13.1801 93.9089 12.9804 94.7616 12.9804C95.6144 12.9804 95.1448 12.9966 95.2852 13.029C95.4255 13.0614 95.5604 13.1099 95.6953 13.1801V15.3767C95.4147 15.2904 95.1556 15.231 94.9128 15.1932C94.6699 15.1555 94.4324 15.1339 94.2004 15.1339C93.1696 15.1339 92.3007 15.5225 91.5991 16.3051C90.8921 17.0877 90.5413 18.0646 90.5413 19.2465V24.892H88.4473H88.4526Z"
      fill="#000505"/>
  <path
      d="M111.535 14.2487C111.238 13.2125 110.634 12.4083 109.716 11.847C108.799 11.2803 107.639 10.9996 106.235 10.9996C104.832 10.9996 102.997 11.5501 101.95 12.6458C100.903 13.7414 100.38 15.2364 100.38 17.1201C100.38 19.0037 100.903 20.4771 101.945 21.5781C102.992 22.6792 104.401 23.2297 106.171 23.2297C107.941 23.2297 109.085 22.8087 110.121 21.9721C111.157 21.1356 111.74 20.013 111.881 18.6043H106.948V16.5534H113.921V24.892H112.393L112.172 22.2852C111.568 23.2729 110.753 24.0231 109.727 24.5358C108.702 25.0485 107.509 25.3022 106.149 25.3022C103.737 25.3022 101.805 24.5574 100.342 23.0624C98.8849 21.5674 98.1563 19.5866 98.1563 17.1201C98.1563 14.6535 98.8957 12.6026 100.374 11.1292C101.853 9.66113 103.861 8.92711 106.397 8.92711C108.934 8.92711 110.094 9.42905 111.47 10.4329C112.847 11.4368 113.613 12.7105 113.77 14.2487H111.53H111.535Z"
      fill="#000505"/>
  <path
      d="M118.875 19.5488V19.6351C118.875 20.7308 119.258 21.6213 120.025 22.3122C120.791 23.003 121.784 23.3484 123.004 23.3484C124.223 23.3484 124.693 23.1649 125.341 22.8033C125.988 22.4363 126.425 21.9397 126.663 21.2975H129.102C128.687 22.5604 127.947 23.5427 126.879 24.2497C125.81 24.9568 124.52 25.3076 123.004 25.3076C121.487 25.3076 119.55 24.7463 118.4 23.6291C117.251 22.5118 116.673 21.0168 116.673 19.144C116.673 17.2712 117.251 15.7761 118.4 14.6589C119.55 13.5417 121.082 12.9804 123.004 12.9804C124.925 12.9804 126.506 13.5255 127.618 14.6211C128.735 15.7168 129.291 17.2226 129.291 19.144V19.5542H118.87L118.875 19.5488ZM118.94 18.0646H127.057C126.895 17.0823 126.458 16.3159 125.735 15.7546C125.017 15.1986 124.105 14.918 123.004 14.918C121.903 14.918 121.001 15.1986 120.278 15.7546C119.555 16.3105 119.107 17.0823 118.934 18.0646H118.94Z"
      fill="#000505"/>
  <path
      d="M131.747 24.892V13.369H133.819V15.3552C134.451 14.5834 135.158 14.0113 135.946 13.6335C136.728 13.261 137.608 13.0721 138.585 13.0721C139.561 13.0721 140.015 13.1801 140.598 13.4014C141.181 13.6227 141.666 13.9519 142.044 14.3837C142.373 14.7615 142.605 15.2148 142.746 15.7384C142.881 16.2619 142.951 17.1092 142.951 18.275V24.892H140.867V18.1941C140.867 16.9743 140.657 16.1108 140.231 15.6034C139.804 15.0961 139.097 14.8424 138.11 14.8424C137.122 14.8424 135.821 15.2256 135.028 15.9974C134.235 16.7692 133.841 17.7839 133.841 19.0361V24.892H131.747Z"
      fill="#000505"/>
  <path d="M146.119 24.892V13.369H148.202V24.892H146.119Z" fill="#000505"/>
  <path
      d="M149.778 24.892L154.9 19.036L150.274 13.369H153.113L156.362 17.7623L159.768 13.369H162.563L157.63 19.036L162.784 24.892H159.87L156.357 20.3907L152.509 24.892H149.772H149.778Z"
      fill="#000505"/>
  <path
      d="M147.16 11.3073C147.894 11.3073 148.488 10.7128 148.488 9.97955C148.488 9.24628 147.894 8.65184 147.16 8.65184C146.427 8.65184 145.833 9.24628 145.833 9.97955C145.833 10.7128 146.427 11.3073 147.16 11.3073Z"
      fill="#000505"/>
</svg>
