<svg width="241" height="49" viewBox="0 0 241 49" fill="none" xmlns="http://www.w3.org/2000/svg">
<path d="M21.7372 3.64648C21.8315 3.64648 21.908 3.72295 21.908 3.81728L21.908 16.1147C21.908 16.209 21.8315 16.2855 21.7372 16.2855C21.6429 16.2855 21.5664 16.209 21.5664 16.1147L21.5664 3.81728C21.5664 3.72295 21.6429 3.64648 21.7372 3.64648Z" fill="#000505"/>
<path d="M21.7393 3.16797C22.0971 3.168 22.3877 3.45836 22.3877 3.81641L22.3877 16.1143C22.3874 16.4721 22.097 16.7617 21.7393 16.7617C21.3815 16.7617 21.0911 16.4721 21.0908 16.1143L21.0908 3.81641C21.0909 3.45845 21.3813 3.168 21.7393 3.16797Z" fill="#000505" stroke="#000505" stroke-width="0.513283" stroke-linejoin="round"/>
<path d="M32.1655 6.43989C32.2472 6.48706 32.2752 6.59151 32.228 6.6732L26.0793 17.3231C26.0321 17.4048 25.9277 17.4328 25.846 17.3856C25.7643 17.3384 25.7363 17.234 25.7835 17.1523L31.9322 6.50241C31.9793 6.42072 32.0838 6.39273 32.1655 6.43989Z" fill="#000505"/>
<path d="M26.2693 17.4333C26.1612 17.6206 25.9217 17.6847 25.7344 17.5766C25.5471 17.4684 25.4829 17.229 25.5911 17.0417L31.7398 6.39182C31.8479 6.20457 32.0874 6.14041 32.2746 6.2485C32.4619 6.35663 32.5262 6.59615 32.4181 6.78343L26.2693 17.4333Z" fill="#000505"/>
<path d="M39.7983 14.0727C39.8455 14.1544 39.8175 14.2589 39.7358 14.306L29.0859 20.4547C29.0042 20.5019 28.8998 20.4739 28.8526 20.3922C28.8054 20.3105 28.8334 20.2061 28.9151 20.1589L39.565 14.0102C39.6467 13.963 39.7511 13.991 39.7983 14.0727Z" fill="#DF8600"/>
<path d="M39.6612 14.1775C39.6716 14.1715 39.6752 14.1583 39.6692 14.148C39.6632 14.1376 39.65 14.1341 39.6396 14.1401L28.9898 20.2887C28.9794 20.2947 28.9759 20.308 28.9819 20.3183C28.9878 20.3286 29.0011 20.3321 29.0114 20.3262L39.6612 14.1775ZM29.1606 20.5845C29.0075 20.6729 28.8119 20.6205 28.7235 20.4675C28.6351 20.3145 28.6876 20.1187 28.8406 20.0304L39.4904 13.8817C39.6435 13.7933 39.8392 13.8458 39.9276 13.9988C40.0159 14.1518 39.9634 14.3475 39.8104 14.4359L29.1606 20.5845Z" fill="#DF8600"/>
<path d="M29.2722 20.7756C29.0136 20.9249 28.6828 20.8363 28.5335 20.5777C28.3842 20.3191 28.4728 19.9883 28.7314 19.839L39.3813 13.6903C39.6399 13.541 39.9707 13.6296 40.12 13.8882L40.1333 13.9127C40.2636 14.1674 40.1725 14.4822 39.9221 14.6269L29.2722 20.7756Z" fill="#DF8600" stroke="#DF8600" stroke-width="0.256642" stroke-linejoin="round"/>
<path d="M42.5937 24.5009C42.5937 24.5952 42.5173 24.6717 42.423 24.6717L30.1255 24.6717C30.0312 24.6717 29.9547 24.5952 29.9547 24.5009C29.9547 24.4065 30.0312 24.3301 30.1255 24.3301L42.423 24.3301C42.5173 24.3301 42.5937 24.4065 42.5937 24.5009Z" fill="#DF8600"/>
<path d="M42.4222 24.5213C42.4341 24.5213 42.4438 24.5116 42.4438 24.4997C42.4438 24.4877 42.4341 24.478 42.4222 24.478L30.1248 24.478C30.1129 24.478 30.1032 24.4877 30.1032 24.4997C30.1032 24.5116 30.1129 24.5213 30.1248 24.5213L42.4222 24.5213ZM30.1248 24.8196C29.9481 24.8196 29.8048 24.6764 29.8048 24.4997C29.8048 24.323 29.9481 24.1797 30.1248 24.1797L42.4222 24.1797C42.5989 24.1797 42.7422 24.323 42.7422 24.4997C42.7422 24.6764 42.5989 24.8196 42.4222 24.8196L30.1248 24.8196Z" fill="#DF8600"/>
<path d="M43.2197 24.5068L43.2187 24.5352L43.2187 24.542C43.1972 24.9634 42.8483 25.2978 42.4219 25.2979L30.125 25.2979C29.6848 25.2978 29.3273 24.9413 29.3271 24.501C29.3272 24.0606 29.6847 23.7032 30.125 23.7031L42.4219 23.7031C42.8622 23.7032 43.2197 24.0606 43.2197 24.501L43.2197 24.5068Z" fill="#DF8600" stroke="#DF8600" stroke-width="0.513283" stroke-linejoin="round"/>
<path d="M39.7974 34.9272C39.7502 35.0089 39.6458 35.0369 39.5641 34.9897L28.9142 28.841C28.8325 28.7939 28.8045 28.6894 28.8517 28.6077C28.8989 28.526 29.0033 28.498 29.085 28.5452L39.7349 34.6939C39.8166 34.7411 39.8446 34.8455 39.7974 34.9272Z" fill="#DF8600"/>
<path d="M39.64 34.8604C39.6503 34.8664 39.6635 34.8629 39.6695 34.8526C39.6755 34.8422 39.6719 34.829 39.6616 34.823L29.0118 28.6743C29.0014 28.6683 28.9881 28.6719 28.9822 28.6822C28.9762 28.6926 28.9798 28.7058 28.9901 28.7117L39.64 34.8604ZM28.841 28.9701C28.6879 28.8818 28.6355 28.6861 28.7238 28.5331C28.8122 28.38 29.0079 28.3276 29.1609 28.4159L39.8108 34.5646C39.9638 34.653 40.0162 34.8487 39.9279 35.0017C39.8395 35.1548 39.6438 35.2071 39.4908 35.1188L28.841 28.9701Z" fill="#DF8600"/>
<path d="M28.7297 29.162C28.4712 29.0127 28.3825 28.682 28.5318 28.4234C28.6811 28.1648 29.0119 28.0761 29.2705 28.2254L39.9204 34.3742C40.179 34.5235 40.2676 34.8542 40.1183 35.1128L40.1037 35.1366C39.9483 35.3768 39.6301 35.4553 39.3796 35.3108L28.7297 29.162Z" fill="#DF8600" stroke="#DF8600" stroke-width="0.256642" stroke-linejoin="round"/>
<path d="M32.1646 42.561C32.0829 42.6081 31.9784 42.5802 31.9313 42.4985L25.7826 31.8486C25.7354 31.7669 25.7634 31.6624 25.8451 31.6153C25.9268 31.5681 26.0312 31.5961 26.0784 31.6778L32.2271 42.3277C32.2743 42.4094 32.2463 42.5138 32.1646 42.561Z" fill="#000505"/>
<path d="M25.5924 31.9583C25.4843 31.771 25.5486 31.5315 25.7359 31.4234C25.9232 31.3153 26.1626 31.3794 26.2707 31.5667L32.4195 42.2166C32.5276 42.4039 32.4634 42.6433 32.2762 42.7514C32.0889 42.8596 31.8493 42.7955 31.7412 42.6082L25.5924 31.9583Z" fill="#000505"/>
<path d="M21.7374 45.3545C21.6431 45.3545 21.5666 45.278 21.5666 45.1837L21.5666 32.8863C21.5666 32.792 21.6431 32.7155 21.7374 32.7155C21.8317 32.7155 21.9082 32.792 21.9082 32.8863L21.9082 45.1837C21.9082 45.278 21.8317 45.3545 21.7374 45.3545Z" fill="#000505"/>
<path d="M21.7373 45.832C21.3794 45.832 21.0889 45.5416 21.0889 45.1836L21.0889 32.8857C21.0891 32.5279 21.3796 32.2383 21.7373 32.2383C22.0951 32.2383 22.3855 32.5279 22.3857 32.8857L22.3857 45.1836C22.3857 45.5415 22.0953 45.832 21.7373 45.832Z" fill="#000505" stroke="#000505" stroke-width="0.513283" stroke-linejoin="round"/>
<path d="M11.3111 42.5611C11.2294 42.5139 11.2014 42.4095 11.2486 42.3278L17.3973 31.6779C17.4444 31.5962 17.5489 31.5682 17.6306 31.6154C17.7123 31.6626 17.7403 31.767 17.6931 31.8487L11.5444 42.4986C11.4972 42.5803 11.3928 42.6083 11.3111 42.5611Z" fill="#000505"/>
<path d="M17.2053 31.5667C17.3134 31.3794 17.553 31.3153 17.7402 31.4234C17.9275 31.5316 17.9917 31.771 17.8836 31.9583L11.7348 42.6082C11.6267 42.7954 11.3873 42.8596 11.2 42.7515C11.0127 42.6434 10.9484 42.4039 11.0565 42.2166L17.2053 31.5667Z" fill="#000505"/>
<path d="M3.67827 34.9263C3.63111 34.8446 3.6591 34.7402 3.74079 34.693L14.3907 28.5443C14.4724 28.4971 14.5768 28.5251 14.624 28.6068C14.6711 28.6885 14.6431 28.793 14.5615 28.8401L3.91159 34.9888C3.8299 35.036 3.72544 35.008 3.67827 34.9263Z" fill="#DF8600"/>
<path d="M3.81533 34.8235C3.805 34.8295 3.80141 34.8427 3.80736 34.853C3.81333 34.8633 3.8266 34.8669 3.83694 34.8609L14.4868 28.7122C14.4971 28.7063 14.5007 28.693 14.4947 28.6827C14.4887 28.6723 14.4755 28.6688 14.4652 28.6748L3.81533 34.8235ZM14.316 28.4164C14.469 28.3281 14.6647 28.3805 14.7531 28.5335C14.8414 28.6865 14.789 28.8823 14.6359 28.9706L3.98612 35.1193C3.83308 35.2077 3.63734 35.1552 3.54898 35.0022C3.46065 34.8491 3.51313 34.6535 3.66616 34.5651L14.316 28.4164Z" fill="#DF8600"/>
<path d="M14.2044 28.2254C14.463 28.0761 14.7937 28.1647 14.9431 28.4233C15.0924 28.6819 15.0037 29.0126 14.7452 29.162L4.09525 35.3107C3.83663 35.46 3.50591 35.3714 3.35658 35.1128L3.34326 35.0883C3.21296 34.8335 3.30404 34.5187 3.55451 34.3741L14.2044 28.2254Z" fill="#DF8600" stroke="#DF8600" stroke-width="0.256642" stroke-linejoin="round"/>
<path d="M0.882813 24.5001C0.882813 24.4058 0.959281 24.3293 1.05361 24.3293L13.351 24.3293C13.4453 24.3293 13.5218 24.4058 13.5218 24.5001C13.5218 24.5944 13.4453 24.6709 13.351 24.6709L1.05361 24.6709C0.959281 24.6709 0.882813 24.5944 0.882813 24.5001Z" fill="#DF8600"/>
<path d="M1.05438 24.4778C1.04245 24.4778 1.03274 24.4874 1.03272 24.4993C1.03272 24.5113 1.04244 24.521 1.05438 24.521L13.3517 24.521C13.3637 24.521 13.3734 24.5113 13.3734 24.4993C13.3734 24.4874 13.3637 24.4778 13.3517 24.4778L1.05438 24.4778ZM13.3517 24.1794C13.5284 24.1794 13.6717 24.3226 13.6717 24.4993C13.6717 24.676 13.5285 24.8193 13.3517 24.8193L1.05438 24.8193C0.877664 24.8193 0.734375 24.676 0.734375 24.4993C0.734393 24.3226 0.877675 24.1794 1.05438 24.1794L13.3517 24.1794Z" fill="#DF8600"/>
<path d="M0.256836 24.4941L0.257813 24.4658L0.257813 24.459C0.279408 24.0376 0.628276 23.7032 1.05469 23.7031L13.3516 23.7031C13.7917 23.7032 14.1492 24.0597 14.1494 24.5C14.1494 24.9403 13.7919 25.2978 13.3516 25.2979L1.05469 25.2979C0.61435 25.2978 0.256871 24.9403 0.256836 24.5L0.256836 24.4941Z" fill="#DF8600" stroke="#DF8600" stroke-width="0.513283" stroke-linejoin="round"/>
<path d="M3.67915 14.0728C3.72631 13.9911 3.83077 13.9631 3.91246 14.0103L14.5623 20.159C14.644 20.2061 14.672 20.3106 14.6248 20.3923C14.5777 20.474 14.4732 20.502 14.3915 20.4548L3.74166 14.3061C3.65997 14.2589 3.63198 14.1545 3.67915 14.0728Z" fill="#DF8600"/>
<path d="M3.83658 14.1396C3.82625 14.1336 3.81303 14.1371 3.80705 14.1474C3.80108 14.1578 3.80463 14.171 3.81498 14.177L14.4648 20.3257C14.4751 20.3317 14.4884 20.3281 14.4944 20.3178C14.5003 20.3074 14.4967 20.2942 14.4864 20.2883L3.83658 14.1396ZM14.6356 20.0299C14.7886 20.1182 14.8411 20.3139 14.7528 20.4669C14.6644 20.62 14.4687 20.6724 14.3156 20.5841L3.6658 14.4354C3.51276 14.347 3.46032 14.1513 3.54867 13.9983C3.63704 13.8452 3.83273 13.7929 3.98576 13.8812L14.6356 20.0299Z" fill="#DF8600"/>
<path d="M14.7468 19.839C15.0054 19.9882 15.0941 20.3189 14.9448 20.5776C14.7954 20.8362 14.4647 20.9248 14.2061 20.7755L3.55619 14.6268C3.29759 14.4775 3.20897 14.1468 3.35826 13.8882L3.37283 13.8644C3.52826 13.6242 3.84644 13.5456 4.09693 13.6902L14.7468 19.839Z" fill="#DF8600" stroke="#DF8600" stroke-width="0.256642" stroke-linejoin="round"/>
<path d="M11.31 6.43999C11.3917 6.39283 11.4962 6.42082 11.5433 6.50251L17.692 17.1524C17.7392 17.2341 17.7112 17.3385 17.6295 17.3857C17.5478 17.4329 17.4434 17.4049 17.3962 17.3232L11.2475 6.67331C11.2003 6.59161 11.2283 6.48716 11.31 6.43999Z" fill="#000505"/>
<path d="M17.8841 17.0407C17.9922 17.228 17.928 17.4675 17.7407 17.5757C17.5534 17.6838 17.3139 17.6196 17.2058 17.4323L11.0571 6.78244C10.949 6.59517 11.0132 6.35572 11.2004 6.24759C11.3877 6.13946 11.6273 6.20357 11.7354 6.39083L17.8841 17.0407Z" fill="#000505"/>
<path d="M55.7261 32.9025C55.7044 32.209 55.6827 31.4505 55.661 30.6269C55.661 29.7817 55.6285 28.904 55.5635 27.9938C55.6719 27.9721 55.7694 27.9613 55.8561 27.9613C55.9645 27.9613 56.0728 27.9613 56.1812 27.9613C56.4196 29.435 57.0264 30.5619 58.0016 31.3421C58.9985 32.1006 60.1363 32.4799 61.415 32.4799C62.7586 32.4799 63.788 32.0898 64.5032 31.3096C65.2184 30.5294 65.576 29.5217 65.576 28.2863C65.576 27.3111 65.3701 26.4876 64.9583 25.8157C64.5466 25.1222 63.9722 24.5046 63.2354 23.9628C62.5202 23.3993 61.7075 22.8359 60.7973 22.2724C59.9521 21.7306 59.1286 21.1671 58.3267 20.582C57.5465 19.9752 56.9072 19.2817 56.4087 18.5015C55.9103 17.7213 55.661 16.7785 55.661 15.6733C55.661 14.5247 55.9428 13.5169 56.5063 12.65C57.0914 11.7832 57.8824 11.1113 58.8793 10.6345C59.8979 10.1361 61.0465 9.88686 62.3252 9.88686C62.7153 9.88686 63.062 9.90853 63.3654 9.95187C63.6905 9.99522 64.0589 10.0386 64.4707 10.0819C64.8825 10.1252 65.2184 10.1578 65.4784 10.1794C65.7385 10.2011 65.9769 10.2119 66.1936 10.2119C66.237 10.2119 66.3128 10.2119 66.4212 10.2119C66.5295 10.2119 66.6596 10.2011 66.8113 10.1794L67.0713 14.7956C66.9413 14.8172 66.8221 14.8389 66.7137 14.8606C66.6271 14.8606 66.5295 14.8606 66.4212 14.8606C66.3128 14.1671 66.1178 13.5494 65.836 13.0076C65.576 12.4658 65.2726 12.0432 64.9258 11.7398C64.5574 11.4147 64.1023 11.1763 63.5605 11.0246C63.0187 10.8729 62.4877 10.7971 61.9676 10.7971C60.8406 10.7971 59.8979 11.133 59.1394 11.8048C58.4026 12.455 58.0341 13.3869 58.0341 14.6005C58.0341 15.4891 58.24 16.2584 58.6518 16.9086C59.0635 17.5371 59.6162 18.1222 60.3097 18.664C61.0032 19.1841 61.7834 19.7259 62.6503 20.2894C63.4955 20.8312 64.319 21.4272 65.1209 22.0773C65.9227 22.7058 66.5729 23.4427 67.0713 24.2879C67.5915 25.1114 67.8515 26.1192 67.8515 27.3111C67.8515 28.373 67.6131 29.3699 67.1364 30.3018C66.6596 31.2121 65.9336 31.9597 64.9583 32.5449C63.9831 33.1084 62.7478 33.3901 61.2524 33.3901C60.9273 33.3901 60.5589 33.3684 60.1471 33.3251C59.757 33.2817 59.1719 33.2167 58.3917 33.13C57.7416 33.0433 57.2214 32.9892 56.8313 32.9675C56.4629 32.9241 56.0945 32.9025 55.7261 32.9025ZM95.4287 21.4597C95.4287 23.8003 94.941 25.8699 93.9658 27.6687C92.9906 29.4458 91.6144 30.8436 89.8373 31.8622C88.0602 32.8808 85.958 33.3901 83.5308 33.3901C81.1252 33.3901 79.0555 32.8916 77.3217 31.8947C75.588 30.8978 74.2552 29.5325 73.3233 27.7987C72.3914 26.0433 71.9254 24.0495 71.9254 21.8173C71.9254 19.52 72.413 17.472 73.3883 15.6733C74.3635 13.8745 75.7397 12.4658 77.5168 11.4472C79.3156 10.407 81.4286 9.88686 83.8558 9.88686C86.2398 9.88686 88.2878 10.3853 89.9998 11.3822C91.7336 12.3575 93.0664 13.7228 93.9983 15.4782C94.9519 17.212 95.4287 19.2058 95.4287 21.4597ZM92.5355 21.7848C92.5355 20.4194 92.3729 19.0866 92.0478 17.7863C91.7228 16.486 91.2135 15.3157 90.52 14.2754C89.8265 13.2352 88.9162 12.4116 87.7893 11.8048C86.6624 11.1763 85.297 10.8621 83.6933 10.8621C82.0896 10.8621 80.7242 11.1763 79.5973 11.8048C78.4704 12.4116 77.5601 13.2352 76.8666 14.2754C76.1731 15.3157 75.6638 16.4751 75.3388 17.7538C75.0137 19.0108 74.8511 20.2894 74.8511 21.5897C74.8511 22.89 75.0137 24.1795 75.3388 25.4582C75.6638 26.7368 76.184 27.9071 76.8991 28.969C77.6143 30.0309 78.5462 30.8761 79.6948 31.5046C80.8434 32.1331 82.2304 32.4474 83.8558 32.4474C85.4596 32.4474 86.8141 32.144 87.9193 31.5371C89.0463 30.9303 89.9457 30.1285 90.6175 29.1316C91.2893 28.113 91.7769 26.9644 92.0803 25.6857C92.3838 24.4071 92.5355 23.1068 92.5355 21.7848ZM100.273 33.0325C100.251 32.8158 100.251 32.5991 100.273 32.3823C101.009 32.3173 101.54 32.2523 101.865 32.1873C102.191 32.1006 102.386 31.9381 102.451 31.6997C102.537 31.4613 102.581 31.0604 102.581 30.4969V13.0401C102.581 12.39 102.537 11.924 102.451 11.6423C102.364 11.3606 102.158 11.1763 101.833 11.0897C101.53 10.9813 101.009 10.9054 100.273 10.8621C100.251 10.6454 100.251 10.4287 100.273 10.2119C100.771 10.2119 101.389 10.2228 102.126 10.2444C102.862 10.2661 103.448 10.277 103.881 10.277C104.163 10.277 104.531 10.277 104.986 10.277C105.441 10.2553 105.896 10.2444 106.352 10.2444C106.828 10.2228 107.218 10.2119 107.522 10.2119C107.544 10.4287 107.544 10.6454 107.522 10.8621C106.763 10.9271 106.222 10.9921 105.896 11.0571C105.571 11.1222 105.366 11.2739 105.279 11.5123C105.214 11.7506 105.181 12.1624 105.181 12.7476V30.0743C105.181 30.6161 105.181 31.0495 105.181 31.3746C105.181 31.678 105.192 31.8839 105.214 31.9923H109.96C110.718 31.9923 111.336 31.9381 111.813 31.8297C112.29 31.7214 112.669 31.5046 112.951 31.1796C113.189 30.9195 113.438 30.5402 113.698 30.0418C113.98 29.5217 114.229 28.8932 114.446 28.1563C114.641 28.1346 114.836 28.1346 115.031 28.1563C114.858 29.1316 114.695 30.0526 114.544 30.9195C114.414 31.7864 114.305 32.4799 114.219 33C113.2 33 112.084 33 110.87 33C109.678 32.9783 108.475 32.9675 107.262 32.9675C106.07 32.9675 104.965 32.9675 103.946 32.9675C103.643 32.9675 103.263 32.9783 102.808 33C102.353 33 101.898 33 101.443 33C100.988 33.0217 100.598 33.0325 100.273 33.0325ZM115.812 33.0325C115.79 32.8158 115.79 32.5991 115.812 32.3823C116.527 32.3173 117.058 32.2415 117.405 32.1548C117.773 32.0464 118.066 31.8189 118.282 31.4721C118.499 31.1037 118.748 30.5186 119.03 29.7167L126.247 10.277C126.42 10.2119 126.626 10.1686 126.864 10.1469C127.124 10.1036 127.33 10.0819 127.482 10.0819L134.764 29.9117C135.046 30.6703 135.273 31.2121 135.446 31.5371C135.641 31.8622 135.912 32.0681 136.259 32.1548C136.606 32.2415 137.148 32.3173 137.885 32.3823C137.906 32.5991 137.906 32.8158 137.885 33.0325C137.321 33.0325 136.682 33.0217 135.967 33C135.273 32.9783 134.634 32.9675 134.049 32.9675C133.442 32.9675 132.867 32.9783 132.326 33C131.806 33.0217 131.242 33.0325 130.635 33.0325C130.614 32.8158 130.614 32.5991 130.635 32.3823C131.394 32.3173 131.892 32.2523 132.131 32.1873C132.391 32.1006 132.521 31.9056 132.521 31.6022C132.521 31.4938 132.499 31.3638 132.456 31.2121C132.412 31.0387 132.347 30.8328 132.261 30.5944L130.018 24.3204H122.281L120.168 30.2368C119.951 30.822 119.843 31.2446 119.843 31.5046C119.843 31.8514 120.005 32.0681 120.33 32.1548C120.655 32.2415 121.186 32.3173 121.923 32.3823C121.945 32.5991 121.945 32.8158 121.923 33.0325C121.381 33.0325 120.85 33.0217 120.33 33C119.832 32.9783 119.312 32.9675 118.77 32.9675C118.336 32.9675 117.849 32.9783 117.307 33C116.787 33.0217 116.288 33.0325 115.812 33.0325ZM122.638 23.3126H129.628L126.117 13.5277L122.638 23.3126ZM146.502 22.4024L145.689 22.3374V30.2043C145.689 30.8545 145.733 31.3313 145.819 31.6347C145.906 31.9164 146.112 32.1006 146.437 32.1873C146.784 32.2523 147.347 32.3173 148.127 32.3823C148.149 32.5991 148.149 32.8158 148.127 33.0325C147.824 33.0325 147.423 33.0217 146.925 33C146.448 33 145.971 33 145.494 33C145.039 32.9783 144.66 32.9675 144.356 32.9675C144.075 32.9675 143.695 32.9783 143.219 33C142.764 33 142.308 33 141.853 33C141.398 33.0217 141.019 33.0325 140.716 33.0325C140.694 32.8158 140.694 32.5991 140.716 32.3823C141.474 32.3173 142.016 32.2523 142.341 32.1873C142.688 32.1223 142.894 31.9706 142.959 31.7322C143.045 31.4721 143.089 31.0604 143.089 30.4969V13.0076C143.089 12.3575 143.045 11.8915 142.959 11.6098C142.872 11.328 142.655 11.1438 142.308 11.0571C141.983 10.9705 141.452 10.9054 140.716 10.8621C140.694 10.6454 140.694 10.4287 140.716 10.2119C141.019 10.2119 141.398 10.2228 141.853 10.2444C142.33 10.2444 142.796 10.2553 143.251 10.277C143.728 10.277 144.107 10.277 144.389 10.277C144.671 10.277 145.093 10.277 145.657 10.277C146.22 10.2553 146.784 10.2444 147.347 10.2444C147.911 10.2228 148.322 10.2119 148.582 10.2119C149.818 10.2119 150.966 10.3961 152.028 10.7646C153.09 11.133 153.946 11.729 154.596 12.5525C155.268 13.3544 155.604 14.438 155.604 15.8033C155.604 17.407 155.127 18.7073 154.174 19.7043C153.22 20.7012 151.942 21.4488 150.338 21.9473V22.0448C150.641 22.1965 150.923 22.3916 151.183 22.63C151.465 22.8467 151.779 23.1718 152.126 23.6052C152.386 23.9303 152.754 24.4504 153.231 25.1656C153.73 25.8808 154.25 26.661 154.791 27.5062C155.355 28.3297 155.864 29.099 156.319 29.8142C156.818 30.5944 157.24 31.1579 157.587 31.5046C157.934 31.8297 158.313 32.0464 158.725 32.1548C159.137 32.2415 159.689 32.3173 160.383 32.3823C160.404 32.5991 160.404 32.8158 160.383 33.0325C160.079 33.0325 159.689 33.0217 159.213 33C158.736 33 158.27 33 157.815 33C157.381 32.9783 157.045 32.9675 156.807 32.9675C156.547 32.9675 156.298 32.9783 156.059 33C155.821 33 155.582 33 155.344 33C155.106 32.5882 154.759 32.0248 154.304 31.3096C153.849 30.5727 153.339 29.7709 152.776 28.904C152.212 28.0371 151.649 27.1919 151.086 26.3684C150.544 25.5232 150.056 24.808 149.623 24.2229C149.254 23.7027 148.929 23.3235 148.647 23.0851C148.366 22.8467 148.062 22.6841 147.737 22.5975C147.434 22.5108 147.022 22.4458 146.502 22.4024ZM145.689 21.3622C145.971 21.4055 146.22 21.438 146.437 21.4597C146.654 21.4597 146.86 21.4597 147.055 21.4597C148.788 21.4597 150.175 21.0371 151.216 20.1919C152.278 19.325 152.808 17.9813 152.808 16.1609C152.808 14.5355 152.364 13.3002 151.476 12.455C150.587 11.5881 149.276 11.1547 147.542 11.1547C147 11.1547 146.383 11.1872 145.689 11.2522V21.3622Z" fill="#000505"/>
<path d="M179.739 10.2119C179.76 10.4287 179.76 10.6454 179.739 10.8621C178.959 10.9054 178.373 10.9813 177.983 11.0897C177.615 11.198 177.322 11.4364 177.106 11.8048C176.889 12.1516 176.629 12.7259 176.325 13.5277L169.011 32.9675C168.859 33.0325 168.654 33.0759 168.393 33.0975C168.155 33.1409 167.949 33.1625 167.776 33.1625L160.397 13.3327C160.115 12.5742 159.876 12.0324 159.681 11.7073C159.486 11.3822 159.205 11.1763 158.836 11.0897C158.489 10.9813 157.915 10.9054 157.113 10.8621C157.092 10.6454 157.092 10.4287 157.113 10.2119C157.677 10.2119 158.338 10.2228 159.096 10.2444C159.855 10.2661 160.527 10.277 161.112 10.277C161.719 10.277 162.314 10.2661 162.9 10.2444C163.506 10.2228 164.113 10.2119 164.72 10.2119C164.742 10.4287 164.742 10.6454 164.72 10.8621C163.853 10.9271 163.29 11.003 163.03 11.0897C162.77 11.1547 162.64 11.3389 162.64 11.6423C162.64 11.7506 162.661 11.8915 162.705 12.0649C162.748 12.2166 162.813 12.4116 162.9 12.65L169.141 29.7167L175.188 13.0076C175.404 12.4225 175.513 11.9999 175.513 11.7398C175.513 11.3931 175.339 11.1763 174.993 11.0897C174.668 11.003 174.082 10.9271 173.237 10.8621C173.215 10.6454 173.215 10.4287 173.237 10.2119C173.779 10.2119 174.332 10.2228 174.895 10.2444C175.48 10.2661 176.044 10.277 176.585 10.277C177.019 10.277 177.528 10.2661 178.113 10.2444C178.72 10.2228 179.262 10.2119 179.739 10.2119ZM182.177 33.0325C182.156 32.8158 182.156 32.5991 182.177 32.3823C182.914 32.3173 183.445 32.2523 183.77 32.1873C184.095 32.1006 184.29 31.9381 184.355 31.6997C184.442 31.4613 184.485 31.0604 184.485 30.4969V13.0401C184.485 12.39 184.442 11.924 184.355 11.6423C184.269 11.3606 184.063 11.1763 183.738 11.0897C183.434 10.9813 182.914 10.9054 182.177 10.8621C182.156 10.6454 182.156 10.4287 182.177 10.2119C182.719 10.2119 183.174 10.2228 183.543 10.2444C183.933 10.2444 184.377 10.2553 184.876 10.277C185.396 10.277 186.1 10.277 186.989 10.277C187.92 10.277 188.863 10.277 189.817 10.277C190.77 10.2553 191.659 10.2444 192.482 10.2444C193.306 10.2444 193.989 10.2444 194.53 10.2444C195.072 10.2228 195.386 10.2119 195.473 10.2119C195.603 11.4472 195.787 12.7584 196.026 14.1454C195.787 14.1671 195.571 14.1671 195.376 14.1454C195.202 13.5603 195.018 13.0943 194.823 12.7476C194.628 12.3791 194.422 12.0974 194.205 11.9023C193.924 11.6423 193.566 11.4689 193.133 11.3822C192.721 11.2955 192.201 11.2522 191.572 11.2522H187.086V20.7445H190.499C191.258 20.7445 191.821 20.7012 192.19 20.6145C192.558 20.5278 192.818 20.3111 192.97 19.9643C193.122 19.5959 193.252 19.0108 193.36 18.2089C193.598 18.1872 193.826 18.1872 194.043 18.2089C194.043 18.3606 194.032 18.7399 194.01 19.3467C193.989 19.9318 193.978 20.5928 193.978 21.3297C193.978 22.0015 193.989 22.6408 194.01 23.2476C194.032 23.8328 194.043 24.2229 194.043 24.4179C193.848 24.4396 193.62 24.4396 193.36 24.4179C193.273 23.551 193.154 22.9442 193.003 22.5975C192.851 22.229 192.602 22.0015 192.255 21.9148C191.908 21.8281 191.388 21.7848 190.694 21.7848H187.086V31.9923H191.41C192.19 31.9923 192.851 31.9489 193.393 31.8622C193.956 31.7539 194.39 31.548 194.693 31.2446C194.91 31.0279 195.137 30.6811 195.376 30.2043C195.636 29.7275 195.896 29.1641 196.156 28.5139C196.351 28.4922 196.557 28.4922 196.773 28.5139C196.6 29.3808 196.448 30.2152 196.318 31.017C196.21 31.8189 196.123 32.4799 196.058 33C195.343 33 194.52 33 193.588 33C192.656 33 191.713 33 190.759 33C189.806 32.9783 188.939 32.9675 188.159 32.9675C187.379 32.9675 186.783 32.9675 186.371 32.9675C185.634 32.9675 185.027 32.9783 184.55 33C184.095 33 183.694 33 183.348 33C183.001 33.0217 182.611 33.0325 182.177 33.0325ZM207.677 22.4024L206.864 22.3374V30.2043C206.864 30.8545 206.907 31.3313 206.994 31.6347C207.081 31.9164 207.286 32.1006 207.612 32.1873C207.958 32.2523 208.522 32.3173 209.302 32.3823C209.324 32.5991 209.324 32.8158 209.302 33.0325C208.999 33.0325 208.598 33.0217 208.099 33C207.622 33 207.146 33 206.669 33C206.214 32.9783 205.834 32.9675 205.531 32.9675C205.249 32.9675 204.87 32.9783 204.393 33C203.938 33 203.483 33 203.028 33C202.573 33.0217 202.194 33.0325 201.89 33.0325C201.868 32.8158 201.868 32.5991 201.89 32.3823C202.649 32.3173 203.19 32.2523 203.516 32.1873C203.862 32.1223 204.068 31.9706 204.133 31.7322C204.22 31.4721 204.263 31.0604 204.263 30.4969V13.0076C204.263 12.3575 204.22 11.8915 204.133 11.6098C204.046 11.328 203.83 11.1438 203.483 11.0571C203.158 10.9705 202.627 10.9054 201.89 10.8621C201.868 10.6454 201.868 10.4287 201.89 10.2119C202.194 10.2119 202.573 10.2228 203.028 10.2444C203.505 10.2444 203.971 10.2553 204.426 10.277C204.903 10.277 205.282 10.277 205.564 10.277C205.845 10.277 206.268 10.277 206.831 10.277C207.395 10.2553 207.958 10.2444 208.522 10.2444C209.085 10.2228 209.497 10.2119 209.757 10.2119C210.992 10.2119 212.141 10.3961 213.203 10.7646C214.265 11.133 215.121 11.729 215.771 12.5525C216.443 13.3544 216.779 14.438 216.779 15.8033C216.779 17.407 216.302 18.7073 215.348 19.7043C214.395 20.7012 213.116 21.4488 211.512 21.9473V22.0448C211.816 22.1965 212.098 22.3916 212.358 22.63C212.639 22.8467 212.954 23.1718 213.3 23.6052C213.56 23.9303 213.929 24.4504 214.406 25.1656C214.904 25.8808 215.424 26.661 215.966 27.5062C216.53 28.3297 217.039 29.099 217.494 29.8142C217.992 30.5944 218.415 31.1579 218.762 31.5046C219.108 31.8297 219.488 32.0464 219.9 32.1548C220.311 32.2415 220.864 32.3173 221.557 32.3823C221.579 32.5991 221.579 32.8158 221.557 33.0325C221.254 33.0325 220.864 33.0217 220.387 33C219.91 33 219.444 33 218.989 33C218.556 32.9783 218.22 32.9675 217.982 32.9675C217.721 32.9675 217.472 32.9783 217.234 33C216.995 33 216.757 33 216.519 33C216.28 32.5882 215.934 32.0248 215.478 31.3096C215.023 30.5727 214.514 29.7709 213.951 28.904C213.387 28.0371 212.824 27.1919 212.26 26.3684C211.718 25.5232 211.231 24.808 210.797 24.2229C210.429 23.7027 210.104 23.3235 209.822 23.0851C209.54 22.8467 209.237 22.6841 208.912 22.5975C208.608 22.5108 208.197 22.4458 207.677 22.4024ZM206.864 21.3622C207.146 21.4055 207.395 21.438 207.612 21.4597C207.828 21.4597 208.034 21.4597 208.229 21.4597C209.963 21.4597 211.35 21.0371 212.39 20.1919C213.452 19.325 213.983 17.9813 213.983 16.1609C213.983 14.5355 213.539 13.3002 212.65 12.455C211.762 11.5881 210.451 11.1547 208.717 11.1547C208.175 11.1547 207.557 11.1872 206.864 11.2522V21.3622ZM223.987 33.0325C223.965 32.8158 223.965 32.5991 223.987 32.3823C224.724 32.3173 225.255 32.2523 225.58 32.1873C225.905 32.1006 226.1 31.9381 226.165 31.6997C226.252 31.4613 226.295 31.0604 226.295 30.4969V13.0401C226.295 12.39 226.252 11.924 226.165 11.6423C226.078 11.3606 225.872 11.1763 225.547 11.0897C225.244 10.9813 224.724 10.9054 223.987 10.8621C223.965 10.6454 223.965 10.4287 223.987 10.2119C224.529 10.2119 224.984 10.2228 225.352 10.2444C225.742 10.2444 226.187 10.2553 226.685 10.277C227.205 10.277 227.91 10.277 228.798 10.277C229.73 10.277 230.673 10.277 231.626 10.277C232.58 10.2553 233.468 10.2444 234.292 10.2444C235.115 10.2444 235.798 10.2444 236.34 10.2444C236.882 10.2228 237.196 10.2119 237.283 10.2119C237.413 11.4472 237.597 12.7584 237.835 14.1454C237.597 14.1671 237.38 14.1671 237.185 14.1454C237.012 13.5603 236.828 13.0943 236.632 12.7476C236.437 12.3791 236.232 12.0974 236.015 11.9023C235.733 11.6423 235.375 11.4689 234.942 11.3822C234.53 11.2955 234.01 11.2522 233.382 11.2522H228.896V20.7445H232.309C233.067 20.7445 233.631 20.7012 233.999 20.6145C234.368 20.5278 234.628 20.3111 234.78 19.9643C234.931 19.5959 235.061 19.0108 235.17 18.2089C235.408 18.1872 235.636 18.1872 235.852 18.2089C235.852 18.3606 235.841 18.7399 235.82 19.3467C235.798 19.9318 235.787 20.5928 235.787 21.3297C235.787 22.0015 235.798 22.6408 235.82 23.2476C235.841 23.8328 235.852 24.2229 235.852 24.4179C235.657 24.4396 235.43 24.4396 235.17 24.4179C235.083 23.551 234.964 22.9442 234.812 22.5975C234.66 22.229 234.411 22.0015 234.064 21.9148C233.718 21.8281 233.197 21.7848 232.504 21.7848H228.896V31.9923H233.219C233.999 31.9923 234.66 31.9489 235.202 31.8622C235.766 31.7539 236.199 31.548 236.502 31.2446C236.719 31.0279 236.947 30.6811 237.185 30.2043C237.445 29.7275 237.705 29.1641 237.965 28.5139C238.16 28.4922 238.366 28.4922 238.583 28.5139C238.41 29.3808 238.258 30.2152 238.128 31.017C238.019 31.8189 237.933 32.4799 237.868 33C237.153 33 236.329 33 235.397 33C234.465 33 233.523 33 232.569 33C231.615 32.9783 230.749 32.9675 229.968 32.9675C229.188 32.9675 228.592 32.9675 228.18 32.9675C227.444 32.9675 226.837 32.9783 226.36 33C225.905 33 225.504 33 225.157 33C224.81 33.0217 224.42 33.0325 223.987 33.0325Z" fill="#DF8600"/>
</svg>
