<svg width="60" height="60" viewBox="0 0 60 60" fill="none" xmlns="http://www.w3.org/2000/svg">
  <path
      d="M10 30C10 20.5719 10 15.8579 12.9289 12.9289C15.8579 10 20.5719 10 30 10C39.4281 10 44.1421 10 47.0711 12.9289C50 15.8579 50 20.5719 50 30C50 39.4281 50 44.1421 47.0711 47.0711C44.1421 50 39.4281 50 30 50C20.5719 50 15.8579 50 12.9289 47.0711C10 44.1421 10 39.4281 10 30Z"
      stroke="#54D7E4" stroke-width="2.42424"/>
  <path d="M10 30H5" stroke="#54D7E4" stroke-width="2.42424" stroke-linecap="round"/>
  <path d="M55 30H50" stroke="#54D7E4" stroke-width="2.42424" stroke-linecap="round"/>
  <path d="M10 22.5H5" stroke="#54D7E4" stroke-width="2.42424" stroke-linecap="round"/>
  <path d="M55 22.5H50" stroke="#54D7E4" stroke-width="2.42424" stroke-linecap="round"/>
  <path d="M10 37.5H5" stroke="#54D7E4" stroke-width="2.42424" stroke-linecap="round"/>
  <path d="M55 37.5H50" stroke="#54D7E4" stroke-width="2.42424" stroke-linecap="round"/>
  <path d="M30 50L30 55" stroke="#54D7E4" stroke-width="2.42424" stroke-linecap="round"/>
  <path d="M30 5L30 10" stroke="#54D7E4" stroke-width="2.42424" stroke-linecap="round"/>
  <path d="M22.5 50L22.5 55" stroke="#54D7E4" stroke-width="2.42424" stroke-linecap="round"/>
  <path d="M22.5 5L22.5 10" stroke="#54D7E4" stroke-width="2.42424" stroke-linecap="round"/>
  <path d="M37.5 50L37.5 55" stroke="#54D7E4" stroke-width="2.42424" stroke-linecap="round"/>
  <path d="M37.5 5L37.5 10" stroke="#54D7E4" stroke-width="2.42424" stroke-linecap="round"/>
  <path
      d="M26.5684 23.7119C28.9709 23.712 30.9219 25.6638 30.9219 28.0664V36.1875C30.9219 36.2882 30.885 36.3611 30.8359 36.4102C30.7869 36.4591 30.7139 36.4961 30.6133 36.4961C30.5127 36.496 30.4396 36.4591 30.3906 36.4102C30.3417 36.3611 30.3047 36.2881 30.3047 36.1875V32.8467H22.8008V36.1875C22.8008 36.2882 22.7639 36.3611 22.7148 36.4102C22.6682 36.4567 22.6 36.4908 22.5068 36.4941C22.4144 36.4904 22.3462 36.4565 22.2998 36.4102C22.2509 36.3611 22.2139 36.2881 22.2139 36.1875V28.0664C22.2139 25.6638 24.1657 23.7119 26.5684 23.7119ZM26.5078 24.3291C24.4392 24.3291 22.7705 25.9978 22.7705 28.0664V32.2285H30.2744V28.0664C30.2744 25.9979 28.6066 24.3293 26.5381 24.3291H26.5078Z"
      fill="#54D7E4" stroke="#54D7E4" stroke-width="2.42424"/>
  <path
      d="M37.0928 23.7119C37.1933 23.7119 37.2664 23.749 37.3154 23.7979C37.3644 23.8468 37.4013 23.92 37.4014 24.0205V36.1875C37.4014 36.2882 37.3645 36.3611 37.3154 36.4102C37.2664 36.4591 37.1934 36.4961 37.0928 36.4961C36.9922 36.496 36.9191 36.4591 36.8701 36.4102C36.8212 36.3611 36.7842 36.2881 36.7842 36.1875V24.0205C36.7843 23.92 36.8211 23.8468 36.8701 23.7979C36.9191 23.7489 36.9922 23.712 37.0928 23.7119Z"
      fill="#54D7E4" stroke="#54D7E4" stroke-width="2.42424"/>
</svg>
