<svg width="134" height="105" viewBox="0 0 134 105" fill="none" xmlns="http://www.w3.org/2000/svg">
  <g clip-path="url(#clip0_4384_35499)">
    <path
        d="M130.316 62.1718C131.837 71.2922 131.091 80.9179 127.692 90.232C117.179 119.006 85.285 133.86 56.4585 123.41C47.1335 120.029 39.2658 114.411 33.25 107.383"
        stroke="#F7FCFC" stroke-opacity="0.38" stroke-width="1.45516" stroke-miterlimit="10"/>
    <path
        d="M20.6716 80.4373C19.1504 71.3169 19.8966 61.6912 23.2956 52.3771C33.8079 23.6027 65.7023 8.7493 94.5244 19.207C103.849 22.5875 111.717 28.2053 117.733 35.2332"
        stroke="#F7FCFC" stroke-opacity="0.38" stroke-width="1.45516" stroke-miterlimit="10"/>
    <path
        d="M25.1748 78.8022C23.9675 70.7096 24.7079 62.2101 27.7117 53.9796C37.3388 27.6407 66.5262 14.043 92.9188 23.6117C101.116 26.5851 108.075 31.443 113.495 37.5123"
        stroke="#F7FCFC" stroke-opacity="0.38" stroke-width="1.45516" stroke-miterlimit="10"/>
    <path
        d="M125.833 63.9483C127.009 71.998 126.26 80.4422 123.269 88.6246C113.642 114.963 84.4547 128.561 58.0621 118.993C49.8092 116.002 42.8116 111.097 37.3822 104.966"
        stroke="#F7FCFC" stroke-opacity="0.38" stroke-width="1.45516" stroke-miterlimit="10"/>
    <path
        d="M47.2248 67.6414C47.4908 65.621 47.9864 63.5967 48.7135 61.5998C54.1062 46.8373 70.4668 39.22 85.256 44.5808C87.5556 45.4152 89.6747 46.5089 91.6038 47.826"
        stroke="#F7FCFC" stroke-opacity="0.38" stroke-width="1.45516" stroke-miterlimit="10"/>
    <path
        d="M103.815 74.5126C103.565 76.6884 103.052 78.8643 102.269 81.0104C96.8762 95.7729 80.5156 103.39 65.7264 98.0295C63.7258 97.3066 61.8555 96.3763 60.1342 95.2847"
        stroke="#F7FCFC" stroke-opacity="0.38" stroke-width="1.45516" stroke-miterlimit="10"/>
    <path d="M13.9439 83.5689L124.453 32.0965" stroke="#F7FCFC" stroke-opacity="0.38" stroke-width="1.45516"
          stroke-miterlimit="10"/>
    <path d="M26.5259 110.508L137.035 59.036" stroke="#F7FCFC" stroke-opacity="0.38" stroke-width="1.45516"
          stroke-miterlimit="10"/>
    <path
        d="M25.7075 86.5085C26.5898 86.86 27.3124 87.6441 27.8755 88.8608L28.7822 90.8097C29.3512 92.0248 29.4869 93.0812 29.1892 93.9789C28.8992 94.881 28.1633 95.6022 26.991 96.1527L25.8752 96.6754L28.5046 102.304L26.1403 103.404L19.146 88.42L22.6201 86.799C23.7941 86.2544 24.8192 86.1586 25.7015 86.5101L25.7075 86.5085ZM24.8783 94.5333L25.9957 94.0166C26.3831 93.8362 26.6193 93.5939 26.718 93.2927C26.8091 92.9871 26.7379 92.578 26.4985 92.0671L25.4474 89.8181C25.2064 89.3012 24.9415 88.9823 24.6469 88.8632C24.3507 88.7381 24.0119 88.7649 23.6305 88.9438L22.5131 89.4605L24.8783 94.5333Z"
        fill="#F7FCFC" fill-opacity="0.38"/>
    <path
        d="M39.6003 97.1318L37.9233 94.6033L35.0242 95.9552L35.8864 98.8619L33.7157 99.8716L29.126 83.7708L32.5838 82.1605L41.981 96.021L39.6003 97.1318ZM36.6559 92.719L31.9802 85.6708L34.3765 93.7771L36.6543 92.713L36.6559 92.719Z"
        fill="#F7FCFC" fill-opacity="0.38"/>
    <path
        d="M42.6965 77.4517L43.6934 79.5938L41.2263 80.7405L47.2237 93.5821L44.8654 94.6805L38.868 81.8389L36.4009 82.9856L35.404 80.8436L42.7009 77.4442L42.6965 77.4517Z"
        fill="#F7FCFC" fill-opacity="0.38"/>
    <path
        d="M52.2726 80.6742L53.2694 82.8163L50.0277 84.324L52.074 88.709L56.153 86.8109L57.1499 88.9529L50.7126 91.9495L43.7183 76.9658L50.1556 73.9692L51.1525 76.1113L47.0735 78.0095L49.0248 82.1835L52.2666 80.6758L52.2726 80.6742Z"
        fill="#F7FCFC" fill-opacity="0.38"/>
    <path
        d="M60.7236 87.2939L58.5993 88.2849L51.605 73.3012L54.5666 71.9197L61.178 79.7593L56.9935 70.7902L59.0956 69.8116L66.0898 84.7952L63.663 85.9248L55.6576 76.4457L60.7236 87.2939Z"
        fill="#F7FCFC" fill-opacity="0.38"/>
    <path
        d="M67.3999 65.9427L68.3967 68.0847L65.9296 69.2314L71.927 82.0731L69.5628 83.1731L63.5653 70.3314L61.0983 71.4782L60.0954 69.3377L67.3923 65.9383L67.3999 65.9427Z"
        fill="#F7FCFC" fill-opacity="0.38"/>
    <path
        d="M78.3148 62.0082C79.1911 62.3613 79.9197 63.1438 80.4828 64.3604L81.3895 66.3094C81.9585 67.5244 82.0942 68.5808 81.7966 69.4786C81.4989 70.3763 80.7706 71.1018 79.5983 71.6524L78.4825 72.175L81.1119 77.8034L78.7536 78.9018L71.7593 63.9181L75.2334 62.297C76.4074 61.7524 77.4325 61.6567 78.3148 62.0082ZM77.484 70.027L78.5998 69.5044C78.9872 69.3239 79.2234 69.0817 79.3221 68.7804C79.4132 68.4749 79.342 68.0658 79.1026 67.5548L78.0515 65.3059C77.8121 64.7949 77.5472 64.476 77.251 64.3509C76.9548 64.2258 76.616 64.2527 76.2346 64.4315L75.1188 64.9542L77.49 70.0254L77.484 70.027Z"
        fill="#F7FCFC" fill-opacity="0.38"/>
    <path
        d="M88.5088 63.8008L89.5056 65.9429L86.2639 67.4506L88.3102 71.8356L92.3892 69.9375L93.3921 72.0779L86.9548 75.0745L79.9605 60.0908L86.3978 57.0942L87.4006 59.2347L83.3216 61.1329L85.273 65.3069L88.5148 63.7992L88.5088 63.8008Z"
        fill="#F7FCFC" fill-opacity="0.38"/>
    <path
        d="M96.9522 70.4209L94.8278 71.4118L87.8335 56.4282L90.7952 55.0467L97.4065 62.8863L93.222 53.9171L95.3241 52.9385L102.318 67.9222L99.8915 69.0517L91.8862 59.5727L96.9522 70.4209Z"
        fill="#F7FCFC" fill-opacity="0.38"/>
    <path
        d="M100.758 50.4089C101.932 49.8643 102.957 49.7685 103.84 50.12C104.716 50.4731 105.445 51.2556 106.008 52.4723L109.544 60.0496C110.111 61.2587 110.249 62.321 109.951 63.2187C109.655 64.1224 108.925 64.842 107.753 65.3926L104.016 67.135L97.0221 52.1513L100.758 50.4089ZM105.376 63.8886L106.71 63.2693C107.097 63.0888 107.338 62.839 107.442 62.5107C107.54 62.1841 107.473 61.7674 107.234 61.2564L103.595 53.4638C103.356 52.9528 103.076 52.6253 102.766 52.4974C102.455 52.3635 102.102 52.3877 101.715 52.5681L100.382 53.1874L105.376 63.8886Z"
        fill="#F7FCFC" fill-opacity="0.38"/>
    <path d="M108.141 46.9681L115.135 61.9517L112.771 63.0517L105.777 48.0681L108.135 46.9697L108.141 46.9681Z"
          fill="#F7FCFC" fill-opacity="0.38"/>
    <path
        d="M118.952 60.1748L116.828 61.1658L109.834 46.1821L112.795 44.8006L119.407 52.6402L115.222 43.6711L117.324 42.6924L124.318 57.6761L121.891 58.8057L113.886 49.3266L118.952 60.1748Z"
        fill="#F7FCFC" fill-opacity="0.38"/>
    <path
        d="M128.966 45.3505L131.188 50.1039C131.755 51.313 131.89 52.3889 131.588 53.3196C131.292 54.2487 130.566 54.9802 129.426 55.5093C128.286 56.0383 127.258 56.1221 126.353 55.7576C125.446 55.387 124.716 54.5986 124.147 53.3835L120.509 45.5909C119.94 44.3758 119.807 43.3059 120.102 42.3768C120.398 41.4476 121.119 40.7177 122.263 40.1811C123.408 39.6505 124.431 39.5682 125.336 39.9328C126.242 40.3034 126.973 41.0918 127.542 42.3069L128.22 43.7612L125.986 44.8005L125.235 43.1932C124.774 42.2114 124.141 41.908 123.321 42.2877C122.506 42.6658 122.325 43.3533 122.786 44.3351L126.562 52.4234C127.014 53.3949 127.651 53.6908 128.464 53.3067C129.279 52.9286 129.463 52.253 129.011 51.2815L127.72 48.5216L126.649 49.0195L125.646 46.879L128.951 45.3418L128.966 45.3505Z"
        fill="#F7FCFC" fill-opacity="0.38"/>
    <path
        d="M58.5201 102.727C58.6016 103.127 58.4903 103.572 58.186 104.063L57.6989 104.851C57.3947 105.342 57.0453 105.64 56.6523 105.752C56.2578 105.857 55.824 105.769 55.3479 105.475L54.8962 105.2L53.4832 107.483L52.5251 106.896L56.2873 100.827L57.6913 101.69C58.1673 101.984 58.4445 102.326 58.5217 102.733L58.5201 102.727ZM55.4271 104.335L55.8788 104.611C56.0335 104.71 56.181 104.734 56.3125 104.699C56.444 104.664 56.5771 104.539 56.6998 104.327L57.2629 103.415C57.3931 103.208 57.4429 103.035 57.4197 102.901C57.3965 102.766 57.3075 102.649 57.1468 102.552L56.6951 102.277L55.4195 104.331L55.4271 104.335Z"
        fill="#F7FCFC" fill-opacity="0.38"/>
    <path
        d="M60.6274 111.091L60.9476 109.823L59.6722 109.295L58.9924 110.417L58.0403 110.02L61.8372 103.865L63.3574 104.493L61.6715 111.52L60.6258 111.085L60.6274 111.091ZM61.1798 108.872L62.0636 105.332L60.1779 108.457L61.1798 108.872Z"
        fill="#F7FCFC" fill-opacity="0.38"/>
    <path
        d="M69.5224 106.292L69.2818 107.283L68.138 107.008L66.6943 112.954L65.6048 112.69L67.0485 106.744L65.9048 106.468L66.1454 105.477L69.5208 106.286L69.5224 106.292Z"
        fill="#F7FCFC" fill-opacity="0.38"/>
    <path
        d="M93.8533 102.526C94.2412 102.659 94.5706 102.979 94.8356 103.49L95.2661 104.308C95.537 104.817 95.6194 105.267 95.5088 105.668C95.4025 106.06 95.1002 106.391 94.6061 106.651L94.1343 106.899L95.3899 109.265L94.3957 109.787L91.0604 103.485L92.5265 102.716C93.0206 102.455 93.4578 102.389 93.8473 102.528L93.8533 102.526ZM93.6694 106.001L94.1412 105.753C94.305 105.671 94.4038 105.561 94.4376 105.424C94.4714 105.287 94.4327 105.119 94.3165 104.901L93.8134 103.956C93.6973 103.737 93.5796 103.609 93.4513 103.561C93.3229 103.512 93.1746 103.532 93.0124 103.621L92.5406 103.868L93.6694 106.001Z"
        fill="#F7FCFC" fill-opacity="0.38"/>
    <path
        d="M99.792 101.562L100.401 102.376L99.1671 103.295L100.416 104.967L101.97 103.809L102.579 104.624L100.122 106.451L95.849 100.74L98.3066 98.9116L98.9157 99.7261L97.3613 100.884L98.5504 102.476L99.7844 101.557L99.792 101.562Z"
        fill="#F7FCFC" fill-opacity="0.38"/>
    <path
        d="M105.885 101.634L105.182 102.359L100.039 97.4173L101.016 96.4014L104.899 98.5305L101.819 95.5727L102.512 94.8568L107.655 99.7988L106.851 100.627L102.151 98.0528L105.879 101.636L105.885 101.634Z"
        fill="#F7FCFC" fill-opacity="0.38"/>
    <path
        d="M105.018 91.5327C105.331 91.072 105.696 90.8081 106.097 90.7517C106.503 90.6877 106.942 90.8193 107.42 91.1449L110.405 93.1759C110.883 93.5015 111.165 93.8605 111.253 94.2588C111.34 94.6572 111.232 95.0888 110.912 95.5452L109.907 97.0093L104.006 92.9925L105.011 91.5284L105.018 91.5327ZM109.704 95.5108L110.064 94.9864C110.171 94.8363 110.202 94.6875 110.169 94.5428C110.131 94.3997 110.016 94.2579 109.813 94.1207L106.747 92.0282C106.543 91.891 106.368 91.8357 106.224 91.8487C106.076 91.8692 105.951 91.9537 105.852 92.1082L105.493 92.6327L109.709 95.5033L109.704 95.5108Z"
        fill="#F7FCFC" fill-opacity="0.38"/>
    <path d="M107.608 87.0445L113.999 90.2336L113.492 91.2383L107.102 88.0492L107.608 87.0445Z" fill="#F7FCFC"
          fill-opacity="0.38"/>
    <path
        d="M115.734 86.1385L115.407 87.0951L108.643 84.8051L109.1 83.4748L113.519 83.7541L109.468 82.3856L109.792 81.4425L116.556 83.7325L116.182 84.8233L110.832 84.4868L115.735 86.1444L115.734 86.1385Z"
        fill="#F7FCFC" fill-opacity="0.38"/>
    <path
        d="M114.017 76.4124L116.255 76.7777C116.825 76.8741 117.24 77.0825 117.496 77.4165C117.752 77.7505 117.842 78.1802 117.748 78.7165C117.655 79.2527 117.437 79.6369 117.082 79.8662C116.727 80.0955 116.266 80.168 115.696 80.0716L112.03 79.4691C111.459 79.3728 111.044 79.1644 110.788 78.8304C110.532 78.4964 110.443 78.0667 110.536 77.5304C110.624 76.9958 110.847 76.61 111.202 76.3807C111.557 76.1513 112.018 76.0789 112.589 76.1753L113.272 76.2862L113.097 77.33L112.34 77.2069C111.878 77.1326 111.611 77.287 111.547 77.6685C111.483 78.05 111.684 78.2771 112.148 78.3574L115.956 78.9858C116.412 79.0617 116.672 78.9089 116.736 78.5274C116.801 78.1459 116.605 77.9172 116.149 77.8413L114.849 77.6274L114.765 78.129L113.76 77.9639L114.018 76.4184L114.017 76.4124Z"
        fill="#F7FCFC" fill-opacity="0.38"/>
    <path
        d="M33.1617 63.1291C33.5047 62.903 33.9631 62.8441 34.5276 62.9421L35.4412 63.0999C36.0117 63.1962 36.4219 63.4122 36.6688 63.7359C36.9158 64.0595 36.9949 64.4984 36.8987 65.0482L36.8081 65.5709L39.4543 66.0249L39.2635 67.1304L32.2221 65.9115L32.5034 64.2832C32.5996 63.7335 32.817 63.3493 33.1601 63.1232L33.1617 63.1291ZM35.7996 65.3938L35.8902 64.8711C35.9188 64.6909 35.8924 64.5446 35.8126 64.4382C35.7269 64.3333 35.565 64.2553 35.3226 64.2116L34.2675 64.0278C34.0251 63.9841 33.8437 64.0008 33.7294 64.0762C33.615 64.1515 33.539 64.2742 33.5044 64.456L33.4138 64.9787L35.798 65.3879L35.7996 65.3938Z"
        fill="#F7FCFC" fill-opacity="0.38"/>
    <path
        d="M41.228 59.2251L39.9364 58.996L39.4907 60.2977L40.6577 60.8988L40.3222 61.8706L33.9273 58.4974L34.459 56.9426L41.5949 58.1554L41.228 59.2251ZM38.9745 58.8256L35.3796 58.1785L38.6279 59.8515L38.9761 58.8316L38.9745 58.8256Z"
        fill="#F7FCFC" fill-opacity="0.38"/>
    <path
        d="M37.6544 49.9828L38.561 50.4491L38.0195 51.4889L43.4523 54.3083L42.9311 55.3043L37.4983 52.4849L36.9567 53.5246L36.0501 53.0582L37.6544 49.9828Z"
        fill="#F7FCFC" fill-opacity="0.38"/>
    <path
        d="M43.4315 46.7666L44.2577 47.3632L43.3488 48.61L45.0423 49.8369L46.1862 48.2715L47.0124 48.8681L45.2093 51.345L39.4242 47.163L41.2273 44.686L42.0536 45.2826L40.9156 46.8464L42.5286 48.0118L43.4375 46.765L43.4315 46.7666Z"
        fill="#F7FCFC" fill-opacity="0.38"/>
    <path
        d="M49.3164 46.2772L48.5985 46.9936L43.5499 41.9496L44.5455 40.9543L48.3848 43.1591L45.3594 40.1419L46.0669 39.4347L51.1155 44.4787L50.2956 45.2927L45.6473 42.6273L49.3044 46.2804L49.3164 46.2772Z"
        fill="#F7FCFC" fill-opacity="0.38"/>
    <path
        d="M51.4449 35.213L52.0436 36.0367L51.0941 36.7257L54.6925 41.6662L53.7861 42.3244L50.1877 37.3839L49.2382 38.0729L48.6395 37.2492L51.4509 35.2114L51.4449 35.213Z"
        fill="#F7FCFC" fill-opacity="0.38"/>
    <path
        d="M60.8468 30.9367C61.2188 31.1054 61.5128 31.4612 61.7331 31.9965L62.0847 32.8544C62.305 33.3897 62.338 33.8474 62.1911 34.2318C62.0442 34.6162 61.7127 34.9095 61.1983 35.1177L60.7077 35.3194L61.7191 37.8027L60.6798 38.2281L57.9821 31.6276L59.5136 31.0064C60.028 30.7982 60.4764 30.7739 60.844 30.9502L60.8468 30.9367ZM60.3201 34.3752L60.8107 34.1735C60.9777 34.1032 61.0916 34.0024 61.1346 33.8758C61.1836 33.7477 61.1611 33.5684 61.069 33.3439L60.6626 32.3536C60.5705 32.1291 60.4616 31.9857 60.336 31.9235C60.2104 31.8613 60.0649 31.8683 59.8979 31.9386L59.4074 32.1404L60.3201 34.3752Z"
        fill="#F7FCFC" fill-opacity="0.38"/>
    <path
        d="M67.6437 31.6266L67.8834 32.6168L66.3853 32.9799L66.8714 35.0095L68.7554 34.5559L68.9951 35.5461L66.0151 36.2614L64.3493 29.3269L67.3292 28.6116L67.5689 29.6017L65.679 30.057L66.1456 31.9897L67.6437 31.6266Z"
        fill="#F7FCFC" fill-opacity="0.38"/>
    <path
        d="M72.4288 35.0672L71.4184 35.1462L70.8709 28.0335L72.2771 27.9251L73.7585 32.0908L73.4313 27.8331L74.4298 27.7572L74.9773 34.87L73.829 34.9604L72.0362 29.9195L72.4364 35.0715L72.4288 35.0672Z"
        fill="#F7FCFC" fill-opacity="0.38"/>
    <path
        d="M79.9287 27.9269C80.4864 27.9756 80.8887 28.1618 81.14 28.4779C81.3929 28.7999 81.4931 29.2459 81.4424 29.8219L81.1299 33.4139C81.0792 33.9899 80.9044 34.4137 80.5996 34.6871C80.2949 34.9605 79.8644 35.0758 79.3084 35.0331L77.5377 34.8813L78.1521 27.7767L79.9228 27.9285L79.9287 27.9269ZM78.7462 33.9632L79.376 34.0181C79.5593 34.0329 79.7028 33.9944 79.8092 33.8892C79.9155 33.7841 79.9804 33.6197 80.005 33.3767L80.3219 29.6812C80.3465 29.4382 80.3105 29.2561 80.2216 29.1393C80.1326 29.0226 79.9994 28.956 79.8161 28.9412L79.1863 28.8863L78.7462 33.9632Z"
        fill="#F7FCFC" fill-opacity="0.38"/>
    <path d="M86.0897 28.902L84.5545 35.8699L83.4594 35.6329L84.9947 28.6651L86.0897 28.902Z" fill="#F7FCFC"
          fill-opacity="0.38"/>
    <path
        d="M88.0602 36.8729L87.109 36.527L89.5611 29.8247L90.8823 30.3078L90.4989 34.7113L91.9679 30.7007L92.9056 31.0438L90.4535 37.7461L89.3679 37.3532L89.8294 32.0214L88.0542 36.8745L88.0602 36.8729Z"
        fill="#F7FCFC" fill-opacity="0.38"/>
    <path
        d="M97.5709 36.932L96.4666 38.9085C96.1851 39.4121 95.8421 39.7341 95.4404 39.8609C95.0402 39.9936 94.5994 39.9265 94.1253 39.6637C93.6512 39.4009 93.3621 39.063 93.2654 38.6544C93.1687 38.2457 93.2573 37.7874 93.5389 37.2838L95.3492 34.0445C95.6307 33.5409 95.9737 33.219 96.3754 33.0921C96.7755 32.9594 97.2164 33.0266 97.6905 33.2893C98.1646 33.5521 98.4537 33.89 98.5504 34.2987C98.6471 34.7073 98.5585 35.1656 98.2769 35.6692L97.94 36.2771L97.013 35.7586L97.3849 35.0902C97.6155 34.6834 97.5595 34.3788 97.2218 34.1945C96.8825 34.0043 96.5992 34.1186 96.3686 34.5254L94.4899 37.8917C94.2653 38.297 94.318 38.5896 94.6573 38.7798C94.9967 38.9701 95.2816 38.8618 95.5062 38.4565L96.1465 37.3072L95.7011 37.0559L96.2001 36.1682L97.5709 36.932Z"
        fill="#F7FCFC" fill-opacity="0.38"/>
  </g>
  <defs>
    <clipPath id="clip0_4384_35499">
      <rect width="125.778" height="113.94" fill="white" transform="translate(0 32.5547) rotate(-15)"/>
    </clipPath>
  </defs>
</svg>
