<svg width="60" height="60" viewBox="0 0 60 60" fill="none" xmlns="http://www.w3.org/2000/svg">
  <circle cx="30.002" cy="30" r="7.5" stroke="#00C4D6" stroke-width="2.5"/>
  <path
      d="M34.4117 54.6194C33.4928 55 32.328 55 29.9983 55C27.6686 55 26.5037 55 25.5848 54.6194C24.3597 54.1119 23.3863 53.1386 22.8789 51.9134C22.6472 51.3542 22.5566 50.7038 22.5211 49.7552C22.4689 48.3609 21.7539 47.0702 20.5455 46.3726C19.3372 45.675 17.862 45.701 16.6284 46.353C15.7891 46.7966 15.1805 47.0433 14.5804 47.1223C13.2656 47.2954 11.936 46.9391 10.8839 46.1318C10.0949 45.5264 9.51248 44.5176 8.34763 42.5C7.18277 40.4824 6.60035 39.4736 6.47053 38.4876C6.29744 37.1728 6.65372 35.8432 7.46099 34.7911C7.82949 34.3109 8.34741 33.9072 9.15125 33.4021C10.3327 32.6598 11.0929 31.3953 11.0929 30.0001C11.093 28.6046 10.3328 27.34 9.15126 26.5976C8.34755 26.0926 7.8297 25.6889 7.46123 25.2087C6.65396 24.1567 6.29769 22.827 6.47077 21.5123C6.60059 20.5262 7.18302 19.5174 8.34787 17.4998C9.51273 15.4822 10.0952 14.4735 10.8842 13.868C11.9362 13.0607 13.2659 12.7045 14.5806 12.8775C15.1808 12.9566 15.7894 13.2033 16.6288 13.6469C17.8623 14.2989 19.3374 14.3249 20.5457 13.6273C21.7539 12.9297 22.4689 11.6392 22.5211 10.245C22.5566 9.29625 22.6472 8.64585 22.8789 8.08658C23.3863 6.86144 24.3597 5.88807 25.5848 5.3806C26.5037 5 27.6686 5 29.9983 5C32.328 5 33.4928 5 34.4117 5.3806C35.6368 5.88807 36.6102 6.86144 37.1177 8.08658C37.3493 8.64583 37.44 9.29619 37.4755 10.2448C37.5276 11.6392 38.2426 12.9298 39.451 13.6274C40.6593 14.325 42.1346 14.299 43.3681 13.647C44.2074 13.2034 44.816 12.9567 45.4161 12.8777C46.7309 12.7046 48.0605 13.0609 49.1126 13.8682C49.9016 14.4736 50.4841 15.4824 51.6489 17.5C52.8138 19.5176 53.3962 20.5264 53.526 21.5124C53.6991 22.8272 53.3428 24.1568 52.5355 25.2089C52.167 25.6891 51.6491 26.0929 50.8451 26.598C49.6638 27.3402 48.9037 28.6046 48.9036 29.9998C48.9035 31.3951 49.6637 32.6597 50.8451 33.402C51.6489 33.907 52.5 34.4995 51.5353 35.791"
      stroke="#00C4D6" stroke-width="2.5" stroke-linecap="round" stroke-linejoin="round"/>
  <path
      d="M42 54.2433C42 55.0185 42.8439 55.4989 43.5105 55.1031L56.5518 47.3599C57.2044 46.9724 57.2044 46.0276 56.5518 45.6401L43.5105 37.8969C42.8439 37.5011 42 37.9815 42 38.7567V54.2433Z"
      stroke="#00C4D6" stroke-width="2.5" stroke-linecap="round" stroke-linejoin="round"/>
</svg>
