<svg width="60" height="60" viewBox="0 0 60 60" fill="none" xmlns="http://www.w3.org/2000/svg">
  <path
      d="M27.8649 17.5563C28.8149 15.8521 29.2899 15 30 15C30.7101 15 31.1851 15.8521 32.1351 17.5563L32.3809 17.9972C32.6509 18.4815 32.7858 18.7236 32.9963 18.8834C33.2068 19.0431 33.4689 19.1024 33.9931 19.221L34.4703 19.329C36.3151 19.7464 37.2375 19.9551 37.4569 20.6608C37.6764 21.3665 37.0476 22.1018 35.7899 23.5724L35.4646 23.9529C35.1072 24.3708 34.9285 24.5798 34.8481 24.8383C34.7677 25.0968 34.7947 25.3756 34.8488 25.9332L34.898 26.4408C35.0881 28.4029 35.1832 29.384 34.6086 29.8202C34.0341 30.2563 33.1705 29.8587 31.4432 29.0634L30.9964 28.8576C30.5056 28.6316 30.2601 28.5186 30 28.5186C29.7399 28.5186 29.4944 28.6316 29.0036 28.8576L28.5568 29.0634C26.8295 29.8587 25.9659 30.2563 25.3914 29.8202C24.8168 29.384 24.9119 28.403 25.102 26.4408L25.1512 25.9332C25.2053 25.3756 25.2323 25.0968 25.1519 24.8383C25.0715 24.5798 24.8928 24.3708 24.5354 23.9529L24.2101 23.5724C22.9524 22.1018 22.3236 21.3665 22.5431 20.6608C22.7625 19.9551 23.6849 19.7464 25.5297 19.329L26.0069 19.221C26.5311 19.1024 26.7932 19.0431 27.0037 18.8834C27.2142 18.7236 27.3491 18.4815 27.6191 17.9972L27.8649 17.5563Z"
      stroke="#00C4D6" stroke-width="2.5"/>
  <path
      d="M47.5 22.5C47.5 32.165 39.665 40 30 40C20.335 40 12.5 32.165 12.5 22.5C12.5 12.835 20.335 5 30 5C39.665 5 47.5 12.835 47.5 22.5Z"
      stroke="#00C4D6" stroke-width="2.5"/>
  <path
      d="M30 40.1696L20.5714 49.932C19.2211 51.3301 18.5459 52.0292 17.9742 52.2711C16.6713 52.8223 15.2261 52.3506 14.5407 51.1504C14.2399 50.6237 14.1462 49.6737 13.9588 47.7737C13.8529 46.7009 13.8 46.1645 13.6394 45.7152C13.2798 44.7095 12.5241 43.9271 11.5528 43.5547C11.1189 43.3884 10.6008 43.3336 9.56473 43.224C7.72967 43.03 6.81214 42.9329 6.30345 42.6215C5.14429 41.9119 4.68869 40.4155 5.22107 39.0665C5.4547 38.4745 6.12985 37.7754 7.48014 36.3773L13.6394 30"
      stroke="#00C4D6" stroke-width="2.5"/>
  <path
      d="M30 40.1696L39.4286 49.932C40.7789 51.3301 41.4541 52.0292 42.0258 52.2711C43.3287 52.8223 44.7739 52.3506 45.4593 51.1504C45.7601 50.6237 45.8538 49.6737 46.0412 47.7737C46.1471 46.7009 46.2 46.1645 46.3606 45.7152C46.7202 44.7095 47.4759 43.9271 48.4472 43.5547C48.8811 43.3884 49.3992 43.3336 50.4353 43.224C52.2703 43.03 53.1879 42.9329 53.6965 42.6215C54.8557 41.9119 55.3113 40.4155 54.7789 39.0665C54.5453 38.4745 53.8702 37.7754 52.5199 36.3773L46.3606 30"
      stroke="#00C4D6" stroke-width="2.5"/>
</svg>
