<svg width="20" height="18" viewBox="0 0 20 18" fill="none" xmlns="http://www.w3.org/2000/svg">
  <path
      d="M3.07274 16.4948C2.67435 17.1567 3.15106 18 3.92361 18H4.13329C4.48164 18 4.80453 17.8175 4.98416 17.519L8.16372 12.2363C8.25678 12.0817 8.30596 11.9046 8.30596 11.7242V0.993103C8.30596 0.444627 7.86133 0 7.31285 0H0.993103C0.444627 0 0 0.444628 0 0.993104V11.0069C0 11.5554 0.444628 12 0.993104 12H4.02122C4.79376 12 5.27048 12.8433 4.87209 13.5052L3.07274 16.4948ZM14.6288 16.4948C14.2305 17.1567 14.7072 18 15.4797 18H15.6894C16.0378 18 16.3606 17.8175 16.5403 17.519L19.7198 12.2363C19.8129 12.0817 19.8621 11.9046 19.8621 11.7242V0.993103C19.8621 0.444627 19.4174 0 18.869 0H12.5492C12.0007 0 11.5561 0.444628 11.5561 0.993104V11.0069C11.5561 11.5554 12.0007 12 12.5492 12H15.5773C16.3499 12 16.8266 12.8433 16.4282 13.5052L14.6288 16.4948Z"
      fill="#00808C"/>
</svg>
