<svg width="32" height="32" viewBox="0 0 32 32" fill="none" xmlns="http://www.w3.org/2000/svg">
  <g clip-path="url(#clip0_3998_121)">
    <path
        d="M8.00008 5.33337H13.3334C13.687 5.33337 14.0262 5.47385 14.2762 5.7239C14.5263 5.97395 14.6667 6.31309 14.6667 6.66671V25.3334C14.6667 25.687 14.5263 26.0261 14.2762 26.2762C14.0262 26.5262 13.687 26.6667 13.3334 26.6667H8.00008C7.64646 26.6667 7.30732 26.5262 7.05727 26.2762C6.80722 26.0261 6.66675 25.687 6.66675 25.3334V6.66671C6.66675 6.31309 6.80722 5.97395 7.05727 5.7239C7.30732 5.47385 7.64646 5.33337 8.00008 5.33337Z"
        stroke="#00808C" stroke-width="2" stroke-linecap="round" stroke-linejoin="round"/>
    <path d="M21.3333 13.3334L26.6666 18.6667" stroke="#00808C" stroke-width="2" stroke-linecap="round"
          stroke-linejoin="round"/>
    <path d="M21.3333 18.6667L26.6666 13.3334" stroke="#00808C" stroke-width="2" stroke-linecap="round"
          stroke-linejoin="round"/>
  </g>
  <defs>
    <clipPath id="clip0_3998_121">
      <rect width="32" height="32" fill="white"/>
    </clipPath>
  </defs>
</svg>
