<svg width="32" height="32" viewBox="0 0 32 32" fill="none" xmlns="http://www.w3.org/2000/svg">
  <g clip-path="url(#clip0_3998_161)">
    <path
        d="M15.9999 26.6667H7.99992C7.29267 26.6667 6.6144 26.3858 6.1143 25.8857C5.6142 25.3856 5.33325 24.7073 5.33325 24V8.00004C5.33325 7.2928 5.6142 6.61452 6.1143 6.11442C6.6144 5.61433 7.29267 5.33337 7.99992 5.33337H15.9999"
        stroke="#00808C" stroke-width="2" stroke-linecap="round" stroke-linejoin="round"/>
    <path d="M24 18.6666V28" stroke="#00808C" stroke-width="2" stroke-linecap="round" stroke-linejoin="round"/>
    <path d="M24 4V13.3333" stroke="#00808C" stroke-width="2" stroke-linecap="round" stroke-linejoin="round"/>
    <path d="M20 24L24 28L28 24" stroke="#00808C" stroke-width="2" stroke-linecap="round" stroke-linejoin="round"/>
    <path d="M20 8L24 4L28 8" stroke="#00808C" stroke-width="2" stroke-linecap="round" stroke-linejoin="round"/>
    <path d="M6.66675 13.3334H16.0001" stroke="#00808C" stroke-width="1.33333" stroke-linecap="round"
          stroke-linejoin="round"/>
    <path d="M6.66675 20H16.0001" stroke="#00808C" stroke-width="1.33333" stroke-linecap="round"
          stroke-linejoin="round"/>
    <path d="M12 26.6666L12 5.33329" stroke="#00808C" stroke-width="1.33333" stroke-linecap="round"
          stroke-linejoin="round"/>
  </g>
  <defs>
    <clipPath id="clip0_3998_161">
      <rect width="32" height="32" fill="white"/>
    </clipPath>
  </defs>
</svg>
