<svg width="32" height="32" viewBox="0 0 32 32" fill="none" xmlns="http://www.w3.org/2000/svg">
  <path
      d="M28 17.3333V13.3333C28 8.30498 28 5.79082 26.4379 4.22872C24.8758 2.66663 22.3616 2.66663 17.3333 2.66663H14.6667C9.63835 2.66663 7.12419 2.66663 5.5621 4.22872C4 5.79082 4 8.30498 4 13.3333V18.6666C4 23.6949 4 26.2091 5.5621 27.7712C7.12419 29.3333 9.63835 29.3333 14.6667 29.3333H18"
      stroke="#00808C" stroke-width="2" stroke-linecap="round"/>
  <path d="M10.6667 16H21.3334" stroke="#00808C" stroke-width="2" stroke-linecap="round"/>
  <path d="M10.6667 10.6666H21.3334" stroke="#00808C" stroke-width="2" stroke-linecap="round"/>
  <path d="M10.6667 21.3334H17.3334" stroke="#00808C" stroke-width="2" stroke-linecap="round"/>
  <path
      d="M22.7083 25.3333C22.7083 26.0405 22.9892 26.7188 23.4893 27.2189C23.9894 27.719 24.6677 28 25.3749 28C26.0822 28 26.7604 27.719 27.2605 27.2189C27.7606 26.7188 28.0416 26.0405 28.0416 25.3333C28.0416 24.626 27.7606 23.9478 27.2605 23.4477C26.7604 22.9476 26.0822 22.6666 25.3749 22.6666C24.6677 22.6666 23.9894 22.9476 23.4893 23.4477C22.9892 23.9478 22.7083 24.626 22.7083 25.3333Z"
      stroke="#00808C" stroke-width="2" stroke-linecap="round" stroke-linejoin="round"/>
  <path d="M25.375 20.6666V22.6666" stroke="#00808C" stroke-width="2" stroke-linecap="round" stroke-linejoin="round"/>
  <path d="M25.375 28V30" stroke="#00808C" stroke-width="2" stroke-linecap="round" stroke-linejoin="round"/>
  <path d="M29.4168 23L27.6848 24" stroke="#00808C" stroke-width="2" stroke-linecap="round" stroke-linejoin="round"/>
  <path d="M23.0666 26.6666L21.3333 27.6666" stroke="#00808C" stroke-width="2" stroke-linecap="round"
        stroke-linejoin="round"/>
  <path d="M21.3333 23L23.0666 24" stroke="#00808C" stroke-width="2" stroke-linecap="round" stroke-linejoin="round"/>
  <path d="M27.6848 26.6666L29.4181 27.6666" stroke="#00808C" stroke-width="2" stroke-linecap="round"
        stroke-linejoin="round"/>
</svg>
