<svg width="32" height="32" viewBox="0 0 32 32" fill="none" xmlns="http://www.w3.org/2000/svg">
  <path
      d="M24 6.67053C24.7364 6.67053 25.333 7.26716 25.333 8.00354V24.0035C25.333 24.7399 24.7364 25.3365 24 25.3365H8C7.26385 25.3363 6.66699 24.7398 6.66699 24.0035V14.3649C6.66706 13.6287 7.26388 13.0321 8 13.0319H12.7078C12.8735 13.0319 13.0078 12.8975 13.0078 12.7319V8.00354C13.0078 7.26732 13.6056 6.6708 14.3418 6.67053H24ZM9.39404 23.4975C9.21331 23.6888 9.34894 24.0035 9.61212 24.0035H22.3321C22.5996 24.0035 22.7333 23.68 22.544 23.4911L19.1279 20.0833C19.0716 20.0272 18.9954 19.9957 18.916 19.9957H12.8314C12.7489 19.9957 12.67 20.0297 12.6134 20.0897L9.39404 23.4975ZM20.0786 12.5777C20.0179 12.6344 19.9834 12.7138 19.9834 12.7969V18.9279C19.9834 19.0076 20.0151 19.084 20.0715 19.1403L23.4881 22.5494C23.6772 22.7381 24 22.6041 24 22.337V9.60543C24 9.34306 23.6869 9.2071 23.4952 9.3862L20.0786 12.5777ZM8 22.2775C8 22.5489 8.33168 22.6808 8.51806 22.4835L11.3219 19.5159C11.4288 19.4028 11.4314 19.2268 11.3281 19.1105L8.52421 15.9565C8.34094 15.7503 8 15.88 8 16.1558V22.2775ZM9.56074 14.3649C9.30187 14.3649 9.16454 14.6707 9.33655 14.8642L12.6244 18.5621C12.6813 18.6261 12.7629 18.6627 12.8486 18.6627H16.9836C17.2509 18.6627 17.3848 18.3395 17.1957 18.1506L13.497 14.4527C13.4408 14.3965 13.3645 14.3649 13.2849 14.3649H9.56074ZM14.3418 13.2865C14.3418 13.3661 14.3734 13.4424 14.4296 13.4986L18.1382 17.2081C18.3272 17.3971 18.6504 17.2632 18.6504 16.996V12.8141C18.6504 12.7278 18.6133 12.6457 18.5487 12.5885C18.4957 12.5415 18.4371 12.4895 18.373 12.4332C18.0585 12.1567 17.6185 11.7705 17.1182 11.3307C16.4188 10.7159 15.6007 9.99677 14.8398 9.32797C14.646 9.1576 14.3418 9.29527 14.3418 9.55333V13.2865ZM17.998 10.3287C18.4985 10.7687 18.9383 11.1557 19.2529 11.4323C19.2821 11.4579 19.3263 11.4569 19.3548 11.4304L22.4668 8.52275C22.6657 8.33691 22.5342 8.00354 22.2619 8.00354H16.1483C15.8716 8.00354 15.7424 8.3462 15.9502 8.52886C16.6435 9.13818 17.3688 9.77567 17.998 10.3287Z"
      fill="#00808C"/>
  <path
      d="M10 4H5.5C4.67157 4 4 4.67157 4 5.5V10M22 4H26.5C27.3284 4 28 4.67157 28 5.5V10M28 22V26.5C28 27.3284 27.3284 28 26.5 28H22M10 28H5.5C4.67157 28 4 27.3284 4 26.5V22"
      stroke="#00808C" stroke-width="2" stroke-linecap="round" stroke-linejoin="round"/>
</svg>
