<svg width="32" height="32" viewBox="0 0 32 32" fill="none" xmlns="http://www.w3.org/2000/svg">
  <path
      d="M24.0001 17.3334H7.62776C7.05385 17.3334 6.54433 17.7006 6.36285 18.2451L3.25174 27.5784C2.96395 28.4418 3.60657 29.3334 4.51665 29.3334H19.0391C19.613 29.3334 20.1225 28.9661 20.304 28.4217L24.0001 17.3334ZM24.0001 17.3334L29.3334 29.3334"
      stroke="#00808C" stroke-width="2" stroke-linecap="round" stroke-linejoin="round"/>
  <path d="M18 17.3334L14 29.3334" stroke="#00808C" stroke-width="2" stroke-linejoin="round"/>
  <path d="M22.0001 23.3334H4.66675" stroke="#00808C" stroke-width="2" stroke-linejoin="round"/>
  <path d="M12 17.3334L8 29.3334" stroke="#00808C" stroke-width="2" stroke-linejoin="round"/>
  <path
      d="M10.6667 2.66663C10.6667 4.08111 11.2287 5.43767 12.2288 6.43786C13.229 7.43806 14.5856 7.99996 16.0001 7.99996C17.4146 7.99996 18.7711 7.43806 19.7713 6.43786C20.7715 5.43767 21.3334 4.08111 21.3334 2.66663"
      stroke="#00808C" stroke-width="2" stroke-linecap="round" stroke-linejoin="round"/>
  <path d="M5.33325 4H6.66659" stroke="#00808C" stroke-width="2" stroke-linecap="round" stroke-linejoin="round"/>
  <path d="M25.3333 4H26.6666" stroke="#00808C" stroke-width="2" stroke-linecap="round" stroke-linejoin="round"/>
  <path d="M16 12V13.3333" stroke="#00808C" stroke-width="2" stroke-linecap="round" stroke-linejoin="round"/>
  <path d="M22.9333 9.59998L23.876 10.5426" stroke="#00808C" stroke-width="2" stroke-linecap="round"
        stroke-linejoin="round"/>
  <path d="M9.06663 9.59998L8.1333 10.5333" stroke="#00808C" stroke-width="2" stroke-linecap="round"
        stroke-linejoin="round"/>
</svg>
