<svg width="32" height="32" viewBox="0 0 32 32" fill="none" xmlns="http://www.w3.org/2000/svg">
  <path
      d="M6.6665 10.6666C6.6665 6.89539 6.6665 5.00977 7.83808 3.8382C9.00965 2.66663 10.8953 2.66663 14.6665 2.66663H17.3332C21.1044 2.66663 22.99 2.66663 24.1616 3.8382C25.3332 5.00977 25.3332 6.89539 25.3332 10.6666V21.3333C25.3332 25.1045 25.3332 26.9901 24.1616 28.1617C22.99 29.3333 21.1044 29.3333 17.3332 29.3333H14.6665C10.8953 29.3333 9.00965 29.3333 7.83808 28.1617C6.6665 26.9901 6.6665 25.1045 6.6665 21.3333V10.6666Z"
      stroke="#00808C" stroke-width="2"/>
  <path
      d="M6.6665 5.43494C5.36639 5.56282 4.49126 5.85184 3.83808 6.50502C2.6665 7.67659 2.6665 9.56221 2.6665 13.3334V18.6668C2.6665 22.438 2.6665 24.3236 3.83808 25.4952C4.49126 26.1484 5.36639 26.4374 6.6665 26.5653"
      stroke="#00808C" stroke-width="2"/>
  <path
      d="M25.3335 5.43494C26.6336 5.56282 27.5087 5.85184 28.1619 6.50502C29.3335 7.67659 29.3335 9.56221 29.3335 13.3334V18.6668C29.3335 22.438 29.3335 24.3236 28.1619 25.4952C27.5087 26.1484 26.6336 26.4374 25.3335 26.5653"
      stroke="#00808C" stroke-width="2"/>
  <path d="M12 17.3334H20" stroke="#00808C" stroke-width="2" stroke-linecap="round"/>
  <path d="M12 12H20" stroke="#00808C" stroke-width="2" stroke-linecap="round"/>
  <path d="M12 22.6666H16" stroke="#00808C" stroke-width="2" stroke-linecap="round"/>
</svg>
