<svg xmlns="http://www.w3.org/2000/svg" width="24" height="24" viewBox="0 0 24 24"><rect width="24" height="24" fill="#fff"/><g><rect y="0" width="24" height="2" fill="#b22234"/><rect y="4" width="24" height="2" fill="#b22234"/><rect y="8" width="24" height="2" fill="#b22234"/><rect y="12" width="24" height="2" fill="#b22234"/><rect y="16" width="24" height="2" fill="#b22234"/><rect y="20" width="24" height="2" fill="#b22234"/><rect width="10" height="10" fill="#3c3b6e"/><g fill="#fff"><circle cx="1.5" cy="1.5" r="0.5"/><circle cx="3.5" cy="1.5" r="0.5"/><circle cx="5.5" cy="1.5" r="0.5"/><circle cx="7.5" cy="1.5" r="0.5"/><circle cx="9.5" cy="1.5" r="0.5"/><circle cx="2.5" cy="2.5" r="0.5"/><circle cx="4.5" cy="2.5" r="0.5"/><circle cx="6.5" cy="2.5" r="0.5"/><circle cx="8.5" cy="2.5" r="0.5"/><circle cx="1.5" cy="3.5" r="0.5"/><circle cx="3.5" cy="3.5" r="0.5"/><circle cx="5.5" cy="3.5" r="0.5"/><circle cx="7.5" cy="3.5" r="0.5"/><circle cx="9.5" cy="3.5" r="0.5"/><circle cx="2.5" cy="4.5" r="0.5"/><circle cx="4.5" cy="4.5" r="0.5"/><circle cx="6.5" cy="4.5" r="0.5"/><circle cx="8.5" cy="4.5" r="0.5"/><circle cx="1.5" cy="5.5" r="0.5"/><circle cx="3.5" cy="5.5" r="0.5"/><circle cx="5.5" cy="5.5" r="0.5"/><circle cx="7.5" cy="5.5" r="0.5"/><circle cx="9.5" cy="5.5" r="0.5"/><circle cx="2.5" cy="6.5" r="0.5"/><circle cx="4.5" cy="6.5" r="0.5"/><circle cx="6.5" cy="6.5" r="0.5"/><circle cx="8.5" cy="6.5" r="0.5"/><circle cx="1.5" cy="7.5" r="0.5"/><circle cx="3.5" cy="7.5" r="0.5"/><circle cx="5.5" cy="7.5" r="0.5"/><circle cx="7.5" cy="7.5" r="0.5"/><circle cx="9.5" cy="7.5" r="0.5"/><circle cx="2.5" cy="8.5" r="0.5"/><circle cx="4.5" cy="8.5" r="0.5"/><circle cx="6.5" cy="8.5" r="0.5"/><circle cx="8.5" cy="8.5" r="0.5"/><circle cx="1.5" cy="9.5" r="0.5"/><circle cx="3.5" cy="9.5" r="0.5"/><circle cx="5.5" cy="9.5" r="0.5"/><circle cx="7.5" cy="9.5" r="0.5"/><circle cx="9.5" cy="9.5" r="0.5"/></g></g></svg>