<svg width="48" height="48" viewBox="0 0 48 48" fill="none" xmlns="http://www.w3.org/2000/svg">
  <path
      d="M10 16C10 10.3431 10 7.51472 11.7574 5.75736C13.5147 4 16.3431 4 22 4H26C31.6569 4 34.4853 4 36.2426 5.75736C38 7.51472 38 10.3431 38 16V32C38 37.6569 38 40.4853 36.2426 42.2426C34.4853 44 31.6569 44 26 44H22C16.3431 44 13.5147 44 11.7574 42.2426C10 40.4853 10 37.6569 10 32V16Z"
      stroke="white" stroke-width="3"/>
  <path
      d="M10 8.15234C8.04983 8.34417 6.73713 8.77769 5.75736 9.75746C4 11.5148 4 14.3433 4 20.0001V28.0001C4 33.657 4 36.4854 5.75736 38.2427C6.73713 39.2225 8.04983 39.656 10 39.8479"
      stroke="white" stroke-width="3"/>
  <path
      d="M38 8.15234C39.9502 8.34417 41.2629 8.77769 42.2426 9.75746C44 11.5148 44 14.3433 44 20.0001V28.0001C44 33.657 44 36.4854 42.2426 38.2427C41.2629 39.2225 39.9502 39.656 38 39.8479"
      stroke="white" stroke-width="3"/>
  <path d="M18 26H30" stroke="white" stroke-width="3" stroke-linecap="round"/>
  <path d="M18 18H30" stroke="white" stroke-width="3" stroke-linecap="round"/>
  <path d="M18 34H24" stroke="white" stroke-width="3" stroke-linecap="round"/>
</svg>
