<svg width="24" height="24" viewBox="0 0 24 24" fill="none" xmlns="http://www.w3.org/2000/svg">
  <path
      d="M18 5.00293C18.5523 5.00293 19 5.45065 19 6.00293V18.0029C18.9999 18.5551 18.5522 19.0029 18 19.0029H6C5.44791 19.0028 5.00013 18.555 5 18.0029V10.7734C5.00018 10.2214 5.44794 9.77455 6 9.77441H9.53086C9.65512 9.77441 9.75586 9.67368 9.75586 9.54941V6.00293C9.75586 5.45073 10.2047 5.00306 10.7568 5.00293H18ZM7.04591 17.6234C6.91039 17.7669 7.01212 18.0029 7.20949 18.0029H16.7497C16.9503 18.0029 17.0507 17.7603 16.9086 17.6186L14.3461 15.0628C14.304 15.0207 14.2468 14.9971 14.1872 14.9971H9.62335C9.56145 14.9971 9.50228 15.0226 9.45977 15.0676L7.04591 17.6234ZM15.0587 9.4333C15.0132 9.47585 14.9873 9.53538 14.9873 9.59771V14.1957C14.9873 14.2555 15.0111 14.3128 15.0534 14.355L17.6161 16.9127C17.7579 17.0542 18 16.9538 18 16.7534V7.20365C18 7.00686 17.7652 6.9049 17.6214 7.03923L15.0587 9.4333ZM6 16.7077C6 16.9113 6.24874 17.0102 6.38854 16.8623L8.49117 14.6372C8.57132 14.5524 8.57333 14.4204 8.49581 14.3332L6.39317 11.9677C6.25572 11.8131 6 11.9103 6 12.1172V16.7077ZM7.16921 10.7734C6.97504 10.7734 6.87204 11.0029 7.00109 11.148L9.46803 13.9216C9.51073 13.9696 9.57191 13.9971 9.63616 13.9971H12.7379C12.9384 13.9971 13.0388 13.7547 12.897 13.6129L10.1225 10.8393C10.0803 10.7971 10.0231 10.7734 9.96346 10.7734H7.16921ZM10.7568 9.96542C10.7568 10.0251 10.7805 10.0823 10.8227 10.1245L13.6032 12.9058C13.7449 13.0476 13.9873 12.9472 13.9873 12.7467V9.61058C13.9873 9.54588 13.9595 9.4843 13.911 9.44143C13.8713 9.4063 13.8273 9.36737 13.7793 9.3252C13.5434 9.11785 13.214 8.82781 12.8389 8.49805C12.3145 8.03711 11.7009 7.49778 11.1303 6.99625C10.985 6.86848 10.7568 6.97173 10.7568 7.16527V9.96542ZM13.498 7.74609C13.8734 8.07604 14.2035 8.36678 14.4395 8.57422C14.4613 8.59343 14.4947 8.59229 14.516 8.57242L16.8497 6.39235C16.9989 6.25298 16.9003 6.00293 16.6961 6.00293H12.1115C11.904 6.00293 11.8071 6.25992 11.9629 6.39691C12.4826 6.85366 13.0263 7.33148 13.498 7.74609Z"
      fill="white"/>
  <path
      d="M7.5 3H4.125C3.50368 3 3 3.50368 3 4.125V7.5M16.5 3H19.875C20.4963 3 21 3.50368 21 4.125V7.5M21 16.5V19.875C21 20.4963 20.4963 21 19.875 21H16.5M7.5 21H4.125C3.50368 21 3 20.4963 3 19.875V16.5"
      stroke="white" stroke-width="1.5" stroke-linecap="round" stroke-linejoin="round"/>
</svg>
