<svg width="73" height="28" viewBox="0 0 73 28" fill="none" xmlns="http://www.w3.org/2000/svg">
<g clip-path="url(#clip0_4384_39010)">
<path d="M17.2804 0C14.4374 0 11.7108 1.12938 9.70051 3.1397L3.1397 9.70051C1.12938 11.7108 0 14.4374 0 17.2804C0 23.2007 4.79933 28 10.7196 28C13.5626 28 16.2892 26.8706 18.2995 24.8603L22.8376 20.3221C22.8376 20.322 22.8377 20.3222 22.8376 20.3221L36.0603 7.09949C37.0204 6.13938 38.3226 5.6 39.6804 5.6C41.9536 5.6 43.8808 7.08158 44.549 9.1318L48.7221 4.95876C46.8183 1.97712 43.4803 0 39.6804 0C36.8374 0 34.1108 1.12938 32.1005 3.1397L14.3397 20.9005C13.3796 21.8606 12.0774 22.4 10.7196 22.4C7.89212 22.4 5.6 20.1079 5.6 17.2804C5.6 15.9226 6.13938 14.6204 7.09949 13.6603L13.6603 7.09949C14.6204 6.13938 15.9226 5.6 17.2804 5.6C19.5537 5.6 21.4809 7.08165 22.149 9.13193L26.3221 4.95887C24.4184 1.97717 21.0804 0 17.2804 0Z" fill="#96B0B0"/>
<path d="M36.7395 20.9005C35.7794 21.8606 34.4772 22.4 33.1194 22.4C30.8465 22.4 28.9194 20.9188 28.2511 18.8689L24.0781 23.0419C25.9819 26.0231 29.3198 28 33.1194 28C35.9624 28 38.689 26.8706 40.6993 24.8603L58.4601 7.09949C59.4202 6.13938 60.7224 5.6 62.0802 5.6C64.9077 5.6 67.1998 7.89212 67.1998 10.7196C67.1998 12.0774 66.6604 13.3796 65.7003 14.3397L59.1395 20.9005C58.1794 21.8606 56.8772 22.4 55.5194 22.4C53.2463 22.4 51.3191 20.9185 50.6509 18.8685L46.4779 23.0415C48.3817 26.023 51.7196 28 55.5194 28C58.3624 28 61.089 26.8706 63.0993 24.8603L69.6601 18.2995C71.6704 16.2892 72.7998 13.5626 72.7998 10.7196C72.7998 4.79933 68.0005 0 62.0802 0C59.2372 0 56.5106 1.12938 54.5003 3.1397L36.7395 20.9005Z" fill="#96B0B0"/>
</g>
<defs>
<clipPath id="clip0_4384_39010">
<rect width="72.8" height="28" fill="white"/>
</clipPath>
</defs>
</svg>
