<svg width="124" height="28" viewBox="0 0 124 28" fill="none" xmlns="http://www.w3.org/2000/svg">
<g clip-path="url(#clip0_4384_39013)">
<path fill-rule="evenodd" clip-rule="evenodd" d="M10.5 19.6C9.57174 19.6 8.6815 19.2313 8.02513 18.5749C7.36875 17.9185 7 17.0283 7 16.1V0H0V16.1C0 21.8988 4.7012 26.6 10.5 26.6H18.2V19.6H10.5ZM31.5 7C30.6727 7 29.8534 7.16295 29.0891 7.47956C28.3247 7.79616 27.6302 8.26022 27.0452 8.84523C26.4602 9.43024 25.9962 10.1247 25.6796 10.8891C25.363 11.6534 25.2 12.4727 25.2 13.3C25.2 14.1273 25.363 14.9466 25.6796 15.7109C25.9962 16.4753 26.4602 17.1698 27.0452 17.7548C27.6302 18.3398 28.3247 18.8038 29.0891 19.1204C29.8534 19.437 30.6727 19.6 31.5 19.6C33.1709 19.6 34.7733 18.9363 35.9548 17.7548C37.1363 16.5733 37.8 14.9709 37.8 13.3C37.8 11.6291 37.1363 10.0267 35.9548 8.84523C34.7733 7.66375 33.1709 7 31.5 7ZM18.2 13.3C18.2 5.9549 24.1549 0 31.5 0C38.8451 0 44.8 5.9549 44.8 13.3C44.8 20.6451 38.8451 26.6 31.5 26.6C24.1549 26.6 18.2 20.6451 18.2 13.3ZM107.1 7C105.429 7 103.827 7.66375 102.645 8.84523C101.464 10.0267 100.8 11.6291 100.8 13.3C100.8 14.9709 101.464 16.5733 102.645 17.7548C103.827 18.9363 105.429 19.6 107.1 19.6C108.771 19.6 110.373 18.9363 111.555 17.7548C112.736 16.5733 113.4 14.9709 113.4 13.3C113.4 11.6291 112.736 10.0267 111.555 8.84523C110.373 7.66375 108.771 7 107.1 7ZM93.8 13.3C93.8 5.9549 99.7549 0 107.1 0C114.445 0 120.4 5.9549 120.4 13.3C120.4 20.6451 114.445 26.6 107.1 26.6C99.7549 26.6 93.8 20.6451 93.8 13.3ZM59.5 0C52.1549 0 46.2 5.9549 46.2 13.3C46.2 20.6451 52.1549 26.6 59.5 26.6H79.1C80.4783 26.6 81.8076 26.39 83.0578 26.0008L86.8 28L90.8376 20.4372C91.8633 18.512 92.3998 16.3641 92.4 14.1827V13.3C92.4 5.9549 86.4451 0 79.1 0H59.5ZM85.4 13.3C85.4 11.6291 84.7363 10.0267 83.5548 8.84523C82.3733 7.66375 80.7709 7 79.1 7H59.5C58.6727 7 57.8534 7.16295 57.0891 7.47956C56.3247 7.79616 55.6302 8.26022 55.0452 8.84523C54.4602 9.43024 53.9962 10.1247 53.6796 10.8891C53.363 11.6534 53.2 12.4727 53.2 13.3C53.2 14.1273 53.363 14.9466 53.6796 15.7109C53.9962 16.4753 54.4602 17.1698 55.0452 17.7548C55.6302 18.3398 56.3247 18.8038 57.0891 19.1204C57.8534 19.437 58.6727 19.6 59.5 19.6H79.1C80.7624 19.6 82.3575 18.943 83.5375 17.7721C84.7176 16.6012 85.3871 15.0114 85.4 13.349V13.3Z" fill="#D8EBEB"/>
<path d="M123.201 1.75C123.201 2.21413 123.017 2.65925 122.689 2.98744C122.36 3.31563 121.915 3.5 121.451 3.5C120.987 3.5 120.542 3.31563 120.214 2.98744C119.886 2.65925 119.701 2.21413 119.701 1.75C119.701 1.28587 119.886 0.840752 120.214 0.512563C120.542 0.184374 120.987 0 121.451 0C121.915 0 122.36 0.184374 122.689 0.512563C123.017 0.840752 123.201 1.28587 123.201 1.75Z" fill="#D8EBEB"/>
</g>
<defs>
<clipPath id="clip0_4384_39013">
<rect width="123.2" height="28" fill="white"/>
</clipPath>
</defs>
</svg>
