<svg width="70" height="28" viewBox="0 0 70 28" fill="none" xmlns="http://www.w3.org/2000/svg">
<g clip-path="url(#clip0_4384_39008)">
<path d="M3.33906 2.9645C3.52106 2.1007 4.38206 1.4 5.25916 1.4H10.0276L6.06206 20.1761H1.29366C0.415856 20.1761 -0.148344 19.4761 0.034356 18.6116L3.33906 2.9645ZM19.234 2.9645C19.4167 2.1007 20.277 1.4 21.1541 1.4H25.9225L21.957 20.1761H17.1886C16.3108 20.1761 15.7466 19.4761 15.9293 18.6116L19.234 2.9645ZM51.0244 2.9645C51.2064 2.1007 52.0661 1.4 52.9445 1.4H57.7129L53.7474 20.1761H48.9783C48.1006 20.1761 47.537 19.4761 47.7197 18.6116L51.0244 2.9645ZM27.5122 1.4H32.2806C33.1584 1.4 33.7226 2.1 33.5399 2.9645L30.2352 18.6116C30.0532 19.4761 29.1929 20.1761 28.3151 20.1761H23.5467L27.5122 1.4ZM59.3027 1.4H64.071C64.9488 1.4 65.513 2.1 65.3303 2.9645L62.0249 18.6116C61.8429 19.4761 60.9833 20.1761 60.1055 20.1761H55.3364L59.3027 1.4ZM35.1296 2.9645C35.3116 2.1007 36.1712 1.4 37.049 1.4H41.8181L37.8519 20.1761H33.0835C32.2057 20.1761 31.6415 19.4761 31.8249 18.6116L35.1289 2.9645H35.1296ZM43.4071 1.4H48.1761C49.0539 1.4 49.6175 2.1 49.4347 2.9645L44.4781 26.4355C44.2947 27.2993 43.4351 28 42.5573 28H37.7882L43.4071 1.4ZM8.97336 13.9174H15.3315L14.3403 18.6116C14.1576 19.4761 13.2973 20.1761 12.4202 20.1761H7.65106L8.97266 13.9181L8.97336 13.9174ZM31.1641 21.7413H37.5215L36.1999 28H31.4315C30.553 28 29.9895 27.3 30.1722 26.4355L31.1641 21.7413ZM48.4219 23.1966L47.6169 27.0088C47.5818 27.1726 47.5272 27.2174 47.3606 27.2174H46.9945C46.8279 27.2174 46.7915 27.1726 46.8265 27.0088L47.6315 23.1966C47.6665 23.0335 47.7211 22.988 47.8878 22.988H48.2538C48.4204 22.988 48.4569 23.0335 48.4219 23.1966ZM49.4802 25.7684H49.4053C49.3256 25.7684 49.2976 25.7908 49.2814 25.8699L49.0406 27.0088C49.0056 27.1726 48.9503 27.2174 48.7845 27.2174H48.4176C48.2517 27.2174 48.2154 27.1726 48.2496 27.0088L49.0546 23.1966C49.0896 23.0335 49.1456 22.988 49.3115 22.988H50.0676C50.9384 22.988 51.2681 23.2981 51.107 24.059L50.9726 24.6967C50.8116 25.4583 50.351 25.7684 49.4802 25.7684ZM49.7014 23.8791L49.4915 24.8773C49.4739 24.9564 49.4921 24.9788 49.5726 24.9788H49.693C49.973 24.9788 50.1236 24.8661 50.1844 24.5784L50.2684 24.178C50.3293 23.891 50.2271 23.7776 49.9464 23.7776H49.826C49.7463 23.7776 49.7182 23.8 49.7014 23.8791ZM52.318 24.4937L52.913 25.1482C53.2252 25.4863 53.2687 25.6893 53.1889 26.0673L53.1679 26.1688C53.0173 26.8793 52.6589 27.2741 51.828 27.2741C50.9978 27.2741 50.7927 26.9416 50.9845 26.033L51.0084 25.921C51.0434 25.7572 51.0986 25.7117 51.2645 25.7117H51.6537C51.8203 25.7117 51.8567 25.7572 51.8217 25.9203L51.7692 26.1688C51.7216 26.3942 51.7944 26.4845 51.9946 26.4845C52.1955 26.4845 52.3047 26.4005 52.3481 26.1975L52.3705 26.0897C52.4041 25.9315 52.386 25.8531 52.2137 25.6669L51.6537 25.0635C51.3401 24.731 51.3003 24.5385 51.3801 24.1605L51.4059 24.0373C51.5564 23.3268 51.9148 22.9313 52.745 22.9313C53.5759 22.9313 53.781 23.2645 53.5892 24.1724L53.5654 24.2851C53.5304 24.4489 53.4751 24.4937 53.3092 24.4937H52.9193C52.7534 24.4937 52.717 24.4489 52.7514 24.2851L52.8038 24.0373C52.8514 23.8112 52.7793 23.7216 52.5784 23.7216C52.3782 23.7216 52.2683 23.8056 52.2257 24.0086L52.2053 24.1045C52.1703 24.2683 52.1885 24.3474 52.318 24.4937ZM55.6724 23.1966C55.7074 23.0335 55.7621 22.988 55.9286 22.988H56.2947C56.4613 22.988 56.4977 23.0335 56.4627 23.1966L55.8635 26.0337C55.6717 26.9416 55.3266 27.2741 54.4957 27.2741C53.6655 27.2741 53.4604 26.9416 53.6523 26.033L54.2514 23.1966C54.2864 23.0335 54.3417 22.988 54.5076 22.988H54.8744C55.0403 22.988 55.0768 23.0335 55.0424 23.1966L54.4145 26.1688C54.3669 26.3942 54.4453 26.4845 54.663 26.4845C54.8744 26.4845 54.9969 26.3942 55.0445 26.1688L55.6724 23.1966ZM58.0566 25.4919C58.0588 25.5374 58.0734 25.5479 58.1021 25.5479C58.1301 25.5479 58.1504 25.5374 58.1714 25.4919L59.1612 23.135C59.2095 23.016 59.2669 22.988 59.4104 22.988H59.9662C60.1321 22.988 60.1685 23.0335 60.1342 23.1966L59.3292 27.0088C59.2942 27.1726 59.2382 27.2174 59.0723 27.2174H58.8091C58.6432 27.2174 58.6061 27.1726 58.6411 27.0088L59.0275 25.1818C59.038 25.1314 59.0289 25.1195 58.9946 25.1195C58.9715 25.1195 58.9456 25.1314 58.9316 25.1706L58.1322 27.0319C58.0748 27.167 58.0014 27.2174 57.8354 27.2174H57.68C57.5078 27.2174 57.456 27.167 57.456 27.0319L57.4364 25.1699C57.4329 25.1307 57.4238 25.1195 57.3951 25.1195C57.3608 25.1195 57.3468 25.1314 57.3363 25.1818L56.9506 27.0088C56.9156 27.1726 56.861 27.2174 56.6944 27.2174H56.4312C56.2646 27.2174 56.2282 27.1726 56.2632 27.0088L57.0682 23.1966C57.1032 23.0335 57.1585 22.988 57.3244 22.988H57.8004C58.0006 22.988 58.065 23.0335 58.0636 23.2309L58.0559 25.4919H58.0566ZM70 1.4C70 2.1735 69.377 2.8 68.6091 2.8C68.4259 2.79945 68.2445 2.7628 68.0754 2.69213C67.9063 2.62147 67.7528 2.51818 67.6236 2.38817C67.4945 2.25816 67.3922 2.10397 67.3226 1.93442C67.2531 1.76486 67.2176 1.58327 67.2182 1.4C67.2182 0.6265 67.8412 0 68.6091 0C69.377 0 70 0.6265 70 1.4Z" fill="#96B0B0"/>
</g>
<defs>
<clipPath id="clip0_4384_39008">
<rect width="70" height="28" fill="white"/>
</clipPath>
</defs>
</svg>
