<svg width="119" height="28" viewBox="0 0 119 28" fill="none" xmlns="http://www.w3.org/2000/svg">
<g clip-path="url(#clip0_4384_39016)">
<path fill-rule="evenodd" clip-rule="evenodd" d="M7.01036 1.75V28H0V1.75H7.01036Z" fill="#96B0B0"/>
<path fill-rule="evenodd" clip-rule="evenodd" d="M10.5156 1.75H25.4127C30.2523 1.75 34.1756 5.66751 34.1756 10.5C34.1756 15.3325 30.2523 19.25 25.4127 19.25H17.526V28H10.5156V1.75ZM17.526 12.25H25.4127C26.3806 12.25 27.1653 11.4665 27.1653 10.5C27.1653 9.53351 26.3806 8.75 25.4127 8.75H17.526V12.25Z" fill="#96B0B0"/>
<path fill-rule="evenodd" clip-rule="evenodd" d="M60.4635 1.75V15.3125C60.4635 18.4536 63.0136 21 66.1594 21C69.3052 21 71.8554 18.4536 71.8554 15.3125V1.75H78.8659V15.3125C78.8659 22.3196 73.177 28 66.1594 28C59.1419 28 53.4531 22.3196 53.4531 15.3125V1.75H60.4635Z" fill="#96B0B0"/>
<path fill-rule="evenodd" clip-rule="evenodd" d="M36.8033 14C36.8033 7.2345 42.2959 1.75 49.0715 1.75H50.824V8.75H49.0715C46.1676 8.75 43.8137 11.1005 43.8137 14V14.875C43.8137 22.1237 37.9287 28 30.6692 28H29.793V21H30.6692C34.057 21 36.8033 18.2577 36.8033 14.875V14Z" fill="#96B0B0"/>
<path d="M118.301 2.625C118.301 4.07475 117.124 5.25 115.671 5.25C114.22 5.25 113.043 4.07475 113.043 2.625C113.043 1.17525 114.22 0 115.671 0C117.124 0 118.301 1.17525 118.301 2.625Z" fill="#96B0B0"/>
<path d="M86.3927 27.9996L89.738 14.0123L92.2251 22.4271C93.7077 27.446 100.827 27.446 102.311 22.4271L104.797 14.0123L108.142 27.9996H115.35L110.09 6.00527C108.839 0.774834 101.457 0.581173 99.9328 5.73886L97.2679 14.7579L94.6023 5.73887C93.0784 0.581203 85.6962 0.774806 84.4453 6.00526L79.1855 27.9996H86.3927Z" fill="#96B0B0"/>
</g>
<defs>
<clipPath id="clip0_4384_39016">
<rect width="118.3" height="28" fill="white"/>
</clipPath>
</defs>
</svg>
