<svg width="162" height="32" viewBox="0 0 162 32" fill="none" xmlns="http://www.w3.org/2000/svg">
<g clip-path="url(#clip0_4384_9786)">
<path fill-rule="evenodd" clip-rule="evenodd" d="M20.4446 9.34824C19.129 8.4692 17.5822 8 16 8V0C19.1645 0 22.2579 0.938384 24.8891 2.69649C27.5203 4.45458 29.571 6.95345 30.7821 9.87704C31.993 12.8006 32.3099 16.0178 31.6926 19.1214C31.0752 22.2251 29.5514 25.0761 27.3137 27.3137C25.0761 29.5514 22.2251 31.0752 19.1214 31.6926C16.0178 32.3099 12.8006 31.993 9.87704 30.7821C6.95344 29.571 4.45458 27.5203 2.69649 24.8891C0.938384 22.2579 0 19.1645 0 16H8C8 17.5822 8.4692 19.129 9.34824 20.4446C10.2273 21.7602 11.4767 22.7855 12.9386 23.391C14.4003 23.9966 16.0089 24.155 17.5607 23.8462C19.1126 23.5376 20.538 22.7757 21.6569 21.6569C22.7757 20.538 23.5376 19.1126 23.8462 17.5607C24.155 16.0089 23.9966 14.4003 23.391 12.9386C22.7855 11.4767 21.7602 10.2273 20.4446 9.34824Z" fill="#96B0B0"/>
<path fill-rule="evenodd" clip-rule="evenodd" d="M8 4.22794e-06C8 1.05058 7.79308 2.09087 7.39104 3.06147C6.989 4.03207 6.39972 4.91399 5.65685 5.65686C4.91399 6.39973 4.03208 6.989 3.06147 7.39104C2.09086 7.79307 1.05057 8 3.49688e-07 8L0 16C2.10115 16 4.18172 15.5862 6.12294 14.7821C8.06416 13.978 9.828 12.7994 11.3137 11.3137C12.7994 9.828 13.978 8.06416 14.7821 6.12294C15.5862 4.18172 16 2.10115 16 0L8 4.22794e-06Z" fill="#96B0B0"/>
<path d="M100.495 11.5615H96.6133V23.8914H100.495V11.5615Z" fill="#96B0B0"/>
<path d="M97.0469 9.25289C97.4525 9.65881 97.9597 9.86177 98.5685 9.86177C99.1773 9.86177 99.6765 9.65881 100.065 9.25289C100.455 8.83009 100.649 8.32265 100.649 7.73069C100.649 7.12183 100.455 6.6144 100.065 6.2085C99.6765 5.80256 99.1773 5.59961 98.5685 5.59961C97.9597 5.59961 97.4525 5.80256 97.0469 6.2085C96.6573 6.6144 96.4629 7.12183 96.4629 7.73069C96.4629 8.32265 96.6573 8.83009 97.0469 9.25289Z" fill="#96B0B0"/>
<path d="M40.9258 23.8908V5.97949H44.9089V20.3897H52.8498V23.8908H40.9258Z" fill="#96B0B0"/>
<path fill-rule="evenodd" clip-rule="evenodd" d="M60.0238 24.1702C58.7553 24.1702 57.6052 23.8912 56.5735 23.333C55.5587 22.758 54.7553 21.98 54.1633 20.9989C53.5714 20.018 53.2754 18.9186 53.2754 17.7009C53.2754 16.4831 53.5714 15.3922 54.1633 14.4281C54.7553 13.4641 55.5587 12.7029 56.5735 12.1449C57.5883 11.5697 58.7384 11.2822 60.0238 11.2822C61.3092 11.2822 62.4593 11.5613 63.4741 12.1194C64.4889 12.6776 65.2923 13.4472 65.8843 14.4281C66.4763 15.3922 66.7723 16.4831 66.7723 17.7009C66.7723 18.9186 66.4763 20.018 65.8843 20.9989C65.2923 21.98 64.4889 22.758 63.4741 23.333C62.4593 23.8912 61.3092 24.1702 60.0238 24.1702ZM60.0238 20.6438C60.5819 20.6438 61.0724 20.5254 61.4953 20.2886C61.9181 20.0349 62.2395 19.6882 62.4593 19.2485C62.6961 18.7918 62.8145 18.2759 62.8145 17.7009C62.8145 17.1258 62.6961 16.6269 62.4593 16.2041C62.2225 15.7643 61.8927 15.4261 61.4699 15.1893C61.0639 14.9355 60.5819 14.8087 60.0238 14.8087C59.4826 14.8087 59.0006 14.9355 58.5777 15.1893C58.1549 15.4261 57.8251 15.7643 57.5883 16.2041C57.3515 16.6438 57.2331 17.1512 57.2331 17.7262C57.2331 18.2844 57.3515 18.7918 57.5883 19.2485C57.8251 19.6882 58.1549 20.0349 58.5777 20.2886C59.0006 20.5254 59.4826 20.6438 60.0238 20.6438Z" fill="#96B0B0"/>
<path fill-rule="evenodd" clip-rule="evenodd" d="M69.8456 28.7115C70.8773 29.1851 72.0697 29.4219 73.4228 29.4219C74.742 29.4219 75.9176 29.1597 76.9492 28.6354C77.981 28.1111 78.7928 27.3839 79.3848 26.4536C79.9767 25.5234 80.2731 24.424 80.2731 23.1555V11.5614H76.4672V12.3898C76.1841 12.1515 75.8627 11.9515 75.5032 11.7897C74.8435 11.4683 74.0908 11.3076 73.2452 11.3076C72.112 11.3076 71.1056 11.5783 70.2262 12.1195C69.3466 12.6438 68.6532 13.3711 68.1458 14.3013C67.6384 15.2147 67.3848 16.2463 67.3848 17.3965C67.3848 18.5297 67.6384 19.5614 68.1458 20.4916C68.6532 21.4219 69.3466 22.1576 70.2262 22.6988C71.1056 23.24 72.112 23.5107 73.2452 23.5107C74.074 23.5107 74.8266 23.35 75.5032 23.0287C75.8308 22.873 76.1268 22.6895 76.3911 22.4783V23.257C76.3911 24.1195 76.112 24.7876 75.5539 25.2612C75.0127 25.7348 74.26 25.9715 73.296 25.9715C72.518 25.9715 71.8499 25.8363 71.2917 25.5656C70.7505 25.2951 70.26 24.8975 69.8202 24.3732L67.4355 26.758C68.0274 27.6037 68.8308 28.2549 69.8456 28.7115ZM75.3763 19.7051C74.9872 19.9419 74.5222 20.0603 73.9809 20.0603C73.4397 20.0603 72.9661 19.9419 72.5602 19.7051C72.1712 19.4683 71.8668 19.147 71.6469 18.7411C71.427 18.3183 71.3171 17.87 71.3171 17.3965C71.3171 16.8891 71.427 16.4324 71.6469 16.0265C71.8668 15.6206 72.1796 15.2992 72.5856 15.0624C72.9915 14.8256 73.4566 14.7072 73.9809 14.7072C74.5222 14.7072 74.9872 14.8256 75.3763 15.0624C75.7822 15.2992 76.0866 15.6206 76.2896 16.0265C76.5095 16.4324 76.6194 16.8891 76.6194 17.3965C76.6194 17.9039 76.5095 18.3605 76.2896 18.7664C76.0866 19.1555 75.7822 19.4683 75.3763 19.7051Z" fill="#96B0B0"/>
<path fill-rule="evenodd" clip-rule="evenodd" d="M88.4422 24.1702C87.1734 24.1702 86.023 23.8912 84.9918 23.333C83.9766 22.758 83.1734 21.98 82.5814 20.9989C81.9894 20.018 81.6934 18.9186 81.6934 17.7009C81.6934 16.4831 81.9894 15.3922 82.5814 14.4281C83.1734 13.4641 83.9766 12.7029 84.9918 12.1449C86.0062 11.5697 87.1566 11.2822 88.4422 11.2822C89.727 11.2822 90.8774 11.5613 91.8918 12.1194C92.907 12.6776 93.7102 13.4472 94.3022 14.4281C94.8942 15.3922 95.1902 16.4831 95.1902 17.7009C95.1902 18.9186 94.8942 20.018 94.3022 20.9989C93.7102 21.98 92.907 22.758 91.8918 23.333C90.8774 23.8912 89.727 24.1702 88.4422 24.1702ZM88.4422 20.6438C88.9998 20.6438 89.4902 20.5254 89.9134 20.2886C90.3358 20.0349 90.6574 19.6882 90.8774 19.2485C91.1142 18.7918 91.2326 18.2759 91.2326 17.7009C91.2326 17.1258 91.1142 16.6269 90.8774 16.2041C90.6406 15.7643 90.311 15.4261 89.8878 15.1893C89.4822 14.9355 88.9998 14.8087 88.4422 14.8087C87.9006 14.8087 87.4182 14.9355 86.9958 15.1893C86.5726 15.4261 86.243 15.7643 86.0062 16.2041C85.7694 16.6438 85.651 17.1512 85.651 17.7262C85.651 18.2844 85.7694 18.7918 86.0062 19.2485C86.243 19.6882 86.5726 20.0349 86.9958 20.2886C87.4182 20.5254 87.9006 20.6438 88.4422 20.6438Z" fill="#96B0B0"/>
<path fill-rule="evenodd" clip-rule="evenodd" d="M109.826 24.1449C108.998 24.1449 108.236 23.9843 107.543 23.6629C107.178 23.4938 106.848 23.2919 106.554 23.0571V29.0921H102.723V11.5614H106.604V12.4123C106.886 12.182 107.199 11.9829 107.543 11.8151C108.236 11.4767 108.998 11.3076 109.826 11.3076C110.993 11.3076 112.025 11.5867 112.921 12.1449C113.835 12.703 114.545 13.4641 115.052 14.4282C115.577 15.3923 115.839 16.4916 115.839 17.7263C115.839 18.961 115.577 20.0603 115.052 21.0244C114.545 21.9885 113.835 22.7495 112.921 23.3077C112.025 23.8659 110.993 24.1449 109.826 24.1449ZM109.116 20.6439C109.674 20.6439 110.156 20.517 110.562 20.2633C110.985 20.0096 111.315 19.6628 111.551 19.2231C111.788 18.7834 111.907 18.2844 111.907 17.7263C111.907 17.1512 111.788 16.6439 111.551 16.2041C111.315 15.7643 110.985 15.4261 110.562 15.1893C110.156 14.9355 109.683 14.8087 109.141 14.8087C108.6 14.8087 108.118 14.9355 107.695 15.1893C107.289 15.4261 106.968 15.7643 106.731 16.2041C106.495 16.6439 106.376 17.1512 106.376 17.7263C106.376 18.2844 106.486 18.7834 106.706 19.2231C106.943 19.6628 107.272 20.0096 107.695 20.2633C108.118 20.517 108.591 20.6439 109.116 20.6439Z" fill="#96B0B0"/>
<path d="M119.638 23.9174C120.349 24.1035 121.067 24.1965 121.794 24.1965C123.333 24.1965 124.551 23.8414 125.448 23.131C126.361 22.4206 126.817 21.465 126.817 20.2642C126.817 19.4862 126.674 18.8603 126.386 18.3868C126.099 17.8963 125.727 17.5073 125.27 17.2198C124.813 16.9322 124.331 16.7038 123.824 16.5347C123.317 16.3656 122.834 16.2218 122.378 16.1034C121.921 15.985 121.549 15.8498 121.261 15.6975C120.974 15.5453 120.83 15.3423 120.83 15.0886C120.83 14.8518 120.941 14.6742 121.16 14.5558C121.38 14.4206 121.709 14.353 122.149 14.353C122.606 14.353 123.071 14.4459 123.545 14.632C124.035 14.818 124.475 15.1394 124.864 15.5961L127.071 13.3635C126.513 12.6531 125.786 12.1203 124.889 11.7652C124.01 11.3931 123.046 11.207 121.997 11.207C121 11.207 120.129 11.3762 119.385 11.7144C118.64 12.0527 118.065 12.5178 117.659 13.1098C117.253 13.6848 117.05 14.3698 117.05 15.1648C117.05 15.909 117.194 16.5263 117.481 17.0168C117.769 17.4903 118.141 17.8625 118.597 18.133C119.054 18.4037 119.537 18.6151 120.044 18.7673C120.551 18.9195 121.033 19.0633 121.49 19.1986C121.946 19.317 122.319 19.4608 122.606 19.6299C122.911 19.7822 123.063 20.0105 123.063 20.3149C123.063 20.5517 122.936 20.7377 122.682 20.873C122.445 21.0083 122.099 21.076 121.642 21.076C120.982 21.076 120.373 20.9576 119.816 20.7208C119.257 20.4671 118.775 20.1204 118.369 19.6806L116.162 21.9132C116.585 22.3698 117.093 22.7758 117.685 23.131C118.293 23.4692 118.945 23.7313 119.638 23.9174Z" fill="#96B0B0"/>
<path d="M133.895 24.1704C132.763 24.1704 131.756 23.9421 130.877 23.4854C130.014 23.0118 129.338 22.3691 128.847 21.5573C128.356 20.7286 128.111 19.7814 128.111 18.7158V11.5615H131.993V18.6651C131.993 19.0879 132.06 19.4516 132.196 19.756C132.348 20.0605 132.568 20.2973 132.855 20.4664C133.143 20.6355 133.49 20.7201 133.895 20.7201C134.471 20.7201 134.927 20.5425 135.266 20.1873C135.604 19.8152 135.773 19.3078 135.773 18.6651V11.5615H139.655V18.6905C139.655 19.773 139.41 20.7286 138.919 21.5573C138.428 22.3691 137.752 23.0118 136.889 23.4854C136.027 23.9421 135.029 24.1704 133.895 24.1704Z" fill="#96B0B0"/>
<path d="M145.466 11.5614H141.584V23.8912H145.466V16.6861C145.466 16.2633 145.55 15.9081 145.719 15.6206C145.906 15.3331 146.151 15.1131 146.455 14.961C146.76 14.7918 147.106 14.7072 147.495 14.7072C148.054 14.7072 148.518 14.8848 148.89 15.24C149.28 15.5783 149.474 16.0603 149.474 16.6861V23.8912H153.356V16.6861C153.356 16.2633 153.441 15.9081 153.61 15.6206C153.796 15.3331 154.041 15.1131 154.346 14.961C154.65 14.7918 154.997 14.7072 155.386 14.7072C155.944 14.7072 156.409 14.8848 156.781 15.24C157.17 15.5783 157.364 16.0603 157.364 16.6861V23.8912H161.246V16.2548C161.246 15.2231 161.026 14.3436 160.586 13.6163C160.163 12.8721 159.58 12.3055 158.836 11.9166C158.109 11.5106 157.271 11.3076 156.324 11.3076C155.36 11.3076 154.489 11.5191 153.711 11.9419C153.206 12.2113 152.764 12.559 152.386 12.9849C152.033 12.5394 151.604 12.1748 151.098 11.8911C150.422 11.5022 149.652 11.3076 148.79 11.3076C147.876 11.3076 147.056 11.5022 146.329 11.8911C146.012 12.053 145.725 12.2468 145.466 12.4727V11.5614Z" fill="#96B0B0"/>
</g>
<defs>
<clipPath id="clip0_4384_9786">
<rect width="161.6" height="32" fill="white"/>
</clipPath>
</defs>
</svg>
