<svg width="386" height="342" viewBox="0 0 386 342" fill="none" xmlns="http://www.w3.org/2000/svg">
  <path
      d="M10.4063 172.974L38.8898 162.992L0.976781 119.486L78.465 91.573L59.2035 68.7953L76.6619 62.0693L62.2932 44.218L188.477 0.626767L203.153 17.8641L212.648 14.4002L284.625 100.987L379.883 215.29L365.467 219.96L384.745 246.849L276.937 283.921L281.522 290.69L135.124 340.387L99.6635 294.428L108.967 290.682L52.9884 223.887L10.4063 172.974Z"
      fill="#00838F" fill-opacity="0.4"/>
  <path
      d="M38.8898 162.992L10.4063 172.974L52.9884 223.887M38.8898 162.992L0.976784 119.486L78.465 91.573M38.8898 162.992L63.1129 190.116M78.465 91.573L59.2035 68.7953L76.6619 62.0693L62.2932 44.218L188.477 0.626762L203.153 17.8641L212.648 14.4003L284.625 100.987M78.465 91.573L133.203 152.396M52.9884 223.887L83.9754 213.873L63.1129 190.116M52.9884 223.887L108.967 290.682M63.1129 190.116L142.814 163.184L133.203 152.396M133.203 152.396L284.625 100.987M284.625 100.987L379.883 215.29L365.467 219.96M108.967 290.682L117.107 300.404L365.467 219.96M108.967 290.682L99.6635 294.428L135.124 340.387L281.522 290.69L276.937 283.921L384.745 246.849L365.467 219.96"
      stroke="#00C4D6" stroke-width="1.19925" stroke-linecap="round" stroke-dasharray="2.88 3.36"/>
</svg>
